<svg xmlns="http://www.w3.org/2000/svg" width="1627" height="582" data-name="Группа 1">
  <defs>
    <filter id="a" width="66" height="66" x="1685" y="6174" filterUnits="userSpaceOnUse">
      <feOffset dy="3" in="SourceAlpha" result="offset"/>
      <feGaussianBlur result="blur" stdDeviation="3.162"/>
      <feFlood flood-color="#fe3e57" flood-opacity=".5" result="flood"/>
      <feComposite in2="blur" operator="in" result="composite"/>
      <feBlend in="SourceGraphic" result="blend"/>
    </filter>
  </defs>
  <path fill="#fe3e57" fill-rule="evenodd" d="M1444.52 51.26a1.74 1.74 0 1 1 1.74 1.74 1.741 1.741 0 0 1-1.74-1.74Zm-13.71 0a1.74 1.74 0 1 1 1.74 1.74 1.741 1.741 0 0 1-1.74-1.74Zm-13.49 0a1.74 1.74 0 1 1 1.74 1.74 1.741 1.741 0 0 1-1.74-1.74Zm-13.71 0a1.74 1.74 0 1 1 1.74 1.74 1.741 1.741 0 0 1-1.74-1.74Zm-13.5 0a1.745 1.745 0 1 1 1.74 1.74 1.741 1.741 0 0 1-1.74-1.74Zm-13.71 0a1.745 1.745 0 1 1 1.74 1.74 1.741 1.741 0 0 1-1.74-1.74Zm-13.49 0a1.74 1.74 0 1 1 1.74 1.74 1.741 1.741 0 0 1-1.74-1.74Zm-13.71 0a1.74 1.74 0 1 1 1.74 1.74 1.741 1.741 0 0 1-1.74-1.74Zm-13.49 0a1.74 1.74 0 1 1 1.74 1.74 1.741 1.741 0 0 1-1.74-1.74Zm-13.71 0a1.74 1.74 0 1 1 1.74 1.74 1.741 1.741 0 0 1-1.74-1.74Zm122.52-16.51a1.74 1.74 0 1 1 1.74 1.74 1.733 1.733 0 0 1-1.74-1.74Zm-13.71 0a1.74 1.74 0 1 1 1.74 1.74 1.733 1.733 0 0 1-1.74-1.74Zm-13.49 0a1.74 1.74 0 1 1 1.74 1.74 1.733 1.733 0 0 1-1.74-1.74Zm-13.71 0a1.74 1.74 0 1 1 1.74 1.74 1.733 1.733 0 0 1-1.74-1.74Zm-13.5 0a1.745 1.745 0 1 1 1.74 1.74 1.733 1.733 0 0 1-1.74-1.74Zm-13.71 0a1.745 1.745 0 1 1 1.74 1.74 1.733 1.733 0 0 1-1.74-1.74Zm-13.49 0a1.74 1.74 0 1 1 1.74 1.74 1.733 1.733 0 0 1-1.74-1.74Zm-13.71 0a1.74 1.74 0 1 1 1.74 1.74 1.733 1.733 0 0 1-1.74-1.74Zm-13.49 0a1.74 1.74 0 1 1 1.74 1.74 1.733 1.733 0 0 1-1.74-1.74Zm-13.71 0a1.74 1.74 0 1 1 1.74 1.74 1.733 1.733 0 0 1-1.74-1.74Zm122.52-16.5a1.74 1.74 0 1 1 1.74 1.73 1.741 1.741 0 0 1-1.74-1.73Zm-13.71 0a1.74 1.74 0 1 1 1.74 1.73 1.741 1.741 0 0 1-1.74-1.73Zm-13.49 0a1.74 1.74 0 1 1 1.74 1.73 1.741 1.741 0 0 1-1.74-1.73Zm-13.71 0a1.74 1.74 0 1 1 1.74 1.73 1.741 1.741 0 0 1-1.74-1.73Zm-13.5 0a1.745 1.745 0 1 1 1.74 1.73 1.741 1.741 0 0 1-1.74-1.73Zm-13.71 0a1.745 1.745 0 1 1 1.74 1.73 1.741 1.741 0 0 1-1.74-1.73Zm-13.49 0a1.74 1.74 0 1 1 1.74 1.73 1.741 1.741 0 0 1-1.74-1.73Zm-13.71 0a1.74 1.74 0 1 1 1.74 1.73 1.741 1.741 0 0 1-1.74-1.73Zm-13.49 0a1.74 1.74 0 1 1 1.74 1.73 1.741 1.741 0 0 1-1.74-1.73Zm-13.71 0a1.74 1.74 0 1 1 1.74 1.73 1.741 1.741 0 0 1-1.74-1.73Zm122.52-16.51a1.74 1.74 0 1 1 1.74 1.74 1.741 1.741 0 0 1-1.74-1.74Zm-13.71 0a1.74 1.74 0 1 1 1.74 1.74 1.741 1.741 0 0 1-1.74-1.74Zm-13.49 0a1.74 1.74 0 1 1 1.74 1.74 1.741 1.741 0 0 1-1.74-1.74Zm-13.71 0a1.74 1.74 0 1 1 1.74 1.74 1.741 1.741 0 0 1-1.74-1.74Zm-13.5 0a1.745 1.745 0 1 1 1.74 1.74 1.741 1.741 0 0 1-1.74-1.74Zm-13.71 0a1.745 1.745 0 1 1 1.74 1.74 1.741 1.741 0 0 1-1.74-1.74Zm-13.49 0a1.74 1.74 0 1 1 1.74 1.74 1.741 1.741 0 0 1-1.74-1.74Zm-13.71 0a1.74 1.74 0 1 1 1.74 1.74 1.741 1.741 0 0 1-1.74-1.74Zm-13.49 0a1.74 1.74 0 1 1 1.74 1.74 1.741 1.741 0 0 1-1.74-1.74Zm-13.71 0a1.74 1.74 0 1 1 1.74 1.74 1.741 1.741 0 0 1-1.74-1.74Z"/>
  <path fill="#fe3e57" fill-rule="evenodd" d="M1717.5 6180a23.5 23.5 0 1 0 23.5 23.5 23.5 23.5 0 0 0-23.5-23.5Zm0 42.19a18.7 18.7 0 1 1 18.7-18.69 18.689 18.689 0 0 1-18.7 18.69Zm.02-24.3a5.605 5.605 0 1 0 5.59 5.63 5.614 5.614 0 0 0-5.59-5.63Z" filter="url(#a)" transform="translate(-124 -5658)"/>
  <path fill="#34c3ff" fill-rule="evenodd" d="M81.4 241.77a2.155 2.155 0 1 0 2.161 2.15 2.154 2.154 0 0 0-2.161-2.15Zm-14.406 0a2.155 2.155 0 1 0 2.16 2.15 2.155 2.155 0 0 0-2.162-2.15Zm0-14.39a2.16 2.16 0 1 0 2.16 2.16 2.163 2.163 0 0 0-2.162-2.16Zm-14.407 0a2.16 2.16 0 1 0 0 4.32 2.16 2.16 0 1 0-.002-4.32Zm21.61 21.58a2.155 2.155 0 1 0 2.16 2.16 2.156 2.156 0 0 0-2.157-2.16Zm14.407 0a2.155 2.155 0 1 0 2.161 2.16 2.157 2.157 0 0 0-2.165-2.16ZM74.2 234.57a2.16 2.16 0 1 0 2.16 2.16 2.163 2.163 0 0 0-2.16-2.16Zm-14.407 0a2.16 2.16 0 1 0 2.161 2.16 2.163 2.163 0 0 0-2.166-2.16Zm36.017 35.96a2.16 2.16 0 1 0 2.16 2.16 2.162 2.162 0 0 0-2.165-2.16Zm-14.407 0a2.16 2.16 0 1 0 2.161 2.16 2.162 2.162 0 0 0-2.164-2.16Zm-14.406 0a2.16 2.16 0 1 0 2.16 2.16 2.163 2.163 0 0 0-2.165-2.16Zm28.813-14.38a2.155 2.155 0 1 0 2.16 2.16 2.162 2.162 0 0 0-2.165-2.16Zm-14.407 0a2.155 2.155 0 1 0 2.161 2.16 2.162 2.162 0 0 0-2.164-2.16Zm-14.406 0a2.155 2.155 0 1 0 2.16 2.16 2.163 2.163 0 0 0-2.165-2.16Zm-14.407 0a2.155 2.155 0 1 0 0 4.31 2.155 2.155 0 1 0-.005-4.31Zm21.61 21.58a2.155 2.155 0 1 0 2.16 2.15 2.154 2.154 0 0 0-2.16-2.15Zm14.407 0a2.155 2.155 0 1 0 2.161 2.15 2.154 2.154 0 0 0-2.168-2.15ZM74.2 263.34a2.16 2.16 0 1 0 2.16 2.16 2.163 2.163 0 0 0-2.16-2.16Zm16.567 2.16a2.161 2.161 0 1 0-2.161 2.16 2.163 2.163 0 0 0 2.156-2.16Zm12.247-2.16a2.16 2.16 0 1 0 2.16 2.16 2.163 2.163 0 0 0-2.165-2.16Zm-43.221 0a2.16 2.16 0 1 0 2.161 2.16 2.163 2.163 0 0 0-2.166-2.16Zm7.2 35.96a2.16 2.16 0 1 0 2.16 2.16 2.163 2.163 0 0 0-2.161-2.16Zm14.406-14.38a2.155 2.155 0 1 0 2.161 2.15 2.154 2.154 0 0 0-2.16-2.15Zm-14.406 0a2.155 2.155 0 1 0 2.16 2.15 2.155 2.155 0 0 0-2.161-2.15Zm-14.407 0a2.155 2.155 0 1 0 0 4.31 2.155 2.155 0 1 0-.001-4.31Zm21.61 7.19a2.155 2.155 0 1 0 2.16 2.16 2.156 2.156 0 0 0-2.156-2.16Zm-14.407 0a2.155 2.155 0 1 0 2.161 2.16 2.157 2.157 0 0 0-2.162-2.16Zm-7.2 21.57a2.16 2.16 0 1 0 0 4.32 2.16 2.16 0 1 0-.004-4.32Zm0-96.37a2.155 2.155 0 1 0-2.162-2.15 2.154 2.154 0 0 0 2.157 2.15Zm-7.2 2.88a2.155 2.155 0 1 0 2.162 2.16 2.163 2.163 0 0 0-2.171-2.16Zm14.408 4.31a2.155 2.155 0 1 0-2.163-2.15 2.155 2.155 0 0 0 2.154 2.15Zm-7.2 21.58a2.155 2.155 0 1 0-2.162-2.16 2.163 2.163 0 0 0 2.149 2.16Zm-7.2 2.88a2.155 2.155 0 1 0 2.162 2.16 2.156 2.156 0 0 0-2.179-2.16Zm14.408 4.31a2.155 2.155 0 1 0-2.163-2.15 2.155 2.155 0 0 0 2.146 2.15Zm-14.408-18.7a2.16 2.16 0 1 0 2.162 2.16 2.163 2.163 0 0 0-2.179-2.16Zm-13.565.17a2.14 2.14 0 0 0-.84-.17 2.17 2.17 0 0 0-1.991 1.32 2.16 2.16 0 0 0 1.991 3 2.16 2.16 0 0 0 2.16-2.16 2.168 2.168 0 0 0-1.337-1.99Zm20.769 40.11a2.16 2.16 0 1 0-2.162-2.16 2.163 2.163 0 0 0 2.145 2.16Zm-7.2 2.88a2.155 2.155 0 1 0 2.162 2.15 2.154 2.154 0 0 0-2.183-2.15Zm14.408 4.31a2.155 2.155 0 1 0-2.163-2.16 2.163 2.163 0 0 0 2.142 2.16Zm-14.408-18.7a2.16 2.16 0 1 0 2.162 2.16 2.163 2.163 0 0 0-2.183-2.16Zm-13.565.17a2.14 2.14 0 0 0-.84-.17 2.16 2.16 0 1 0 0 4.32 2.14 2.14 0 0 0 .84-.17 2.16 2.16 0 0 0-.021-3.98Zm20.769 40.11a2.16 2.16 0 1 0-2.162-2.16 2.163 2.163 0 0 0 2.141 2.16Zm-7.2 2.87a2.16 2.16 0 1 0 2.162 2.16 2.163 2.163 0 0 0-2.187-2.16Zm14.408 0a2.16 2.16 0 1 0 2.16 2.16 2.163 2.163 0 0 0-2.185-2.16Zm-14.408-14.38a2.155 2.155 0 1 0 2.162 2.16 2.156 2.156 0 0 0-2.187-2.16Zm-13.565.17a2.14 2.14 0 0 0-.84-.17 2.155 2.155 0 0 0-1.991 1.32 2.1 2.1 0 0 0-.17.84A2.147 2.147 0 0 0 31 296.42a2.154 2.154 0 0 0 .815-4.14Zm6.364-50.51a2.155 2.155 0 1 0 0 4.31 2.155 2.155 0 1 0-.025-4.31Zm-14.409 0a2.155 2.155 0 1 0 2.162 2.15 2.154 2.154 0 0 0-2.187-2.15Zm14.409-14.39a2.16 2.16 0 1 0 0 4.32 2.166 2.166 0 0 0 1.988-1.32 2.16 2.16 0 0 0-2.013-3Zm-21.613 21.58a2.155 2.155 0 1 0 2.162 2.16 2.155 2.155 0 0 0-2.187-2.16Zm14.409 0a2.155 2.155 0 1 0 2.16 2.16 2.156 2.156 0 0 0-2.185-2.16Zm7.2 21.57a2.16 2.16 0 1 0 0 4.32 2.16 2.16 0 0 0-.021-4.32Zm-14.409 0a2.16 2.16 0 1 0 2.162 2.16 2.162 2.162 0 0 0-2.183-2.16Zm-14.406 0a2.16 2.16 0 1 0 2.16 2.16 2.163 2.163 0 0 0-2.181-2.16ZM38.2 256.15a2.157 2.157 0 0 0-2.161 2.16 2.191 2.191 0 0 0 .169.84 2.162 2.162 0 0 0 1.992 1.31 2.155 2.155 0 1 0-.021-4.31Zm-14.409 0a2.155 2.155 0 1 0 2.162 2.16 2.162 2.162 0 0 0-2.183-2.16Zm-14.406 0a2.155 2.155 0 1 0 2.16 2.16 2.163 2.163 0 0 0-2.181-2.16Zm7.2 21.58a2.155 2.155 0 1 0 2.162 2.15 2.153 2.153 0 0 0-2.181-2.15Zm14.409 0a2.155 2.155 0 1 0 2.16 2.15 2.154 2.154 0 0 0-2.179-2.15Zm-14.409-14.39a2.16 2.16 0 1 0 2.162 2.16 2.162 2.162 0 0 0-2.181-2.16Zm-14.406 0a2.16 2.16 0 1 0 2.162 2.16 2.162 2.162 0 0 0-2.181-2.16Zm36.019 35.96a2.16 2.16 0 1 0 0 4.32 2.166 2.166 0 0 0 1.988-1.32 2.16 2.16 0 0 0-2.007-3Zm0-14.38a2.162 2.162 0 0 0-1.992 1.31 2.191 2.191 0 0 0-.169.84 2.117 2.117 0 0 0 .169.84 2.155 2.155 0 0 0 1.992 1.32 2.151 2.151 0 0 0 1.988-1.32 2.1 2.1 0 0 0 .171-.84 2.15 2.15 0 0 0-2.178-2.15Zm-14.409 0a2.155 2.155 0 1 0 2.162 2.15 2.154 2.154 0 0 0-2.181-2.15Z"/>
</svg>
