<svg xmlns="http://www.w3.org/2000/svg" width="9" height="10">
  <path fill="#727272" fill-rule="evenodd" d="M8.907 4.768 4.569.108a.279.279 0 0 0-.428 0l-.465.5a.331.331 0 0 0 0 .46l3.658 3.93-3.658 3.931a.322.322 0 0 0-.093.23.325.325 0 0 0 .093.23l.465.5a.279.279 0 0 0 .428 0l4.338-4.661A.326.326 0 0 0 9 5a.33.33 0 0 0-.093-.23Zm0 0-3.482.23a.325.325 0 0 0-.093-.23L1 .108a.279.279 0 0 0-.428 0l-.466.5a.331.331 0 0 0 0 .46l3.658 3.93L.106 8.929a.331.331 0 0 0-.093.23.334.334 0 0 0 .093.23l.466.5a.279.279 0 0 0 .428 0l4.337-4.661a.322.322 0 0 0 .093-.23Zm0 0"/>
</svg>
