<svg xmlns="http://www.w3.org/2000/svg" width="16" height="16">
  <path fill="#FE3E57" fill-rule="evenodd" d="M15.375 0H.625A.625.625 0 0 0 0 .625V13c0 .345.28.624.625.624h5.53l1.317 2.085a.625.625 0 0 0 1.056 0l1.316-2.085h5.531A.624.624 0 0 0 16 13V.625A.625.625 0 0 0 15.375 0Zm-.625 12.375H9.5a.628.628 0 0 0-.529.291L8 14.204l-.972-1.538a.625.625 0 0 0-.528-.291H1.25V1.25h13.5v11.125ZM7.219 6.812a.78.78 0 1 1 1.562 0 .78.78 0 0 1-1.562 0Zm-3.125 0a.78.78 0 1 1 1.562 0 .78.78 0 0 1-1.562 0Zm6.25 0a.78.78 0 1 1 1.562 0 .78.78 0 0 1-1.562 0Z"/>
</svg>
