<svg xmlns="http://www.w3.org/2000/svg" width="16" height="16">
  <path fill="#727272" fill-rule="evenodd" d="M8 0 .229 6.858a.665.665 0 0 0-.064.925.639.639 0 0 0 .91.065l.286-.253v6.44A1.95 1.95 0 0 0 3.294 16H6.9v-5.274A1.138 1.138 0 0 1 8.028 9.58a1.138 1.138 0 0 1 1.128 1.146V16H12.7a1.95 1.95 0 0 0 1.934-1.965v-6.44l.286.253a.637.637 0 0 0 .909-.065.663.663 0 0 0-.064-.925Zm5.35 14.035a.65.65 0 0 1-.645.655h-2.256v-3.964A2.437 2.437 0 0 0 8.032 8.27a2.437 2.437 0 0 0-2.417 2.456v3.964h-2.32a.65.65 0 0 1-.645-.655V6.457L8 1.735l5.35 4.722v7.578Z"/>
</svg>
