<svg xmlns="http://www.w3.org/2000/svg" width="48.1" height="28.86"><defs><clipPath id="a"><path fill="none" d="M0 0h48.1v28.86H0z"/></clipPath></defs><g clip-path="url(#a)"><path d="M48.1 14.43A14.43 14.43 0 1133.59 0 14.42 14.42 0 0148.1 14.43" fill="#ffb600"/><path d="M33.67 0a14.43 14.43 0 11-14.43 14.43" fill="#f7981d"/><path d="M33.67 0a14.43 14.43 0 110 28.86" fill="#ff8500"/><path d="M14.28 0a14.43 14.43 0 00.15 28.86 14.59 14.59 0 009.7-3.74 13.77 13.77 0 001.45-1.53h-3a17.69 17.69 0 01-1.07-1.45h5.11a9.75 9.75 0 00.84-1.53h-6.77a9.13 9.13 0 01-.61-1.53H28a15.17 15.17 0 00.76-4.58 19.67 19.67 0 00-.31-3.05h-8.83A11.06 11.06 0 0120 9.93h7.94a9 9 0 00-.61-1.53h-6.72a15.1 15.1 0 01.84-1.53h5.12a7.27 7.27 0 00-1.15-1.53H22.6A13.06 13.06 0 0124 3.89 14.08 14.08 0 0014.35.15c0-.15 0-.15-.08-.15" fill="#ff5050"/><path d="M0 14.43a14.42 14.42 0 0014.43 14.43 14.59 14.59 0 009.7-3.74 13.87 13.87 0 001.45-1.53h-3a17.46 17.46 0 01-1.07-1.45h5.11a9.83 9.83 0 00.84-1.53h-6.8a9.06 9.06 0 01-.61-1.53H28a15.16 15.16 0 00.76-4.58 19.8 19.8 0 00-.31-3.05h-8.83A11.2 11.2 0 0120 9.92h7.94a9 9 0 00-.61-1.53h-6.72a15.12 15.12 0 01.84-1.53h5.11a7.29 7.29 0 00-1.15-1.53H22.6A13 13 0 0124 3.89 14.08 14.08 0 0014.35.15h-.08" fill="#e52836"/><path d="M14.43 28.86a14.59 14.59 0 009.69-3.74 13.61 13.61 0 001.45-1.53h-3a17.67 17.67 0 01-1.07-1.45h5.11a9.83 9.83 0 00.84-1.53h-6.8a9.13 9.13 0 01-.61-1.53H28a15.17 15.17 0 00.76-4.58 19.78 19.78 0 00-.31-3.05h-8.83A11.25 11.25 0 0120 9.92h7.94a9 9 0 00-.61-1.53h-6.72a15.09 15.09 0 01.84-1.53h5.12a7.27 7.27 0 00-1.15-1.53H22.6A13 13 0 0124 3.89 14.08 14.08 0 0014.35.15h-.08" fill="#cb2026"/><path d="M19.54 18.09l.23-1.3a3.28 3.28 0 01-.38.08c-.53 0-.61-.31-.53-.46l.46-2.67h.84l.23-1.45h-.76l.15-.92h-1.53s-.92 5-.92 5.65a1.15 1.15 0 001.22 1.3 2.33 2.33 0 001-.23" fill="#fff"/><path d="M20.08 15.65a2.43 2.43 0 002.67 2.67 4 4 0 001.6-.23l.31-1.45a4.59 4.59 0 01-1.6.38c-1.68 0-1.37-1.22-1.37-1.22h3.13a9.85 9.85 0 00.18-1.37 2.07 2.07 0 00-2.22-2.21c-1.6-.15-2.75 1.53-2.75 3.43m2.67-2.21c.84 0 .69 1 .69 1.07h-1.63c0-.08.15-1.07 1-1.07m9.69 4.65l.31-1.68a3.76 3.76 0 01-1.3.38A1.55 1.55 0 0129.93 15c0-1.83.92-2.82 2-2.82a2.55 2.55 0 011.37.46l.23-1.6a5.37 5.37 0 00-1.76-.38c-1.76 0-3.51 1.53-3.51 4.43 0 1.91.92 3.21 2.75 3.21a6.85 6.85 0 001.45-.23m-21.31-6.01a5.39 5.39 0 00-1.83.31l-.23 1.3a4.52 4.52 0 011.68-.31c.53 0 1 .08 1 .53 0 .31-.08.38-.08.38H11c-1.3 0-2.75.53-2.75 2.29 0 1.37.92 1.68 1.45 1.68a2.29 2.29 0 001.6-.69l-.08.61h1.38l.61-4.2a1.81 1.81 0 00-2.06-1.91m.31 3.43c0 .23-.15 1.45-1.07 1.45a.6.6 0 01-.61-.61c0-.38.23-.92 1.37-.92a1.21 1.21 0 00.31.08m3.2 2.77a2 2 0 002.29-2c0-1.91-1.83-1.53-1.83-2.29 0-.38.31-.53.84-.53.23 0 1.07.08 1.07.08l.23-1.37A5.79 5.79 0 0015.8 12c-1.14 0-2.29.46-2.29 2 0 1.76 1.91 1.6 1.91 2.29 0 .46-.54.53-.92.53a5 5 0 01-1.37-.23l-.23 1.37c.08.15.46.31 1.76.31m30.46-7.43l-.3 2.06a2.12 2.12 0 00-1.45-.76c-1.37 0-2.6 1.68-2.6 3.66 0 1.22.61 2.52 1.91 2.52a2 2 0 001.45-.61l-.08.53h1.53l1.14-7.33zm-.69 4c0 .84-.38 1.91-1.22 1.91-.53 0-.84-.46-.84-1.22 0-1.22.53-2 1.22-2 .53 0 .84.38.84 1.3M2.82 18.17l.92-5.5.15 5.5h1.07l1.99-5.5-.84 5.5h1.6l1.22-7.33H6.41l-1.52 4.51-.08-4.51H2.6l-1.23 7.33h1.45zm23.67 0c.46-2.52.53-4.58 1.6-4.2a6 6 0 01.53-1.76h-.31c-.69 0-1.22.92-1.22.92l.15-.84H25.8l-1 6h1.68zM36 12.06a5.4 5.4 0 00-1.83.31l-.23 1.3a4.52 4.52 0 011.68-.31c.54 0 1 .08 1 .53 0 .31-.08.38-.08.38h-.74c-1.3 0-2.75.53-2.75 2.29 0 1.37.92 1.68 1.45 1.68a2.3 2.3 0 001.6-.69l-.08.61h1.37L38 14a1.78 1.78 0 00-2-1.94m.38 3.43c0 .23-.15 1.45-1.07 1.45a.6.6 0 01-.61-.61c0-.38.23-.92 1.37-.92.23.08.23.08.31.08m2.94 2.68c.46-2.52.53-4.58 1.6-4.2a6 6 0 01.53-1.76h-.31c-.69 0-1.22.92-1.22.92l.15-.84h-1.44l-1 6h1.68z" fill="#fff"/><path d="M17.18 17a1.15 1.15 0 001.22 1.3 2.86 2.86 0 001.15-.23l.23-1.3a3.35 3.35 0 01-.38.08c-.53 0-.61-.31-.53-.46l.46-2.67h.84l.23-1.45h-.76l.15-.92m1.05 4.3c0 2.14.69 2.67 1.91 2.67a4 4 0 001.6-.23l.31-1.45a4.59 4.59 0 01-1.6.38c-1.68 0-1.37-1.22-1.37-1.22h3.13a9.85 9.85 0 00.18-1.37 2.07 2.07 0 00-2.22-2.21c-1.6-.15-2 1.53-2 3.43m1.91-2.21c.84 0 1 1 1 1.07h-2c0-.08.15-1.07 1-1.07m9.76 4.65l.31-1.68a3.76 3.76 0 01-1.3.38A1.55 1.55 0 0129.93 15c0-1.83.92-2.82 2-2.82a2.55 2.55 0 011.37.46l.23-1.6a5.37 5.37 0 00-1.76-.38C30 10.69 29 12.22 29 15.12c0 1.91.15 3.21 2 3.21a6.85 6.85 0 001.45-.23M9.08 13.74a4.51 4.51 0 011.68-.31c.53 0 1 .08 1 .53 0 .31-.08.38-.08.38H11c-1.3 0-2.75.53-2.75 2.29 0 1.37.92 1.68 1.45 1.68a2.29 2.29 0 001.6-.69l-.08.61h1.38l.61-4.2c0-1.76-1.53-1.83-2.14-1.83m1.15 3.28a2.5 2.5 0 01-1.83 1.45.6.6 0 01-.61-.61c0-.38.23-.92 1.37-.92a6.27 6.27 0 001.07.08m.78 2.61a6.45 6.45 0 001.76.15 2 2 0 002.29-2c0-1.91-1.83-1.53-1.83-2.29 0-.38.31-.53.84-.53.23 0 1.07.08 1.07.08l.23-1.37a5.78 5.78 0 00-1.48-.13c-1.15 0-1.53.46-1.53 2 0 1.76 1.15 1.6 1.15 2.29 0 .46-.53.53-.92.53m30.23-3.92a2.11 2.11 0 00-1.45-.76c-1.37 0-1.83 1.68-1.83 3.66 0 1.22-.15 2.52 1.14 2.52a2 2 0 001.45-.61l-.08.53h1.53l1.15-7.33m-2 4c0 .84-.69 1.91-1.53 1.91-.54 0-.84-.46-.84-1.22 0-1.22.53-2 1.22-2a1.17 1.17 0 011.15 1.3m-41.9 3.27l.92-5.5.15 5.5h1.07l1.99-5.5-.84 5.5h1.6l1.22-7.33H7.02l-2.13 4.51-.08-4.51h-.84l-2.6 7.33h1.45zm22.07 0h1.6c.46-2.52.53-4.58 1.6-4.2a6 6 0 01.53-1.76h-.3c-.69 0-1.22.92-1.22.92l.15-.84m6.65 1.45a4.51 4.51 0 011.68-.31c.53 0 1 .08 1 .53 0 .31-.08.38-.08.38h-.7c-1.3 0-2.75.53-2.75 2.29 0 1.37.92 1.68 1.45 1.68a2.29 2.29 0 001.6-.69l-.08.61h1.37L38 14c0-1.76-1.53-1.83-2.14-1.83M37 15.5a2.5 2.5 0 01-1.83 1.45.6.6 0 01-.61-.61c0-.38.23-.92 1.37-.92a6.75 6.75 0 001.07.08m.71 2.67h1.6c.46-2.52.53-4.58 1.6-4.2a6 6 0 01.53-1.76h-.31c-.69 0-1.22.92-1.22.92l.15-.84" fill="#dce5e5"/></g></svg>