<svg xmlns="http://www.w3.org/2000/svg" xmlns:xlink="http://www.w3.org/1999/xlink" width="48.1" height="28.86" viewBox="0 0 48.1 28.86">
  <defs>
    <clipPath id="a" transform="translate(0)">
      <rect width="48.1" height="28.86" style="fill: none"/>
    </clipPath>
  </defs>
  <title>master-card</title>
  <g style="clip-path: url(#a)">
    <path d="M48.1,14.43A14.43,14.43,0,1,1,33.59,0,14.42,14.42,0,0,1,48.1,14.43" transform="translate(0)" style="fill: #ffb600"/>
    <path d="M33.67,0A14.43,14.43,0,1,1,19.24,14.43" transform="translate(0)" style="fill: #f7981d"/>
    <path d="M33.67,0a14.43,14.43,0,1,1,0,28.86" transform="translate(0)" style="fill: #ff8500"/>
    <path d="M14.28,0a14.43,14.43,0,0,0,.15,28.86,14.59,14.59,0,0,0,9.7-3.74,13.77,13.77,0,0,0,1.45-1.53h-3a17.69,17.69,0,0,1-1.07-1.45h5.11a9.75,9.75,0,0,0,.84-1.53H20.69a9.13,9.13,0,0,1-.61-1.53H28a15.17,15.17,0,0,0,.76-4.58,19.67,19.67,0,0,0-.31-3.05H19.62A11.06,11.06,0,0,1,20,9.93h7.94a9,9,0,0,0-.61-1.53H20.61a15.1,15.1,0,0,1,.84-1.53h5.12a7.27,7.27,0,0,0-1.15-1.53H22.6A13.06,13.06,0,0,1,24,3.89,14.08,14.08,0,0,0,14.35.15c0-.15,0-.15-.08-.15" transform="translate(0)" style="fill: #ff5050"/>
    <path d="M0,14.43A14.42,14.42,0,0,0,14.43,28.86a14.59,14.59,0,0,0,9.7-3.74,13.87,13.87,0,0,0,1.45-1.53h-3a17.46,17.46,0,0,1-1.07-1.45h5.11a9.83,9.83,0,0,0,.84-1.53h-6.8a9.06,9.06,0,0,1-.61-1.53H28a15.16,15.16,0,0,0,.76-4.58,19.8,19.8,0,0,0-.31-3.05H19.62A11.2,11.2,0,0,1,20,9.92h7.94a9,9,0,0,0-.61-1.53H20.61a15.12,15.12,0,0,1,.84-1.53h5.11a7.29,7.29,0,0,0-1.15-1.53H22.6A13,13,0,0,1,24,3.89,14.08,14.08,0,0,0,14.35.15h-.08" transform="translate(0)" style="fill: #e52836"/>
    <path d="M14.43,28.86a14.59,14.59,0,0,0,9.69-3.74,13.61,13.61,0,0,0,1.45-1.53h-3a17.67,17.67,0,0,1-1.07-1.45h5.11a9.83,9.83,0,0,0,.84-1.53h-6.8a9.13,9.13,0,0,1-.61-1.53H28a15.17,15.17,0,0,0,.76-4.58,19.78,19.78,0,0,0-.31-3.05H19.62A11.25,11.25,0,0,1,20,9.92h7.94a9,9,0,0,0-.61-1.53H20.61a15.09,15.09,0,0,1,.84-1.53h5.12a7.27,7.27,0,0,0-1.15-1.53H22.6A13,13,0,0,1,24,3.89,14.08,14.08,0,0,0,14.35.15h-.08" transform="translate(0)" style="fill: #cb2026"/>
    <path d="M19.54,18.09l.23-1.3a3.28,3.28,0,0,1-.38.08c-.53,0-.61-.31-.53-.46l.46-2.67h.84l.23-1.45h-.76l.15-.92H18.25s-.92,5-.92,5.65a1.15,1.15,0,0,0,1.22,1.3,2.33,2.33,0,0,0,1-.23" transform="translate(0)" style="fill: #fff"/>
    <path d="M20.08,15.65a2.43,2.43,0,0,0,2.67,2.67,4,4,0,0,0,1.6-.23l.31-1.45a4.59,4.59,0,0,1-1.6.38c-1.68,0-1.37-1.22-1.37-1.22h3.13A9.85,9.85,0,0,0,25,14.43a2.07,2.07,0,0,0-2.22-2.21c-1.6-.15-2.75,1.53-2.75,3.43m2.67-2.21c.84,0,.69,1,.69,1.07H21.76c0-.08.15-1.07,1-1.07" transform="translate(0)" style="fill: #fff"/>
    <path d="M32.45,18.09l.31-1.68a3.76,3.76,0,0,1-1.3.38A1.55,1.55,0,0,1,29.93,15c0-1.83.92-2.82,2-2.82a2.55,2.55,0,0,1,1.37.46l.23-1.6a5.37,5.37,0,0,0-1.76-.38c-1.76,0-3.51,1.53-3.51,4.43,0,1.91.92,3.21,2.75,3.21a6.85,6.85,0,0,0,1.45-.23" transform="translate(0)" style="fill: #fff"/>
    <path d="M11.15,12.06a5.39,5.39,0,0,0-1.83.31l-.23,1.3a4.52,4.52,0,0,1,1.68-.31c.53,0,1,.08,1,.53,0,.31-.08.38-.08.38H11c-1.3,0-2.75.53-2.75,2.29,0,1.37.92,1.68,1.45,1.68a2.29,2.29,0,0,0,1.6-.69l-.08.61H12.6l.61-4.2a1.81,1.81,0,0,0-2.06-1.91m.31,3.43c0,.23-.15,1.45-1.07,1.45a.6.6,0,0,1-.61-.61c0-.38.23-.92,1.37-.92a1.21,1.21,0,0,0,.31.08" transform="translate(0)" style="fill: #fff"/>
    <path d="M14.66,18.25a2,2,0,0,0,2.29-2c0-1.91-1.83-1.53-1.83-2.29,0-.38.31-.53.84-.53.23,0,1.07.08,1.07.08l.23-1.37A5.79,5.79,0,0,0,15.8,12c-1.14,0-2.29.46-2.29,2,0,1.76,1.91,1.6,1.91,2.29,0,.46-.54.53-.92.53a5,5,0,0,1-1.37-.23l-.23,1.37c.08.15.46.31,1.76.31" transform="translate(0)" style="fill: #fff"/>
    <path d="M45.12,10.84l-.3,2.06a2.12,2.12,0,0,0-1.45-.76c-1.37,0-2.6,1.68-2.6,3.66,0,1.22.61,2.52,1.91,2.52a2,2,0,0,0,1.45-.61l-.08.53h1.53l1.14-7.33Zm-.69,4c0,.84-.38,1.91-1.22,1.91-.53,0-.84-.46-.84-1.22,0-1.22.53-2,1.22-2,.53,0,.84.38.84,1.3" transform="translate(0)" style="fill: #fff"/>
    <polygon points="2.82 18.17 3.74 12.67 3.89 18.17 4.96 18.17 6.95 12.67 6.11 18.17 7.71 18.17 8.93 10.84 6.41 10.84 4.89 15.35 4.81 10.84 2.6 10.84 1.37 18.17 2.82 18.17" style="fill: #fff"/>
    <path d="M26.49,18.17c.46-2.52.53-4.58,1.6-4.2a6,6,0,0,1,.53-1.76h-.31c-.69,0-1.22.92-1.22.92l.15-.84H25.8l-1,6h1.68Z" transform="translate(0)" style="fill: #fff"/>
    <path d="M36,12.06a5.4,5.4,0,0,0-1.83.31l-.23,1.3a4.52,4.52,0,0,1,1.68-.31c.54,0,1,.08,1,.53,0,.31-.08.38-.08.38H35.8c-1.3,0-2.75.53-2.75,2.29,0,1.37.92,1.68,1.45,1.68a2.3,2.3,0,0,0,1.6-.69l-.08.61h1.37L38,14A1.78,1.78,0,0,0,36,12.06m.38,3.43c0,.23-.15,1.45-1.07,1.45a.6.6,0,0,1-.61-.61c0-.38.23-.92,1.37-.92.23.08.23.08.31.08" transform="translate(0)" style="fill: #fff"/>
    <path d="M39.32,18.17c.46-2.52.53-4.58,1.6-4.2a6,6,0,0,1,.53-1.76h-.31c-.69,0-1.22.92-1.22.92l.15-.84H38.63l-1,6h1.68Z" transform="translate(0)" style="fill: #fff"/>
    <path d="M17.18,17a1.15,1.15,0,0,0,1.22,1.3,2.86,2.86,0,0,0,1.15-.23l.23-1.3a3.35,3.35,0,0,1-.38.08c-.53,0-.61-.31-.53-.46l.46-2.67h.84l.23-1.45h-.76l.15-.92" transform="translate(0)" style="fill: #dce5e5"/>
    <path d="M20.84,15.65c0,2.14.69,2.67,1.91,2.67a4,4,0,0,0,1.6-.23l.31-1.45a4.59,4.59,0,0,1-1.6.38c-1.68,0-1.37-1.22-1.37-1.22h3.13A9.85,9.85,0,0,0,25,14.43a2.07,2.07,0,0,0-2.22-2.21c-1.6-.15-2,1.53-2,3.43m1.91-2.21c.84,0,1,1,1,1.07h-2c0-.08.15-1.07,1-1.07" transform="translate(0)" style="fill: #dce5e5"/>
    <path d="M32.45,18.09l.31-1.68a3.76,3.76,0,0,1-1.3.38A1.55,1.55,0,0,1,29.93,15c0-1.83.92-2.82,2-2.82a2.55,2.55,0,0,1,1.37.46l.23-1.6a5.37,5.37,0,0,0-1.76-.38C30,10.69,29,12.22,29,15.12c0,1.91.15,3.21,2,3.21a6.85,6.85,0,0,0,1.45-.23" transform="translate(0)" style="fill: #dce5e5"/>
    <path d="M9.08,13.74a4.51,4.51,0,0,1,1.68-.31c.53,0,1,.08,1,.53,0,.31-.08.38-.08.38H11c-1.3,0-2.75.53-2.75,2.29,0,1.37.92,1.68,1.45,1.68a2.29,2.29,0,0,0,1.6-.69l-.08.61H12.6l.61-4.2c0-1.76-1.53-1.83-2.14-1.83m1.15,3.28a2.5,2.5,0,0,1-1.83,1.45.6.6,0,0,1-.61-.61c0-.38.23-.92,1.37-.92a6.27,6.27,0,0,0,1.07.08" transform="translate(0)" style="fill: #dce5e5"/>
    <path d="M13,18.09a6.45,6.45,0,0,0,1.76.15,2,2,0,0,0,2.29-2c0-1.91-1.83-1.53-1.83-2.29,0-.38.31-.53.84-.53.23,0,1.07.08,1.07.08l.23-1.37A5.78,5.78,0,0,0,15.88,12c-1.15,0-1.53.46-1.53,2,0,1.76,1.15,1.6,1.15,2.29,0,.46-.53.53-.92.53" transform="translate(0)" style="fill: #dce5e5"/>
    <path d="M44.81,12.9a2.11,2.11,0,0,0-1.45-.76c-1.37,0-1.83,1.68-1.83,3.66,0,1.22-.15,2.52,1.14,2.52a2,2,0,0,0,1.45-.61l-.08.53h1.53l1.15-7.33m-2,4c0,.84-.69,1.91-1.53,1.91-.54,0-.84-.46-.84-1.22,0-1.22.53-2,1.22-2a1.17,1.17,0,0,1,1.15,1.3" transform="translate(0)" style="fill: #dce5e5"/>
    <polygon points="2.82 18.17 3.74 12.67 3.89 18.17 4.96 18.17 6.95 12.67 6.11 18.17 7.71 18.17 8.93 10.84 7.02 10.84 4.89 15.35 4.81 10.84 3.97 10.84 1.37 18.17 2.82 18.17" style="fill: #dce5e5"/>
    <path d="M24.89,18.17h1.6c.46-2.52.53-4.58,1.6-4.2a6,6,0,0,1,.53-1.76h-.3c-.69,0-1.22.92-1.22.92l.15-.84" transform="translate(0)" style="fill: #dce5e5"/>
    <path d="M33.9,13.74a4.51,4.51,0,0,1,1.68-.31c.53,0,1,.08,1,.53,0,.31-.08.38-.08.38H35.8c-1.3,0-2.75.53-2.75,2.29,0,1.37.92,1.68,1.45,1.68a2.29,2.29,0,0,0,1.6-.69l-.08.61h1.37L38,14c0-1.76-1.53-1.83-2.14-1.83M37,15.5a2.5,2.5,0,0,1-1.83,1.45.6.6,0,0,1-.61-.61c0-.38.23-.92,1.37-.92A6.75,6.75,0,0,0,37,15.5" transform="translate(0)" style="fill: #dce5e5"/>
    <path d="M37.71,18.17h1.6c.46-2.52.53-4.58,1.6-4.2a6,6,0,0,1,.53-1.76h-.31c-.69,0-1.22.92-1.22.92l.15-.84" transform="translate(0)" style="fill: #dce5e5"/>
  </g>
</svg>
