<svg xmlns="http://www.w3.org/2000/svg" xmlns:xlink="http://www.w3.org/1999/xlink" width="56.35" height="14.4" viewBox="0 0 56.35 14.4">
  <defs>
    <clipPath id="a">
      <rect width="56.35" height="14.4" style="fill: none"/>
    </clipPath>
  </defs>
  <title>pay-pal</title>
  <g style="clip-path: url(#a)">
    <path d="M43.56,3.76h-3a.6.6,0,0,0-.45.36L38.82,12a.24.24,0,0,0,.27.27H40.7A.24.24,0,0,0,41,12l.36-2.24a.41.41,0,0,1,.45-.36h1a3.12,3.12,0,0,0,3.49-3,2.34,2.34,0,0,0-.36-2,3.6,3.6,0,0,0-2.33-.72m.36,3c-.18,1.07-1,1.07-1.79,1.07h-.54l.36-2.06c0-.09.09-.18.27-.18h.18c.54,0,1.07,0,1.34.36.18.09.18.36.18.8" style="fill: #139ad6"/>
    <path d="M21.64,3.76h-3a.59.59,0,0,0-.45.36L16.9,12a.24.24,0,0,0,.27.27H18.6a.59.59,0,0,0,.45-.36l.36-2.15a.41.41,0,0,1,.45-.36h1a3.12,3.12,0,0,0,3.49-3,2.34,2.34,0,0,0-.36-2,3.44,3.44,0,0,0-2.33-.72m.36,3c-.18,1.07-1,1.07-1.79,1.07h-.45l.36-2.06c0-.09.09-.18.27-.18h.18c.54,0,1.07,0,1.34.36a1,1,0,0,1,.09.8" style="fill: #263b80"/>
    <path d="M30.86,6.62H29.43c-.09,0-.27.09-.27.18l-.09.45L29,7.07a2.11,2.11,0,0,0-1.7-.63,3.44,3.44,0,0,0-3.31,3,2.67,2.67,0,0,0,.54,2.24,2.25,2.25,0,0,0,1.88.71,2.86,2.86,0,0,0,2.06-.8l-.09.45a.24.24,0,0,0,.27.27H30a.59.59,0,0,0,.45-.36l.81-5c-.09-.09-.27-.27-.36-.27M28.8,9.48a1.73,1.73,0,0,1-1.7,1.43,1.43,1.43,0,0,1-1-.36,1.91,1.91,0,0,1-.27-1.07,1.6,1.6,0,0,1,2.6-1.07,1.56,1.56,0,0,1,.36,1.07" style="fill: #263b80"/>
    <path d="M52.68,6.62H51.25c-.09,0-.27.09-.27.18l-.09.45-.09-.18a2.11,2.11,0,0,0-1.7-.63,3.44,3.44,0,0,0-3.31,3,2.67,2.67,0,0,0,.54,2.24,2.25,2.25,0,0,0,1.88.71,2.86,2.86,0,0,0,2.06-.8l-.09.45a.24.24,0,0,0,.27.27h1.34a.59.59,0,0,0,.45-.36l.81-5c-.09-.09-.18-.27-.36-.27M50.62,9.48a1.73,1.73,0,0,1-1.7,1.43,1.43,1.43,0,0,1-1-.36,1.92,1.92,0,0,1-.27-1.07,1.6,1.6,0,0,1,2.59-1.07,1,1,0,0,1,.36,1.07" style="fill: #139ad6"/>
    <path d="M38.64,6.62H37.12a.47.47,0,0,0-.36.18l-2,3L33.9,7a.41.41,0,0,0-.45-.27H32c-.18,0-.27.18-.27.36l1.61,4.74L31.84,14c-.09.18,0,.45.18.45h1.43a.47.47,0,0,0,.36-.18l4.92-7.07c.27-.27.09-.54-.09-.54" style="fill: #263b80"/>
    <path d="M54.38,4l-1.25,8.05a.24.24,0,0,0,.27.27h1.25A.6.6,0,0,0,55.1,12l1.25-7.87a.24.24,0,0,0-.27-.27H54.65c-.09-.09-.18,0-.27.18" style="fill: #139ad6"/>
    <path d="M10.29,1.07A4.42,4.42,0,0,0,6.89,0H2.42a.77.77,0,0,0-.63.54L0,12.25a.41.41,0,0,0,.36.45H3.13l.72-4.38V8.5A.77.77,0,0,1,4.47,8H5.81c2.59,0,4.56-1.07,5.19-4V3.67h0a3.12,3.12,0,0,0-.71-2.59" style="fill: #263b80"/>
    <path d="M10.91,3.67h0v.27c-.63,3-2.59,4-5.19,4H4.38a.77.77,0,0,0-.63.54L2.86,14a.33.33,0,0,0,.36.36H5.55a.5.5,0,0,0,.54-.45v-.09L6.53,11v-.18a.5.5,0,0,1,.54-.45h.36c2.24,0,4-.89,4.47-3.58a3.29,3.29,0,0,0-.45-2.68.91.91,0,0,0-.54-.45" style="fill: #139ad6"/>
    <path d="M10.29,3.4c-.09,0-.18-.09-.27-.09a.33.33,0,0,1-.27-.09,4.74,4.74,0,0,0-1.16-.09H5.1a.33.33,0,0,0-.27.09.49.49,0,0,0-.27.45L3.85,8.32V8.5A.77.77,0,0,1,4.47,8H5.81c2.59,0,4.56-1.07,5.19-4a.33.33,0,0,1,.09-.27c-.18-.09-.27-.18-.45-.18s-.27-.09-.36-.09" style="fill: #232c65"/>
  </g>
</svg>
