<svg xmlns="http://www.w3.org/2000/svg" width="16" height="13" viewBox="0 0 16 13">
  <title>twitter</title>
  <path d="M16,1.54a6.47,6.47,0,0,1-1.88.52A3.3,3.3,0,0,0,15.56.24a6.6,6.6,0,0,1-2.08.8A3.28,3.28,0,0,0,7.8,3.37,3.24,3.24,0,0,0,7.88,4,9.32,9.32,0,0,1,1.12.6,3.29,3.29,0,0,0,2.13,5,3.28,3.28,0,0,1,.65,4.57v0A3.28,3.28,0,0,0,3.28,7.83a3.29,3.29,0,0,1-.87.12,3.37,3.37,0,0,1-.62-.06,3.29,3.29,0,0,0,3.06,2.28A6.58,6.58,0,0,1,.78,11.57a6.48,6.48,0,0,1-.78,0A9.28,9.28,0,0,0,5,13a9.28,9.28,0,0,0,9.34-9.34c0-.14,0-.28,0-.42A6.61,6.61,0,0,0,16,1.54Z"/>
</svg>
