<svg xmlns="http://www.w3.org/2000/svg" xmlns:xlink="http://www.w3.org/1999/xlink" width="48" height="33.1" viewBox="0 0 48 33.1">
  <defs>
    <clipPath id="a" transform="translate(0 0)">
      <rect width="48" height="33.1" style="fill: none"/>
    </clipPath>
    <clipPath id="c" transform="translate(0 0)">
      <rect width="4.85" height="33.1" style="fill: none"/>
    </clipPath>
  </defs>
  <title>visa</title>
  <g style="clip-path: url(#a)">
    <g style="clip-path: url(#a)">
      <rect width="48" height="33.1" rx="2.84" ry="2.84" style="fill: #fff"/>
      <path d="M10.65,16.74,9.53,11.34a1.34,1.34,0,0,0-1.45-1H2.91l0,.25c4,1,6.69,3.33,7.79,6.16" transform="translate(0 0)" style="fill: #f79f1a"/>
      <polygon points="22.63 10.45 19.29 10.45 17.2 22.68 20.54 22.68 22.63 10.45" style="fill: #059bbf"/>
      <path d="M12.69,22.67l5.25-12.22H14.41L11.14,18.8l-.35-1.26a13.06,13.06,0,0,0-4.62-5.07l3,10.21Z" transform="translate(0 0)" style="fill: #059bbf"/>
      <path d="M32.15,18.68c0-1.39-.88-2.45-2.8-3.32-1.17-.57-1.88-.94-1.87-1.52s.6-1.05,1.91-1.05a6.16,6.16,0,0,1,2.5.47l.3.14.45-2.65a8.65,8.65,0,0,0-3-.51c-3.3,0-5.62,1.66-5.64,4C24,16,25.67,17,26.93,17.6s1.73,1,1.73,1.52c0,.82-1,1.19-2,1.19a7,7,0,0,1-3.14-.64l-.43-.2-.47,2.74a10.52,10.52,0,0,0,3.71.65c3.5,0,5.78-1.64,5.81-4.18" transform="translate(0 0)" style="fill: #059bbf"/>
      <path d="M36.12,20.85h4.27c.1.43.41,1.84.41,1.84h3.09l-2.7-12.23H38.61a1.66,1.66,0,0,0-1.75,1l-5,11.22h3.51s.57-1.51.7-1.84m2.29-5.93s.28-.71.44-1.17l.23,1.06.77,3.53H37.07l1.33-3.42" transform="translate(0 0)" style="fill: #059bbf"/>
      <path d="M45.16,0H2.84A2.84,2.84,0,0,0,0,2.84V5.78H48V2.84A2.84,2.84,0,0,0,45.16,0" transform="translate(0 0)" style="fill: #059bbf"/>
      <path d="M45.16,33.1H2.84A2.84,2.84,0,0,1,0,30.27V27.32H48v2.94a2.84,2.84,0,0,1-2.84,2.84" transform="translate(0 0)" style="fill: #f79f1a"/>
      <g style="opacity: 0.14999400079250336;isolation: isolate">
        <g style="clip-path: url(#c)">
          <path d="M2,30.27V2.84A2.84,2.84,0,0,1,4.86,0h-2A2.84,2.84,0,0,0,0,2.84V30.27A2.84,2.84,0,0,0,2.84,33.1h2A2.84,2.84,0,0,1,2,30.27" transform="translate(0 0)" style="fill: #202121"/>
        </g>
      </g>
    </g>
  </g>
</svg>
