<svg xmlns="http://www.w3.org/2000/svg" width="280.34" height="256.43">
  <defs>
    <clipPath id="a">
      <path fill="none" d="M0 0h280.33v256.43H0z"/>
    </clipPath>
    <clipPath id="b">
      <path fill="none" d="M112.77 114.95h19.69v43.88h-19.69z"/>
    </clipPath>
    <clipPath id="c">
      <path fill="none" d="M153.81 115.45h17.61v30.47h-17.61z"/>
    </clipPath>
  </defs>
  <g clip-path="url(#a)">
    <path fill="#a4c639" d="m132.36 144.57-8.14-.05-.09 14.31-19.72-.13.09-14.31-29.5-.19.09-14.67 31-44.76 18.46.12-.29 44.71 8.14.05Zm-27.77-15.1.06-8.6q0-2.43.22-6.55a42 42 0 0 1 .31-4.32h-.56a53.39 53.39 0 0 1-3.94 7.26l-8.27 12.13Z"/>
    <g clip-path="url(#b)" opacity=".1">
      <path d="m124.22 144.52 8.14.05.1-14.92-8.14-.05.09-14.65a21.72 21.72 0 0 0-2.57 2.58q-7.27 8.67-8.79 28.33a79.15 79.15 0 0 0 0 12.89l11.11.07Z"/>
    </g>
    <path fill="#f0c419" d="M171.14 150q-1.51 19.56-8.77 28.16t-20.77 7.55q-13.21-1-19.18-11t-4.52-28.78q1.52-19.67 8.79-28.33t20.78-7.62q13.16 1 19.15 11.1t4.53 29m-33.43-2.59q-1 12.51.23 17.32t4.88 5.1q3.73.29 5.65-4.43t2.86-16.92q.95-12.25-.23-17.29t-4.86-5.32q-3.68-.28-5.61 4.33t-2.91 17.22"/>
    <g clip-path="url(#c)" opacity=".1">
      <path d="M166.61 121a22.31 22.31 0 0 0-4.61-5.55l-8.19 15.92 1.82 14.55 15.78-2q.18-14.53-4.8-22.94"/>
    </g>
    <path fill="#d36bc5" d="m216 135.44-8.08 1 1.78 14.2-19.57 2.46-1.78-14.2-29.25 3.67-1.79-14.57 24.91-48.44 18.32-2.3 5.56 44.36 8.08-1Zm-29.51-11.33-1.07-8.53q-.3-2.41-.64-6.52a42.7 42.7 0 0 1-.26-4.33l-.55.07a53.55 53.55 0 0 1-3 7.71l-6.61 13.11Z"/>
    <path fill="#dadada" d="M210.84 200.24H81L65.85 97.53H229.8Zm-123.51-7.33h117.4l16.25-88H74.35Z"/>
    <path fill="#dadada" d="M75.25 127.78h145v4h-145zM81.26 166.23h132.98v4H81.26z"/>
    <path fill="#dadada" d="M145.75 101.2h4v95.38h-4zM98.893 101.403l3.978-.413 9.907 95.376-3.978.414zM180.913 196.349l11.729-95.382 3.97.488-11.729 95.382zM67.55 107.33 50.02 89.92H26.85V77.45h28.31l21.18 21.03-8.79 8.85z"/>
    <path fill="#dadada" d="M202.41 234.79H83.67a23.6 23.6 0 0 1 0-47.2h.49v12.47h-.49a11.13 11.13 0 0 0 0 22.25h118.74Z"/>
    <path fill="#e2413e" d="M41.65 89.92H19.16a6.24 6.24 0 0 1 0-12.47h22.5a6.24 6.24 0 0 1 0 12.47"/>
    <path fill="#28384f" d="M222.1 234.3a22.13 22.13 0 1 1-22.1-22.14 22.13 22.13 0 0 1 22.1 22.14"/>
    <path fill="#fff" d="M211.1 234.3a11.13 11.13 0 1 1-11.1-11.13 11.13 11.13 0 0 1 11.1 11.13"/>
    <path fill="#28384f" d="M106 234.3a22.13 22.13 0 1 1-22.13-22.13A22.13 22.13 0 0 1 106 234.3"/>
    <path fill="#fff" d="M95 234.3a11.13 11.13 0 1 1-11.13-11.13A11.13 11.13 0 0 1 95 234.3"/>
    <path fill="#f0c419" d="M86.93 39.42a2.83 2.83 0 1 1-2.83-2.83 2.83 2.83 0 0 1 2.83 2.83"/>
    <path fill="#33aeff" d="M159.47 87.11a3.5 3.5 0 1 1-3.5-3.5 3.5 3.5 0 0 1 3.5 3.5"/>
    <path fill="#a4c639" d="M250.67 70.5a2.75 2.75 0 1 1-2.75-2.75 2.75 2.75 0 0 1 2.75 2.75"/>
    <path fill="#f0c419" d="M94.5 155.75a2.75 2.75 0 1 1-2.75-2.75 2.75 2.75 0 0 1 2.75 2.75"/>
    <path fill="#d36bc5" d="M157.61 3a2.75 2.75 0 1 1-2.75-2.75A2.75 2.75 0 0 1 157.61 3"/>
    <path fill="#e2413e" d="M273.75 119.25a2.75 2.75 0 1 1-2.75-2.75 2.75 2.75 0 0 1 2.75 2.75"/>
    <path fill="#a4c639" d="M165.61 216.41a2.75 2.75 0 1 1-2.75-2.75 2.75 2.75 0 0 1 2.75 2.75"/>
    <path fill="#e2413e" d="M12.08 54a2.75 2.75 0 1 1-2.75-2.75A2.75 2.75 0 0 1 12.08 54"/>
    <path fill="#a4c639" d="M45.3 108.43a3.82 3.82 0 1 1-3.82-3.81 3.82 3.82 0 0 1 3.82 3.81"/>
    <path fill="#e2413e" d="M173.81 19.58a1.83 1.83 0 1 1-1.81-1.83 1.83 1.83 0 0 1 1.83 1.83"/>
    <path fill="#d36bc5" d="M83.09 90.61a1.83 1.83 0 1 1-1.83-1.83 1.83 1.83 0 0 1 1.83 1.83"/>
    <path fill="#33aeff" d="M240.8 132a2.23 2.23 0 1 1-2.23-2.23 2.23 2.23 0 0 1 2.23 2.23"/>
    <path fill="#d36bc5" d="M127.54 209.41a2.23 2.23 0 1 1-2.23-2.23 2.23 2.23 0 0 1 2.23 2.23"/>
    <path fill="#28384f" d="M94.35 9H93V7.66a1.58 1.58 0 0 0-3.15 0V9H88.5a1.58 1.58 0 1 0 0 3.15h1.35v1.35a1.58 1.58 0 1 0 3.15 0v-1.34h1.35a1.58 1.58 0 1 0 0-3.15M234.76 166.66h-1.35v-1.35a1.58 1.58 0 1 0-3.15 0v1.35h-1.35a1.58 1.58 0 1 0 0 3.15h1.35v1.35a1.58 1.58 0 1 0 3.15 0v-1.35h1.35a1.58 1.58 0 0 0 0-3.15M239.26 37.84h-1.35v-1.35a1.58 1.58 0 0 0-3.15 0v1.35h-1.35a1.58 1.58 0 1 0 0 3.15h1.35v1.35a1.58 1.58 0 1 0 3.15 0V41h1.35a1.58 1.58 0 0 0 0-3.15M55.08 142.81h-1.34v-1.35a1.58 1.58 0 1 0-3.15 0v1.35h-1.35a1.58 1.58 0 1 0 0 3.15h1.35v1.35a1.58 1.58 0 0 0 3.15 0V146h1.35a1.58 1.58 0 1 0 0-3.15"/>
    <path fill="#d36bc5" d="M52.23 54.5a3 3 0 0 1-1.65-.5l-9.13-6a3 3 0 0 1 3.29-5l9.14 6a3 3 0 0 1-1.65 5.51"/>
    <path fill="#a4c639" d="M210.18 28.33a3 3 0 0 1-2.45-4.73l8.1-11.5a3.003 3.003 0 1 1 4.91 3.46l-8.1 11.5a3 3 0 0 1-2.46 1.27"/>
    <path fill="#d36bc5" d="M264.67 90.11a3 3 0 0 1-.78-5.9l12.67-3.42a3 3 0 0 1 1.56 5.79L265.45 90a3 3 0 0 1-.78.1"/>
    <path fill="#a4c639" d="M246 200.57a3 3 0 0 1-1.76-.57l-10.33-7.5a3.003 3.003 0 1 1 3.53-4.86l10.33 7.5a3 3 0 0 1-1.77 5.43"/>
    <path fill="#f0c419" d="M34.67 185.34a3 3 0 0 1-1.75-5.44l10.63-7.59a3 3 0 0 1 3.45 4.88l-10.63 7.59a3 3 0 0 1-1.74.56M130.25 22.58a3 3 0 0 1-2.93-2.37l-3.58-16.58a3 3 0 1 1 5.86-1.27L133.18 19a3 3 0 0 1-2.94 3.63"/>
    <path fill="#a4c639" d="M3 129.58a3 3 0 0 1-.9-5.86l12.67-4a3 3 0 0 1 1.81 5.72l-12.67 4a3 3 0 0 1-.9.14"/>
    <path fill="#f0c419" d="M272 149.58a3 3 0 0 1-.57-.05l-11.33-2.2a3 3 0 0 1 1.14-5.89l11.33 2.2a3 3 0 0 1-.57 5.94"/>
    <path fill="#28384f" d="M94.12 75.54a9.59 9.59 0 0 1-7.29-.75 8.93 8.93 0 0 1-3.93-6q-1-4.41.66-7.28a8.55 8.55 0 0 1 5.82-3.83 8.66 8.66 0 0 1 6.55.64 8 8 0 0 1 3.51 5.41l.62 2.67-10.74 2.46a3.05 3.05 0 0 0 1.6 2 4.29 4.29 0 0 0 2.93.2 13.58 13.58 0 0 0 2.84-1 14.77 14.77 0 0 0 2.64-1.69l1 4.32a10.88 10.88 0 0 1-2.69 1.67 20.85 20.85 0 0 1-3.53 1.11m-3.57-13.78a2.56 2.56 0 0 0-1.62 1.08 3.23 3.23 0 0 0-.35 2.29l5.16-1.19A3.08 3.08 0 0 0 92.55 62a2.42 2.42 0 0 0-2-.33M125.16 44.07a9 9 0 0 1 1.51.25l.34.09-1 5.75a9.06 9.06 0 0 0-2.07-.36 4 4 0 0 0-3 .68 3.61 3.61 0 0 0-1.16 2.52l-.78 8.8-6.14-.51 1.49-17.8 4.57.38.72 2.92h.3a6.17 6.17 0 0 1 2.34-2.11 5.16 5.16 0 0 1 2.85-.64M151.83 53a9 9 0 0 1 1.53-.16h.35l.53 5.82a9.06 9.06 0 0 0-2.1.2 4 4 0 0 0-2.71 1.45 3.61 3.61 0 0 0-.41 2.78l1.62 8.63-6.06 1.14-3.3-17.56 4.51-.85 1.47 2.63.29-.06a6.17 6.17 0 0 1 1.69-2.65 5.15 5.15 0 0 1 2.59-1.37M214.74 54.67a9 9 0 0 1 1.53.08l.35.05-.37 5.83a9.17 9.17 0 0 0-2.1-.12 4 4 0 0 0-2.9 1 3.62 3.62 0 0 0-.83 2.68l.28 8.81-6.16.2-.54-17.87 4.59-.15 1.02 2.82h.3a6.17 6.17 0 0 1 2.09-2.37 5.15 5.15 0 0 1 2.75-1M188.35 55q-.44 6.1-2.69 8.79a7.22 7.22 0 0 1-6.47 2.39 7.13 7.13 0 0 1-6-3.41q-1.88-3.12-1.46-9 .44-6.13 2.69-8.85a7.19 7.19 0 0 1 6.47-2.41 7.12 7.12 0 0 1 6 3.43q1.89 3.13 1.46 9m-10.43-.75a19.68 19.68 0 0 0 .1 5.4q.38 1.5 1.53 1.58t1.75-1.39a20 20 0 0 0 .86-5.28 20.11 20.11 0 0 0-.1-5.39q-.38-1.57-1.53-1.65t-1.74 1.36a20 20 0 0 0-.88 5.38"/>
  </g>
</svg>
