<svg xmlns="http://www.w3.org/2000/svg" width="209.2" height="34.85"><defs><clipPath id="a"><path fill="none" d="M0 0h209.2v34.85H0z"/></clipPath></defs><g clip-path="url(#a)"><path d="M0 34.4V.1h.55l16.23 19L32.85.1h.55v34.3h-5V16.78l.2-4.89a32.72 32.72 0 01-3 4.09L17 26.26h-.6L7.84 16l-3-4.09q.2 3 .2 4.89v17.6zm90.82-10.48L98 34.4h-6.08l-6.09-8.94q-1.9.2-2.85.2h-3.19v8.74h-5.3V.45H83q7 0 10.81 3.39a11.79 11.79 0 013.82 9.29q0 7.79-6.79 10.78m-11-2.8h3q9.44 0 9.44-8t-9.44-8h-3z" fill="#1a1a1a"/><path d="M120.58 34.85a17 17 0 01-12.38-4.94 16.75 16.75 0 01-5-12.48 16.69 16.69 0 015-12.43A17 17 0 01120.58.05q9.09 0 13.58 6.74l-4 2.9q-3.16-4.9-9.58-4.9a11.36 11.36 0 00-8.64 3.59 12.64 12.64 0 00-3.4 9 12.73 12.73 0 003.4 9.06 12.11 12.11 0 0018.67-1.72l4 2.85q-4.74 7.24-14.08 7.24m20.12-.41V.45h5.29v15.27h16.33V.45h5.29V34.4h-5.29V20.42h-16.33V34.4h-5.29zm51.07.45a17.16 17.16 0 01-12.46-4.94 16.7 16.7 0 01-5.07-12.48 16.7 16.7 0 015.07-12.48 18.1 18.1 0 0124.86 0 16.7 16.7 0 015.07 12.48 16.7 16.7 0 01-5.07 12.48 17.1 17.1 0 01-12.41 4.94M183 26.49a12.27 12.27 0 0017.4 0 12.73 12.73 0 003.4-9.06 12.73 12.73 0 00-3.4-9.06 12.27 12.27 0 00-17.4 0 12.69 12.69 0 00-3.42 9.06 12.68 12.68 0 003.42 9.06" fill="#fe3e57"/><path fill="#1a1a1a" d="M54.07.1h-.6L38.94 34.4h5.1l9.63-24.86 9.79 24.86h5.49L54.07.1z"/></g></svg>