<svg id="abstract_shape" data-name="abstract shape" xmlns="http://www.w3.org/2000/svg" width="1673" height="575"><defs><filter id="filter" x="144" y="251" width="67" height="63" filterUnits="userSpaceOnUse"><feOffset result="offset" dy="10" in="SourceAlpha"/><feGaussianBlur result="blur" stdDeviation="3.162"/><feFlood result="flood" flood-color="#4dcaff" flood-opacity=".3"/><feComposite result="composite" operator="in" in2="blur"/><feBlend result="blend" in="SourceGraphic"/></filter><filter id="filter-2" x="744" y="588" width="65" height="66" filterUnits="userSpaceOnUse"><feOffset result="offset" dy="10" in="SourceAlpha"/><feGaussianBlur result="blur" stdDeviation="3.162"/><feFlood result="flood" flood-color="#4dcaff" flood-opacity=".3"/><feComposite result="composite" operator="in" in2="blur"/><feBlend result="blend" in="SourceGraphic"/></filter><filter id="filter-3" x="112" y="651" width="88" height="102" filterUnits="userSpaceOnUse"><feOffset result="offset" dy="5" in="SourceAlpha"/><feGaussianBlur result="blur" stdDeviation="2.236"/><feFlood result="flood" flood-color="#fe3e57" flood-opacity=".4"/><feComposite result="composite" operator="in" in2="blur"/><feBlend result="blend" in="SourceGraphic"/></filter><filter id="filter-4" x="1315" y="0" width="139" height="139" filterUnits="userSpaceOnUse"><feOffset result="offset" dy="15" in="SourceAlpha"/><feGaussianBlur result="blur" stdDeviation="4.472"/><feFlood result="flood" flood-color="#ffc55f" flood-opacity=".3"/><feComposite result="composite" operator="in" in2="blur"/><feBlend result="blend" in="SourceGraphic"/></filter><filter id="filter-5" x="1739" y="641" width="46" height="46" filterUnits="userSpaceOnUse"><feOffset result="offset" dy="5" in="SourceAlpha"/><feGaussianBlur result="blur" stdDeviation="3.162"/><feFlood result="flood" flood-color="#fe3e57" flood-opacity=".3"/><feComposite result="composite" operator="in" in2="blur"/><feBlend result="blend" in="SourceGraphic"/></filter><linearGradient id="linear-gradient" x1="1384" y1="104" x2="1384" y2="4" gradientUnits="userSpaceOnUse"><stop offset="0" stop-color="#ffc35b"/><stop offset="1" stop-color="#ffdc9e"/></linearGradient></defs><path d="M1613.06 435.155a2 2 0 10-2.06-2 2.028 2.028 0 002.06 2zm0 6.988a2 2 0 102.06 2 2.028 2.028 0 00-2.06-2zm0 10.98a2 2 0 102.06 2 2.028 2.028 0 00-2.06-2zm0 10.98a2 2 0 102.06 2 2.028 2.028 0 00-2.06-2.003zm0 10.981a2 2 0 102.06 2 2.028 2.028 0 00-2.06-2zm0 10.981a2 2 0 102.06 2 2.027 2.027 0 00-2.06-2zm0 10.98a2 2 0 102.06 2 2.028 2.028 0 00-2.06-2zm0 10.981a2 2 0 102.06 2 2.027 2.027 0 00-2.06-2zm0 10.98a2 2 0 102.06 2 2.028 2.028 0 00-2.06-2zm8.88-117.014a2 2 0 10-2.06-2 2.028 2.028 0 002.06 2zm0 6.987a2 2 0 102.06 2 2.034 2.034 0 00-2.06-2zm0 10.981a2 2 0 102.06 2 2.034 2.034 0 00-2.06-2zm0 10.98a2 2 0 102.06 2 2.034 2.034 0 00-2.06-2zm0 10.981a2 2 0 102.06 2 2.034 2.034 0 00-2.06-2zm0 10.98a2 2 0 102.06 2 2.034 2.034 0 00-2.06-2.001zm0 10.981a2 2 0 102.06 2 2.034 2.034 0 00-2.06-2zm0 10.98a2 2 0 102.06 2 2.034 2.034 0 00-2.06-2zm0 10.981a2 2 0 102.06 2 2.034 2.034 0 00-2.06-2z" transform="translate(-112 -178)" fill-rule="evenodd" fill="#ccccce"/><path id="shape_2" d="M201 251l-20.1 42.986-27.916-38.556z" transform="translate(-112 -178)" filter="url(#filter)" fill="#34c3ff" fill-rule="evenodd"/><path id="shape_4" d="M776 588a23 23 0 1023 23 23 23 0 00-23-23zm0 37.311A14.311 14.311 0 11790.311 611 14.312 14.312 0 01776 625.311z" transform="translate(-112 -178)" filter="url(#filter-2)" fill="#34c3ff" fill-rule="evenodd"/><path id="shape_3" d="M180.329 743l-2.066-.526c.033-.129 3.192-13.05-4-23.588-5.039-7.384-13.906-11.919-26.356-13.475-12.626-1.58-21.672-6.359-26.885-14.206-8.057-12.127-4.019-27.028-3.843-27.656l2.052.574c-.04.145-3.944 14.615 3.575 25.915 4.856 7.3 13.391 11.759 25.366 13.257 13.093 1.637 22.468 6.486 27.864 14.408 7.73 11.344 4.437 24.73 4.293 25.297zm13.859-12.545l-2.065-.527c.033-.129 3.191-13.049-4-23.587-5.039-7.385-13.907-11.919-26.356-13.476-12.627-1.579-21.672-6.359-26.886-14.206-8.057-12.127-4.019-27.028-3.843-27.656l2.053.574c-.041.146-3.944 14.615 3.575 25.916 4.856 7.3 13.39 11.758 25.365 13.256 13.094 1.638 22.469 6.486 27.865 14.409 7.73 11.342 4.436 24.73 4.292 25.294z" transform="translate(-112 -178)" filter="url(#filter-3)" fill="#fe3e57" fill-rule="evenodd"/><circle id="shape_1" cx="1384" cy="54" r="50" fill="url(#linear-gradient)" filter="url(#filter-4)"/><path id="shape_5" d="M1775 650.447l-5.45-5.454-8.05 8.049-8.05-8.049-5.46 5.454 8.05 8.05-8.05 8.049 5.46 5.455 8.05-8.05 8.05 8.05 5.45-5.455-8.05-8.049z" transform="translate(-112 -178)" filter="url(#filter-5)" fill="#fe3e57" fill-rule="evenodd"/></svg>