<svg width="50" height="50" viewBox="0 0 50 50" fill="none" xmlns="http://www.w3.org/2000/svg">
<path d="M49.4267 36.0899C47.5055 35.7256 46.0569 37.0311 44.243 35.0857C43.769 34.5777 43.0843 34.8641 42.8671 35.4828C41.3103 39.923 38.0717 37.7778 36.5877 34.6678C36.3002 34.0657 35.4863 34.1179 35.187 34.6678C34.1613 37.4098 32.1863 37.7475 29.2614 35.6808C28.7969 35.2368 28.0348 35.3862 27.8601 36.0851C26.5868 41.1823 22.1371 39.7819 20.7662 35.5934C20.6972 35.3824 20.5488 35.2801 20.3945 35.2617C20.0826 34.8352 19.3762 34.7073 19.1328 35.3056C17.3792 39.6131 14.1243 38.9538 12.0984 35.3113C11.7327 34.654 10.9778 34.8819 10.738 35.5057C9.03426 39.937 4.06987 39.8353 4.15827 34.5084C4.16798 33.9184 3.35977 33.8026 3.22311 34.3702C1.62401 41.0089 9.05735 42.1602 11.6323 37.2871C14.2919 40.5921 18.2802 41.2703 20.1823 36.8224C21.805 41.7006 27.106 42.6601 29.0762 37.8062C31.5782 39.6329 33.9617 39.3459 35.842 36.7507C38.1352 40.3286 42.2213 41.6467 44.0352 37.2317C45.6999 38.4627 46.8043 37.6015 49.2129 37.8125C50.1119 37.8916 50.3173 36.2591 49.4267 36.0899Z" fill="#00B2A0"/>
<path d="M46.7326 43.5752C45.9632 45.0062 45.6973 46.2886 44.0491 46.988C42.0205 47.8496 40.0011 45.7938 39.0014 44.1082C38.6565 43.5264 37.8198 43.4146 37.4976 44.1082C36.0854 47.1487 32.9579 46.4062 31.6234 43.4719C31.2953 42.75 30.1858 42.8789 30.0495 43.7047C29.2996 48.2534 25.9326 48.7348 23.6777 45.4379C23.9238 44.5502 22.6399 43.946 22.2898 44.8149C20.3969 49.5149 16.7014 48.9898 14.5565 44.7955C14.1842 44.0676 13.3502 44.3228 13.1097 45.0095C11.3665 49.9887 8.65145 47.6201 7.12786 44.1928C6.83112 43.5249 5.98483 43.7562 5.80593 44.3883C4.9733 47.3321 3.60156 47.8817 1.2906 48.6433C0.855401 48.787 0.922622 49.6419 1.4012 49.5698C4.04908 49.1702 5.49527 48.6369 6.5775 46.4047C8.80089 50.3349 11.9048 51.1377 13.9876 47.0022C16.6883 50.8291 21.0266 51.2654 23.176 46.7124C25.5636 50.3889 29.5677 50.2079 31.1711 46.2016C33.2397 48.9637 36.2504 49.3518 38.3335 46.2607C41.4334 49.7889 47.7734 50.5787 47.9994 43.9645C48.0275 43.1757 47.073 42.9419 46.7326 43.5752Z" fill="#00B2A0"/>
<path d="M15.5216 7.50507C14.9559 7.67895 14.7328 8.12751 14.7501 8.5804C10.7415 9.20593 8.14631 13.383 7.83659 17.5845C7.41301 23.3329 12.0364 26.7097 17.0492 26.2809C22.1747 25.8428 25.509 21.0025 25.3583 15.8007C25.2077 10.605 20.5473 5.95773 15.5216 7.50507ZM16.3562 23.653C12.6772 23.9717 10.2972 21.3478 10.3675 17.5845C10.4414 13.6401 13.303 11.0391 16.6204 9.99917C16.6811 9.98006 16.7249 9.94738 16.7742 9.9184C20.0081 10.4511 22.4538 11.7506 22.7973 15.8001C23.1541 20.0006 20.2337 23.3163 16.3562 23.653Z" fill="#00B2A0"/>
<path d="M10.8569 7.33132C10.2535 6.63796 9.58498 6.02877 8.90043 5.4276C8.22172 4.83135 7.50186 3.67771 6.54495 3.77205C6.03818 3.822 5.69489 4.16143 5.65957 4.70711C5.59242 5.74267 6.55925 6.25136 7.26248 6.77947C8.06642 7.3828 8.9016 7.92263 9.64774 8.60859C10.4756 9.37008 11.6085 8.19485 10.8569 7.33132Z" fill="#00B2A0"/>
<path d="M5.30955 10.4497C5.63124 10.4907 5.34692 10.4414 5.26197 10.4134C5.13148 10.3699 5.00362 10.3178 4.87605 10.266C4.73155 10.2077 4.58852 10.1448 4.44577 10.0819C4.43613 10.0776 4.43088 10.0755 4.41658 10.0687C4.28054 9.79276 4.04672 9.57048 3.74575 9.4709C3.20833 9.29239 2.39096 8.86602 1.81005 9.05871C1.48164 9.16784 1.13747 9.45486 1.07354 9.83653C1.07354 9.83653 1.07325 9.83808 1.07325 9.83869C1.01253 10.2003 1.0388 10.6708 1.34444 10.9223C1.51463 11.0617 1.71371 11.1604 1.92127 11.2454C1.75312 11.2448 1.88886 11.2532 2.04095 11.2905C2.14867 11.3296 2.25493 11.3697 2.36586 11.4008C2.63325 11.4958 2.90036 11.5923 3.16629 11.6906C3.31897 11.7477 3.47631 11.7526 3.6284 11.7236C4.17516 11.8771 4.77388 12.051 5.30984 12.0165C6.28426 11.9536 6.24252 10.569 5.30955 10.4497Z" fill="#00B2A0"/>
<path d="M3.63998 19.2588C3.23071 19.6211 2.75313 19.905 2.28782 20.1772C2.04728 20.3181 1.79856 20.4639 1.5408 20.5666C1.38638 20.628 1.14058 20.5765 1.48037 20.6421C1.31164 20.6098 1.15167 20.6064 0.983821 20.5873C-0.431102 20.426 -0.302366 23.1242 1.25735 22.7222C1.83184 22.5742 2.41889 21.9952 2.90726 21.6244C3.47388 21.1943 4.03961 20.7241 4.50668 20.1741C5.0406 19.5458 4.24162 18.7258 3.63998 19.2588Z" fill="#00B2A0"/>
<path d="M7.24527 24.6062C6.76594 25.3831 6.32894 26.1883 5.87296 26.9804C5.37875 27.8383 4.54153 28.4781 4.43177 29.5047C4.36171 30.1601 5.04129 30.4847 5.5431 30.3987C6.56919 30.223 7.06982 28.8437 7.44494 27.9503C7.83202 27.0285 8.06993 26.0616 8.37995 25.1109C8.61815 24.3787 7.61396 24.0081 7.24527 24.6062Z" fill="#00B2A0"/>
<path d="M16.9431 27.3986C16.8421 26.8502 16.0391 26.8764 15.9214 27.3986C15.6126 28.7715 15.2509 30.1326 14.9476 31.5067C14.8743 31.8384 14.9374 32.2222 15.1864 32.4609C15.1455 32.4032 15.1502 32.4146 15.2001 32.4945C15.497 33.0068 16.1208 32.9483 16.4285 32.4945C16.1474 32.9088 16.6276 32.2938 16.6448 32.2623C16.7581 32.0579 16.7677 31.8433 16.7797 31.614C16.8048 31.1392 16.8576 30.6656 16.9005 30.1924C16.9849 29.2697 17.1124 28.3171 16.9431 27.3986Z" fill="#00B2A0"/>
<path d="M27.6073 28.2096C26.8732 27.0973 25.7073 26.3833 25.0399 25.2346C24.5831 24.4478 23.5368 25.1332 23.8898 25.9446C24.1957 26.6478 24.6631 27.2317 25.1456 27.8073C25.3759 28.082 25.6118 28.3502 25.8144 28.6487C26.0908 29.0559 26.2044 29.5134 26.7433 29.5927C27.0533 29.6383 27.4071 29.5735 27.5636 29.2397C27.5782 29.2088 27.5927 29.178 27.6071 29.1469C27.7407 28.8626 27.7921 28.4899 27.6073 28.2096Z" fill="#00B2A0"/>
<path d="M31.8792 19.9104C30.6435 19.9792 29.4075 20.0452 28.1718 20.1102C27.0599 20.1688 27.0599 21.8737 28.1718 21.9325C29.4078 21.9979 30.6435 22.0639 31.8792 22.132C33.236 22.2075 33.236 19.8355 31.8792 19.9104Z" fill="#00B2A0"/>
<path d="M31.8797 7.09895C30.7587 7.07429 29.8526 8.49614 29.1809 9.32207C28.459 10.2093 27.8247 11.1709 27.0887 12.0465C26.5265 12.7155 27.3932 13.6419 28.02 13.0299C28.762 12.3048 29.4357 11.5079 30.148 10.751C30.5503 10.3237 30.9666 9.89334 31.4231 9.53047C31.9845 9.08499 32.4256 8.9404 32.6752 8.20141C32.8605 7.65296 32.3835 7.11005 31.8797 7.09895Z" fill="#00B2A0"/>
<path d="M26.4932 1.2963C25.8297 1.74579 25.3871 2.47583 24.9312 3.14329C24.3996 3.92143 23.8943 4.70327 23.2795 5.41296C22.5833 6.21669 23.6663 7.3731 24.4139 6.611C24.9942 6.01907 25.508 5.37381 26.0115 4.70912C26.5522 3.99573 27.2493 3.34245 27.6942 2.56431C28.1408 1.78371 27.2417 0.789458 26.4932 1.2963Z" fill="#00B2A0"/>
<path d="M18.2032 0.226597C17.8797 -0.0755323 17.4565 -0.0755323 17.133 0.226597C16.4981 0.819757 16.7909 1.85532 16.8437 2.64486C16.9045 3.55064 16.9696 4.45548 17.0475 5.36002C17.1202 6.20352 18.216 6.20352 18.2887 5.36002C18.3667 4.45517 18.4318 3.55094 18.4925 2.64486C18.5453 1.85563 18.8381 0.819449 18.2032 0.226597Z" fill="#00B2A0"/>
</svg>
