<svg xmlns="http://www.w3.org/2000/svg" width="121.18" height="76.24">
  <defs>
    <clipPath id="a">
      <path fill="none" d="M0 0h121.18v76.24H0z"/>
    </clipPath>
  </defs>
  <g fill="#868686">
    <g clip-path="url(#a)">
      <path d="M54.93 7.28a16.13 16.13 0 0 0 2.92-2.68 38.87 38.87 0 0 0 2.49-3.08l.24-.34.22.36a31 31 0 0 0 2.29 3.23 14.23 14.23 0 0 0 2.81 2.79 10.46 10.46 0 0 1-3.16-2.5 19.15 19.15 0 0 1-1.27-1.56c-.4-.54-.8-1.08-1.15-1.67h.46a28.12 28.12 0 0 1-2.63 3 11.59 11.59 0 0 1-3.22 2.39M88.89 13.11a1.72 1.72 0 0 1-.06-2.63 2.94 2.94 0 0 1 2.91-.36 2.53 2.53 0 0 1 1.6 2.49 3.28 3.28 0 0 1-1.58 2.56 6.18 6.18 0 0 1-5.76.28 9.14 9.14 0 0 1-4.2-3.92A10.07 10.07 0 0 0 86.15 15a5.82 5.82 0 0 0 5.29-.35 2.75 2.75 0 0 0 1.38-2.12 2.13 2.13 0 0 0-1.26-2.08 2.61 2.61 0 0 0-2.56.18 1.6 1.6 0 0 0-.11 2.42M32.21 13.14a1.6 1.6 0 0 0-.12-2.42 2.61 2.61 0 0 0-2.56-.17 2.13 2.13 0 0 0-1.26 2.08 2.75 2.75 0 0 0 1.39 2.12 5.83 5.83 0 0 0 5.29.34 10.06 10.06 0 0 0 4.36-3.53 9.14 9.14 0 0 1-4.19 3.93 6.18 6.18 0 0 1-5.76-.27 3.28 3.28 0 0 1-1.59-2.56 2.53 2.53 0 0 1 1.6-2.5 2.94 2.94 0 0 1 2.91.36 1.72 1.72 0 0 1-.06 2.63"/>
      <path d="M47.75 0a23.48 23.48 0 0 1 2.39.34 13.85 13.85 0 0 1 2.31.76 12.41 12.41 0 0 1 4 2.72 14.5 14.5 0 0 1 4.07 8.64A19.24 19.24 0 0 0 58.88 8a15.06 15.06 0 0 0-2.79-3.79 13.5 13.5 0 0 0-1.78-1.54 15.79 15.79 0 0 0-2-1.18A19.14 19.14 0 0 0 47.75 0M73.7 0a19.4 19.4 0 0 0-4.57 1.5 16.58 16.58 0 0 0-2.07 1.19 14.41 14.41 0 0 0-1.81 1.54A15.79 15.79 0 0 0 62.38 8a19.89 19.89 0 0 0-1.82 4.46 15 15 0 0 1 4.31-8.64A12.89 12.89 0 0 1 69 1.11a13.9 13.9 0 0 1 2.29-.76A23 23 0 0 1 73.7 0"/>
      <path d="M31.42 10.43a4 4 0 0 0-2.07-.29 2.88 2.88 0 0 0-1.77 1 3.73 3.73 0 0 0-.45 3.9 5.05 5.05 0 0 0 3.14 2.5 7.41 7.41 0 0 0 4.09 0 13 13 0 0 0 3.76-1.78 31.59 31.59 0 0 0 3.28-2.65A36.71 36.71 0 0 1 48.21 8a8.52 8.52 0 0 1 4.19-1.17 6.87 6.87 0 0 1 4.06 1.54 5.9 5.9 0 0 1 .94 8 6.14 6.14 0 0 1-3.7 2.2 4.5 4.5 0 0 1-4.07-1.14 3.25 3.25 0 0 1-.54-4 2.45 2.45 0 0 1 3.75-.33 2.38 2.38 0 0 0-3.64.4 3.05 3.05 0 0 0 .62 3.76 4.2 4.2 0 0 0 3.81 1 5.75 5.75 0 0 0 3.42-2.11 5.48 5.48 0 0 0-.92-7.34 6.35 6.35 0 0 0-3.75-1.4 8 8 0 0 0-3.93 1.09 36.3 36.3 0 0 0-6.71 5.09c-2.1 1.87-4.42 3.76-7.28 4.46a7.8 7.8 0 0 1-4.31-.1 5.34 5.34 0 0 1-3.28-2.72 3.94 3.94 0 0 1 .59-4.1 3 3 0 0 1 1.86-1 4 4 0 0 1 2.08.36M89.7 10.4a4 4 0 0 1 2.07-.4 3 3 0 0 1 1.86 1 3.93 3.93 0 0 1 .6 4.1A5.34 5.34 0 0 1 91 17.87a7.79 7.79 0 0 1-4.31.1c-2.85-.69-5.18-2.58-7.28-4.45a36.34 36.34 0 0 0-6.72-5.08 8 8 0 0 0-3.93-1.08A6.34 6.34 0 0 0 65 8.77a5.48 5.48 0 0 0-.91 7.34 5.74 5.74 0 0 0 3.43 2.11 4.2 4.2 0 0 0 3.81-1 3 3 0 0 0 .61-3.76 2.38 2.38 0 0 0-3.64-.4 2.45 2.45 0 0 1 3.7.34 3.25 3.25 0 0 1-.53 4 4.5 4.5 0 0 1-4.07 1.14 6.13 6.13 0 0 1-3.7-2.2 5.9 5.9 0 0 1 .93-8 6.87 6.87 0 0 1 4.06-1.55 8.51 8.51 0 0 1 4.19 1.12 36.75 36.75 0 0 1 6.8 5.2A31.58 31.58 0 0 0 83 15.79a13.05 13.05 0 0 0 3.76 1.77 7.4 7.4 0 0 0 4.09 0A5.05 5.05 0 0 0 94 15a3.73 3.73 0 0 0-.45-3.9 2.89 2.89 0 0 0-1.77-1 4 4 0 0 0-2.07.29M89.73 68.36a4.18 4.18 0 0 0 1.94.32 2.92 2.92 0 0 0 1.71-.88 3.68 3.68 0 0 0 .8-3.62 4.58 4.58 0 0 0-2.62-2.69 7 7 0 0 0-3.81-.49 14.14 14.14 0 0 0-6.87 3.62 73.56 73.56 0 0 1-6.17 5.14 13.91 13.91 0 0 1-3.63 1.84 7 7 0 0 1-4.09.06l-1-.39c-.3-.16-.58-.37-.87-.56a4.91 4.91 0 0 1-1.49-1.44 5.94 5.94 0 0 1-1-4 5.53 5.53 0 0 1 1.8-3.63 6.19 6.19 0 0 1 3.73-1.54 4.26 4.26 0 0 1 3.61 1.57 3.14 3.14 0 0 1 .1 3.77 3.07 3.07 0 0 0-.21-3.68 4.06 4.06 0 0 0-3.49-1.39A5.91 5.91 0 0 0 64.69 62a5.14 5.14 0 0 0-1.61 3.4 5.65 5.65 0 0 0 1 3.64 4.42 4.42 0 0 0 1.38 1.31c.27.17.53.36.81.51l.89.35a6.45 6.45 0 0 0 3.78-.09 13.47 13.47 0 0 0 3.47-1.79 73.55 73.55 0 0 0 6.16-5.06 14.19 14.19 0 0 1 7.14-3.66 7.35 7.35 0 0 1 4 .58 4.87 4.87 0 0 1 2.74 2.93 3.89 3.89 0 0 1-1 3.8 3 3 0 0 1-1.8.85 4.23 4.23 0 0 1-2-.38M31.46 68.4a4.22 4.22 0 0 1-2 .39 3 3 0 0 1-1.81-.85 3.89 3.89 0 0 1-1-3.8 4.87 4.87 0 0 1 2.73-2.93 7.35 7.35 0 0 1 4-.59 14.19 14.19 0 0 1 7.15 3.65 73.52 73.52 0 0 0 6.16 5.05 13.46 13.46 0 0 0 3.48 1.79 6.44 6.44 0 0 0 3.78.08l.89-.35c.28-.15.54-.35.82-.52A4.42 4.42 0 0 0 57.13 69a5.64 5.64 0 0 0 1-3.64A5.14 5.14 0 0 0 56.49 62 5.91 5.91 0 0 0 53 60.45a4.05 4.05 0 0 0-3.49 1.39 3.07 3.07 0 0 0-.2 3.68 3.14 3.14 0 0 1 .1-3.77A4.26 4.26 0 0 1 53 60.18a6.2 6.2 0 0 1 3.73 1.54 5.54 5.54 0 0 1 1.81 3.62 5.94 5.94 0 0 1-1 4A4.91 4.91 0 0 1 56 70.73c-.29.18-.57.39-.87.56l-1 .39a7 7 0 0 1-4.09-.06 14 14 0 0 1-3.63-1.83 73.93 73.93 0 0 1-6.18-5.13 14.14 14.14 0 0 0-6.8-3.66 7 7 0 0 0-3.81.48A4.57 4.57 0 0 0 27 64.21a3.68 3.68 0 0 0 .8 3.62 2.92 2.92 0 0 0 1.72.88 4.19 4.19 0 0 0 1.95-.32M110.64 17.77a2.06 2.06 0 0 1-2.15.26 2.55 2.55 0 0 1-1.37-1.8 3.25 3.25 0 0 1 2.43-3.59 3.76 3.76 0 0 1 4.07 1.88 4.52 4.52 0 0 1-.22 4.55 5.57 5.57 0 0 1-3.91 2.39 7.16 7.16 0 0 1-4.47-.92 9.68 9.68 0 0 1-4.75-7.38 9.89 9.89 0 0 0 5 7 7 7 0 0 0 4.2.79 5 5 0 0 0 3.51-2.19 4 4 0 0 0 .25-4 3.36 3.36 0 0 0-3.52-1.71 2.91 2.91 0 0 0-2.26 3.13 2.34 2.34 0 0 0 1.16 1.72 2 2 0 0 0 2.09-.14M10.49 17.83a2 2 0 0 0 2.09.13 2.34 2.34 0 0 0 1.15-1.73 2.91 2.91 0 0 0-2.27-3.13A3.36 3.36 0 0 0 8 14.83a4 4 0 0 0 .25 4A5 5 0 0 0 11.72 21a7 7 0 0 0 4.2-.8 9.89 9.89 0 0 0 4.95-7 9.68 9.68 0 0 1-4.74 7.38 7.17 7.17 0 0 1-4.48.92 5.57 5.57 0 0 1-3.91-2.38 4.52 4.52 0 0 1-.23-4.55 3.76 3.76 0 0 1 4.06-1.89A3.25 3.25 0 0 1 14 16.29a2.54 2.54 0 0 1-1.36 1.8 2.06 2.06 0 0 1-2.15-.26"/>
      <path d="M9.36 25.57a4.08 4.08 0 0 1-2.56 2.64 3.61 3.61 0 0 1-3.62-.61 4.52 4.52 0 0 1-1.37-3.49 5.23 5.23 0 0 1 1.36-3.55 3.72 3.72 0 0 1 3.66-.87A6.09 6.09 0 0 1 10 21.88c1.55 2.12 2 4.73 2.36 7.22A76.35 76.35 0 0 1 10 59.3c-.36 1.22-.73 2.43-1.17 3.63a26.48 26.48 0 0 1-1.44 3.55 6.27 6.27 0 0 1-2.63 2.87A3.37 3.37 0 0 1 1 68.78 3.32 3.32 0 0 1 .06 67a4.58 4.58 0 0 1 .14-2 5.07 5.07 0 0 1 2.42-3c2.29-1.33 4.91-1.48 7.39-1.89a96.94 96.94 0 0 1 15.18-.91 99 99 0 0 1 15.11 1.55 98.88 98.88 0 0 0-15.12-1.26 97.35 97.35 0 0 0-15.12 1c-2.47.42-5.09.6-7.23 1.88a4.64 4.64 0 0 0-2.21 2.77 4.15 4.15 0 0 0-.12 1.78 2.86 2.86 0 0 0 .81 1.53 2.88 2.88 0 0 0 3.26.46A5.8 5.8 0 0 0 7 66.24a25.93 25.93 0 0 0 1.38-3.49c.42-1.19.79-2.4 1.14-3.61a75.89 75.89 0 0 0 2.51-30c-.31-2.48-.78-5-2.27-7.07a5.78 5.78 0 0 0-3-2.1 3.45 3.45 0 0 0-3.39.77A5 5 0 0 0 2 24.12a4.35 4.35 0 0 0 1.28 3.38 3.51 3.51 0 0 0 3.5.65 4 4 0 0 0 2.58-2.58M112 25.51a4 4 0 0 0 2.57 2.57 3.52 3.52 0 0 0 3.5-.64 4.33 4.33 0 0 0 1.27-3.37 5 5 0 0 0-1.32-3.36 3.43 3.43 0 0 0-3.37-.81 5.76 5.76 0 0 0-3 2.07c-1.5 2-2 4.57-2.29 7a75.89 75.89 0 0 0 2.49 29.92q.51 1.82 1.13 3.6a29.3 29.3 0 0 0 1.43 3.51 6.35 6.35 0 0 0 2.32 2.74 2.84 2.84 0 0 0 1.67.42 2.36 2.36 0 0 0 1.49-.77 4.1 4.1 0 0 0-1.35-6.16c-2.15-1.25-4.75-1.43-7.22-1.84a97.34 97.34 0 0 0-15.09-1 98.92 98.92 0 0 0-15.08 1.28 99 99 0 0 1 15.08-1.56 97 97 0 0 1 15.14.88c2.47.4 5.09.54 7.38 1.85a4.54 4.54 0 0 1 1.49 6.83 2.84 2.84 0 0 1-1.79.94 3.31 3.31 0 0 1-2-.47 6.83 6.83 0 0 1-2.45-2.88 29.64 29.64 0 0 1-1.41-3.55c-.42-1.2-.81-2.4-1.16-3.62A76.31 76.31 0 0 1 109.06 29c.33-2.49.82-5.11 2.4-7.19a6.08 6.08 0 0 1 3.15-2.16 3.7 3.7 0 0 1 3.65.9 5.24 5.24 0 0 1 1.33 3.55 4.49 4.49 0 0 1-1.38 3.48 3.62 3.62 0 0 1-3.61.6 4.08 4.08 0 0 1-2.6-2.67M33.45 64.73a26.4 26.4 0 0 1 7.66 4.07c2.35 1.7 4.44 3.76 6.76 5.41a6.86 6.86 0 0 0 3.81 1.52 5.62 5.62 0 0 0 3.65-1.78A19.14 19.14 0 0 0 58 70.63c.83-1.18 1.55-2.43 2.3-3.67a28 28 0 0 1-4.72 7.3 5.87 5.87 0 0 1-3.93 2 7.36 7.36 0 0 1-4.14-1.57c-2.36-1.74-4.42-3.76-6.7-5.53a30.73 30.73 0 0 0-7.4-4.41M87.24 64.7a30.68 30.68 0 0 0-7.39 4.42c-2.28 1.77-4.33 3.79-6.69 5.53A7.35 7.35 0 0 1 69 76.23a5.87 5.87 0 0 1-3.94-2A28 28 0 0 1 60.34 67c.75 1.24 1.47 2.49 2.3 3.67a19.1 19.1 0 0 0 2.72 3.31A5.61 5.61 0 0 0 69 75.72a6.88 6.88 0 0 0 3.81-1.52c2.33-1.65 4.4-3.71 6.75-5.42a26.4 26.4 0 0 1 7.65-4.08"/>
    </g>
    <path d="M26.82 41.59a1.42 1.42 0 0 0 .77-.21 1.34 1.34 0 0 0 .47-.92 1.69 1.69 0 0 1 .32-.86.65.65 0 0 1 .43-.15.54.54 0 0 1 .37.19.69.69 0 0 1 .19.51 15.2 15.2 0 0 0 .14 2.08q0 .64-.62.58a12 12 0 0 0-1.25 0h-9.29c-.73 0-1.1-.19-1.1-.57s.07-.41.2-.48a1.45 1.45 0 0 1 .6-.12q.77 0 1-.41a1.77 1.77 0 0 0 .19-.83V27.87a1.5 1.5 0 0 0-.21-.79A1.63 1.63 0 0 0 18 26.5a2 2 0 0 1-.87-.42.71.71 0 0 1-.15-.44.37.37 0 0 1 .18-.28.69.69 0 0 1 .43-.14 3.61 3.61 0 0 1 .8.22 4.28 4.28 0 0 0 1.41.22 6.6 6.6 0 0 0 1.82-.25 5.52 5.52 0 0 1 1.11-.24.69.69 0 0 1 .48.19.58.58 0 0 1 .21.43.48.48 0 0 1-.12.34 1.36 1.36 0 0 1-.65.24 2.2 2.2 0 0 0-.94.36 1.67 1.67 0 0 0-.46 1.34V40a2 2 0 0 0 .28 1.24 1 1 0 0 0 .82.34ZM50.47 27.55q0-1.11-1.35-1.11-.68 0-.68-.55t.87-.53a4.69 4.69 0 0 1 .79.09 4.51 4.51 0 0 0 .77.1 6.93 6.93 0 0 0 1-.11 6.88 6.88 0 0 1 1-.11.86.86 0 0 1 .47.14.41.41 0 0 1 .22.34.47.47 0 0 1-.19.45 2.55 2.55 0 0 1-.78.18 1 1 0 0 0-.79.47 1.91 1.91 0 0 0-.2.88v9.72a7.17 7.17 0 0 1-.4 2.72 4.05 4.05 0 0 1-1.3 1.62 6.08 6.08 0 0 1-2.1 1 9.77 9.77 0 0 1-2.6.33A6.83 6.83 0 0 1 41 42a4 4 0 0 1-1.67-3.39V27.4a.89.89 0 0 0-.19-.58 1.19 1.19 0 0 0-.79-.3 1.46 1.46 0 0 1-.75-.21.49.49 0 0 1-.14-.36.46.46 0 0 1 .21-.39.83.83 0 0 1 .49-.15 6.55 6.55 0 0 1 1 .11 6.38 6.38 0 0 0 1 .11 7.52 7.52 0 0 0 1.11-.12 7.47 7.47 0 0 1 1.11-.12 1.37 1.37 0 0 1 .67.14.46.46 0 0 1 .26.42.57.57 0 0 1-.12.38 1 1 0 0 1-.65.19 1.59 1.59 0 0 0-.81.24q-.28.2-.28.88V38.5a3.14 3.14 0 0 0 1.14 2.55 4.41 4.41 0 0 0 2.91.94 6.77 6.77 0 0 0 2.19-.37 4.91 4.91 0 0 0 1.85-1.1 2.9 2.9 0 0 0 .87-2 8.43 8.43 0 0 0 .07-1.43ZM70.86 33.11a.22.22 0 0 0 0 .14L72 35.06q2.41 4 3.18 5.32a3.23 3.23 0 0 0 .61.82 2.32 2.32 0 0 0 .61.37 2.7 2.7 0 0 0 1 .14c.41 0 .61.18.61.55a.39.39 0 0 1-.2.37 1.47 1.47 0 0 1-.69.12 10.43 10.43 0 0 1-1.23-.09q-.72-.09-.93-.09a9 9 0 0 0-1.22.13 10.38 10.38 0 0 1-1 .13q-.85 0-.85-.63a.48.48 0 0 1 .13-.34 1 1 0 0 1 .58-.19 1.24 1.24 0 0 0 .55-.14.29.29 0 0 0 .11-.23 1.14 1.14 0 0 0-.23-.49q-.23-.34-.59-1T71.28 38l-1.66-2.7-.08-.1-.11.1q-.79 1.18-1.71 2.7t-1.44 2.31a2.94 2.94 0 0 0-.52 1 .32.32 0 0 0 .11.24 1.27 1.27 0 0 0 .58.17 1.18 1.18 0 0 1 .6.19.42.42 0 0 1 .13.32.5.5 0 0 1-.21.48 1.12 1.12 0 0 1-.55.12 7.2 7.2 0 0 1-1-.1 7.22 7.22 0 0 0-1-.1 5.43 5.43 0 0 0-.87.1 5.36 5.36 0 0 1-.79.1q-.68 0-.68-.54t.61-.51a2.43 2.43 0 0 0 1.06-.26 1.83 1.83 0 0 0 .79-.65l4.19-6.72a.4.4 0 0 0 0-.18.43.43 0 0 0-.08-.21l-3.52-5.86a5.19 5.19 0 0 0-.64-.85 1.52 1.52 0 0 0-.57-.4 3.9 3.9 0 0 0-.82-.14 1.59 1.59 0 0 1-.73-.19.41.41 0 0 1-.17-.34.56.56 0 0 1 .17-.4.68.68 0 0 1 .51-.18 10.71 10.71 0 0 1 1.12.1 10.74 10.74 0 0 0 1.13.1 12 12 0 0 0 1.29-.11q.91-.11 1.12-.11.83 0 .84.54a.61.61 0 0 1-.13.41.8.8 0 0 1-.58.17 1 1 0 0 0-.55.11.36.36 0 0 0-.1.27q0 .17 3 4.83l.13.14.14-.14L72 28.87a17.21 17.21 0 0 0 1.24-2.08.27.27 0 0 0-.11-.23 1.35 1.35 0 0 0-.61-.1 1 1 0 0 1-.64-.15.5.5 0 0 1-.15-.38q0-.58.84-.58a6.53 6.53 0 0 1 .92.1c.42.07.67.1.75.1a6.6 6.6 0 0 0 1-.11 7.62 7.62 0 0 1 .82-.11.73.73 0 0 1 .52.18.5.5 0 0 1 .2.35.44.44 0 0 1-.19.37 1.84 1.84 0 0 1-.77.22 4.59 4.59 0 0 0-.76.14 1.15 1.15 0 0 0-.41.29 6.7 6.7 0 0 0-.71 1q-1.86 3.08-3.08 5a.38.38 0 0 0 0 .23ZM94.89 24.92a8.08 8.08 0 0 1 6.56 2.86 9.78 9.78 0 0 1 2.39 6.43 9.27 9.27 0 0 1-1.29 4.79 7.22 7.22 0 0 1-3.37 3.08 11.06 11.06 0 0 1-4.42.9 8.39 8.39 0 0 1-6.33-2.64 9.34 9.34 0 0 1-2.53-6.72 8.83 8.83 0 0 1 1.1-4.21 8.28 8.28 0 0 1 3.16-3.29 9.16 9.16 0 0 1 4.73-1.2Zm-.06 16.94a6.65 6.65 0 0 0 3.75-1 5.7 5.7 0 0 0 2.14-2.44 9.63 9.63 0 0 0 .64-3.86q0-4.17-1.75-6.37a6.19 6.19 0 0 0-9.52.07 8.57 8.57 0 0 0-1.73 5.37q.01 8.24 6.47 8.24ZM21.13 49.2h.75v5.15h2.47V55h-3.22ZM27.76 49.2v3.42c0 1.29.58 1.84 1.35 1.84s1.41-.57 1.41-1.84V49.2h.75v3.37c0 1.78-.93 2.51-2.19 2.51S27 54.4 27 52.6v-3.4ZM37.88 55l-.74-1.28c-.3-.49-.49-.81-.67-1.14-.16.33-.33.64-.62 1.15L35.14 55h-.86L36 52l-1.7-2.86h.87l.83 1.41c.21.38.38.67.53 1 .16-.34.31-.61.52-1l.79-1.36h.86L36.94 52l1.8 3ZM42.5 49.19v3.42c0 1.29.58 1.84 1.35 1.84s1.41-.57 1.41-1.84v-3.42H46v3.37c0 1.78-.93 2.51-2.19 2.51s-2.08-.68-2.08-2.47v-3.41ZM49.45 49.26a7.77 7.77 0 0 1 1.43-.12 2.36 2.36 0 0 1 1.67.47 1.44 1.44 0 0 1 .46 1.1 1.52 1.52 0 0 1-1.09 1.48 1.44 1.44 0 0 1 .85 1.17 9.12 9.12 0 0 0 .45 1.64h-.77a7.44 7.44 0 0 1-.39-1.38c-.17-.8-.48-1.1-1.16-1.12h-.7V55h-.75Zm.75 2.63h.8c.8 0 1.3-.44 1.3-1.1s-.54-1.07-1.33-1.08a3.08 3.08 0 0 0-.74.07ZM57.41 55v-2.49l-1.83-3.33h.85l.82 1.6c.22.44.4.79.58 1.19.16-.38.36-.75.58-1.19l.83-1.6h.85l-1.93 3.32V55ZM66.87 49.25a7.25 7.25 0 0 1 1.36-.12 2.39 2.39 0 0 1 1.59.42 1.21 1.21 0 0 1 .48 1 1.37 1.37 0 0 1-1 1.27 1.49 1.49 0 0 1 1.19 1.45 1.55 1.55 0 0 1-.49 1.19 2.9 2.9 0 0 1-2 .54 8.6 8.6 0 0 1-1.16-.07Zm.75 2.37h.68c.79 0 1.25-.41 1.25-1s-.51-.94-1.27-.94a3.15 3.15 0 0 0-.66.05Zm0 2.77a3.88 3.88 0 0 0 .63 0c.77 0 1.48-.28 1.48-1.12s-.68-1.11-1.49-1.11h-.62ZM73.67 49.25a7.69 7.69 0 0 1 1.43-.12 2.36 2.36 0 0 1 1.67.47 1.44 1.44 0 0 1 .46 1.1 1.52 1.52 0 0 1-1.09 1.48 1.44 1.44 0 0 1 .86 1.18 9.21 9.21 0 0 0 .45 1.59h-.77a7.44 7.44 0 0 1-.39-1.38c-.17-.8-.48-1.1-1.16-1.12h-.7v2.5h-.75Zm.75 2.63h.76c.8 0 1.3-.44 1.3-1.1s-.54-1.07-1.33-1.08a3.08 3.08 0 0 0-.74.07ZM81.4 53.13l-.6 1.82H80l2-5.78h.9l2 5.78h-.8l-.62-1.82Zm1.9-.58-.57-1.66c-.13-.38-.21-.72-.3-1.05-.08.34-.18.69-.29 1l-.56 1.67ZM87.85 54.94v-5.78h.81l1.85 2.92a16.39 16.39 0 0 1 1 1.88c-.07-.77-.09-1.47-.09-2.37v-2.43h.7v5.78h-.75L89.6 52a18.33 18.33 0 0 1-1.08-1.93c0 .73.06 1.42.06 2.38v2.47ZM95.64 49.23a10.6 10.6 0 0 1 1.59-.12 3.31 3.31 0 0 1 2.34.72 2.67 2.67 0 0 1 .82 2.08 3.06 3.06 0 0 1-.83 2.25A3.56 3.56 0 0 1 97 55a12.26 12.26 0 0 1-1.36-.07Zm.75 5.11a4.72 4.72 0 0 0 .75 0 2.22 2.22 0 0 0 2.46-2.45 2.06 2.06 0 0 0-2.34-2.23 4.3 4.3 0 0 0-.87.08Z"/>
  </g>
</svg>
