<svg xmlns="http://www.w3.org/2000/svg" width="74.43" height="59.05">
  <defs>
    <clipPath id="a">
      <path fill="none" d="M0 0h74.43v59.05H0z"/>
    </clipPath>
  </defs>
  <g fill="#868686" clip-path="url(#a)">
    <path d="M5.66 49.35a2 2 0 0 1 .44 1.27 2 2 0 0 1-.68 1.6 2.92 2.92 0 0 1-2 .59H0v-8h3.39a2.89 2.89 0 0 1 1.88.54 1.84 1.84 0 0 1 .66 1.51A1.87 1.87 0 0 1 5.52 48a1.82 1.82 0 0 1-1 .63 2 2 0 0 1 1.17.69m-4.08-1.18h1.45a1.38 1.38 0 0 0 .94-.27 1 1 0 0 0 .31-.77 1 1 0 0 0-.31-.78A1.39 1.39 0 0 0 3 46H1.61Zm2.51 3.08a1 1 0 0 0 .34-.81 1 1 0 0 0-.35-.83 1.5 1.5 0 0 0-1-.29h-1.5v2.21h1.53a1.51 1.51 0 0 0 1-.28M12.56 52.81l-1.88-3.14H10v3.14H8.37v-8h3.07a3 3 0 0 1 2.14.68 2.56 2.56 0 0 1 .23 3.33 2.5 2.5 0 0 1-1.47.82l2 3.22ZM10 48.57h1.3q1.38 0 1.38-1.22a1.2 1.2 0 0 0-.34-.91 1.45 1.45 0 0 0-1-.32H10ZM21.43 51.19h-3.22l-.57 1.62h-1.7l3-8h1.84l3 8H22ZM21 50l-1.19-3.4-1.18 3.4ZM32.51 52.81h-1.6l-3.61-5.47v5.47h-1.6v-8.05h1.6l3.61 5.52v-5.52h1.6v8.05zM41.69 50.88a3.49 3.49 0 0 1-1.45 1.42 4.75 4.75 0 0 1-2.26.51h-2.87v-8H38a4.85 4.85 0 0 1 2.26.5 3.43 3.43 0 0 1 1.45 1.4 4.69 4.69 0 0 1 0 4.22m-1.84-.19a2.94 2.94 0 0 0 0-3.84 2.79 2.79 0 0 0-2-.68h-1.15v5.21h1.12a2.79 2.79 0 0 0 2-.68M22.44 0s20.75 7.84 20.31 19.17v19.18S22 30.51 22.45 19.17ZM61.24 33.86A28.39 28.39 0 0 1 74.43 29v-6a27 27 0 0 0-13.19 10.86"/>
    <path d="M58.88 35.67a28.21 28.21 0 0 1 15.55-13.93V4.44S44.87 15.6 45.5 31.75v27.3s1.32-.5 3.39-1.43c0-.88 0-1.76.09-2.64a28.38 28.38 0 0 1 9.91-19.31"/>
    <path d="M56.08 45.81a28.4 28.4 0 0 1 1-5.59 26.35 26.35 0 0 0-6.18 14.92c0 .52-.07 1-.08 1.56 1.68-.81 3.63-1.81 5.69-3a28.18 28.18 0 0 1-.46-7.89M57.25 45.91a27.07 27.07 0 0 0 .36 7.16c8.08-4.83 17.15-12.29 16.8-21.32V31a26.5 26.5 0 0 0-15.36 7.18 27 27 0 0 0-1.81 7.75"/>
  </g>
</svg>
