<svg xmlns="http://www.w3.org/2000/svg" width="84.09" height="93.94">
  <defs>
    <clipPath id="a">
      <path fill="none" d="M0 0h84.09v95.43H0z"/>
    </clipPath>
  </defs>
  <g fill="#868686" clip-path="url(#a)">
    <path d="M44.27.76 83.32.37h.39v.4L84 42l.12 41.24V84h-.76l-41.24.08L.84 84H.08v-.76C.11 69.5.1 55.75.21 42L.46.76V.38h.38L38 .76.84 1.14l.38-.38L1.47 42c.1 13.75.1 27.49.13 41.24l-.76-.76 41.24-.08 41.24.08-.76.76.12-41.24.24-41.24.4.4Z"/>
    <path d="m83.32 44.19.4 39.05v.39h-.4l-41.24.24L.84 84H.08v-.77L0 42 .08.76V0h.76c13.75 0 27.49 0 41.24.13l41.24.25h.38v.38l-.38 37.18L82.94.76l.38.38-41.24.26c-13.75.1-27.49.1-41.24.13L1.6.76 1.68 42 1.6 83.25l-.76-.76 41.24.12 41.24.24-.4.4Z"/>
    <path d="M7.1 77.09a3.31 3.31 0 0 0 3.28 3.48A6.54 6.54 0 0 0 15 78.15a47.91 47.91 0 0 1 3.71-4.06 7 7 0 0 1 2.44-1.42 4.31 4.31 0 0 1 2.86.1A4.93 4.93 0 0 1 27 77.31a4.84 4.84 0 0 1-3.15 4.41 3.89 3.89 0 0 1-2.81 0 3.21 3.21 0 0 1-1.91-2 2.63 2.63 0 0 1 .64-2.72 1.85 1.85 0 0 1 2.53 0 1.78 1.78 0 0 0-2.43.1 2.43 2.43 0 0 0-.44 2.46 2.92 2.92 0 0 0 1.78 1.77 3.49 3.49 0 0 0 2.53 0 4.45 4.45 0 0 0 2.79-4 4.4 4.4 0 0 0-2.75-4 3.75 3.75 0 0 0-2.5-.11A6.47 6.47 0 0 0 19 74.48c-1.38 1.14-2.42 2.66-3.73 4a6.85 6.85 0 0 1-4.9 2.39 3.45 3.45 0 0 1-3.27-3.78"/>
    <path d="M9 76a12.76 12.76 0 0 0 5.88.24A6.65 6.65 0 0 0 17.53 75a5.15 5.15 0 0 0 1.63-2.3 4.56 4.56 0 0 0 .09-2.79 2.36 2.36 0 0 0-1.81-1.84 1.81 1.81 0 0 0-2.08 1.36 4.34 4.34 0 0 0 .52 2.84 4.26 4.26 0 0 1-.79-2.9 2.12 2.12 0 0 1 .85-1.37 2.25 2.25 0 0 1 1.56-.39 2.32 2.32 0 0 1 1.45.72 3.51 3.51 0 0 1 .78 1.4 5.08 5.08 0 0 1-.05 3.12 5.68 5.68 0 0 1-1.84 2.51A6.54 6.54 0 0 1 15 76.61 11.33 11.33 0 0 1 9 76M19.92 72.54a14.55 14.55 0 0 1 11.57-4.94 11.88 11.88 0 0 1 6.19 2A6.87 6.87 0 0 1 41 75.1a7 7 0 0 1-3.45 5.47 8.42 8.42 0 0 1-6.48.7 4.84 4.84 0 0 1-2.75-1.91 4.39 4.39 0 0 1-.48-3.36 4.68 4.68 0 0 1 5-3.66v.44a3.38 3.38 0 0 0-1.93.8 3.17 3.17 0 0 0-1.15 1.75 3.54 3.54 0 0 0 .14 2.12 3.37 3.37 0 0 0 1.39 1.61 3.82 3.82 0 0 0 4.17-.06 4.44 4.44 0 0 0 1.79-3.9 4.52 4.52 0 0 1-1.71 4 4 4 0 0 1-4.38.27 3.68 3.68 0 0 1-1.54-1.73 3.87 3.87 0 0 1-.19-2.32 3.56 3.56 0 0 1 1.24-2 3.8 3.8 0 0 1 2.17-.93v.44a4.24 4.24 0 0 0-4.49 3.33 3.88 3.88 0 0 0 .39 2.93 4.31 4.31 0 0 0 2.46 1.68 8.07 8.07 0 0 0 6-.65 6.47 6.47 0 0 0 3.22-5 6.43 6.43 0 0 0-3-5.15 11.48 11.48 0 0 0-5.94-2 14.63 14.63 0 0 0-11.55 4.6M20.63 69.82a29.57 29.57 0 0 0 8.45-5.56 32.25 32.25 0 0 0 6.27-7.9l.22.41a14.17 14.17 0 0 0-5.38.67 14.77 14.77 0 0 0-4.77 2.63 15.35 15.35 0 0 0-3.53 4.18 16.47 16.47 0 0 0-2 5.15 15.86 15.86 0 0 1 5.23-9.66 14.62 14.62 0 0 1 10.48-3.52h.44l-.22.38a31 31 0 0 1-6.47 7.94 27.06 27.06 0 0 1-8.73 5.25"/>
    <path d="M20.25 71.17a11.88 11.88 0 0 1 1.95-4.63 23.79 23.79 0 0 1 3.34-3.79 34.25 34.25 0 0 1 4-3.11 42.66 42.66 0 0 1 4.39-2.45c-.69.48-1.39.93-2.08 1.4a23.66 23.66 0 0 0-2.1 1.41 41.47 41.47 0 0 0-3.83 3.17 26.77 26.77 0 0 0-3.37 3.63 14.5 14.5 0 0 0-2.3 4.38M32.09 64.64a7.57 7.57 0 0 0 5.05 3.49 4.24 4.24 0 0 0 2.91-.67A3.73 3.73 0 0 0 41.66 65a3.39 3.39 0 0 0-.74-2.79 2.23 2.23 0 0 0-2.64-.58 1.87 1.87 0 0 0-.73 2.53 1.54 1.54 0 0 0 1.24.75 1.66 1.66 0 0 0 1.35-.69 1.67 1.67 0 0 1-1.35.83 1.75 1.75 0 0 1-1.47-.74 2.21 2.21 0 0 1 .75-3.06 2.64 2.64 0 0 1 3.22.61 3.91 3.91 0 0 1 .92 3.22 4.44 4.44 0 0 1-5.12 3.45 6.17 6.17 0 0 1-3-1.39 9.21 9.21 0 0 1-2-2.52M33.61 70.19a9.5 9.5 0 0 0-3.46 1.26 9 9 0 0 0-2.65 2.47l-.22.32-.19-.33a6.94 6.94 0 0 0-2.89-2.67l-.47-.24.45-.25a10.55 10.55 0 0 1 4.68-1.37 11.3 11.3 0 0 1 4.75.82m0 0a13.54 13.54 0 0 0-4.72-.42 11.15 11.15 0 0 0-4.44 1.45v-.48a7 7 0 0 1 3.09 2.91h-.42A8.29 8.29 0 0 1 30 71.15a8.2 8.2 0 0 1 3.62-1M76.61 77.81a2.68 2.68 0 0 0 2.39-1 3.77 3.77 0 0 0 .88-2.48 7.23 7.23 0 0 0-2.25-4.77 51 51 0 0 1-3.87-4A7.79 7.79 0 0 1 72.45 63a5 5 0 0 1 0-2.88 4.73 4.73 0 0 1 4.28-3.44 4.65 4.65 0 0 1 4.27 3.4 4.57 4.57 0 0 1 0 2.84A3.28 3.28 0 0 1 79.1 65a2.3 2.3 0 0 1-2.61-.69 2.12 2.12 0 0 1 .06-2.6 2.05 2.05 0 0 0 .05 2.52 2.1 2.1 0 0 0 2.41.52 3 3 0 0 0 1.64-1.94 4.17 4.17 0 0 0 0-2.59 4.25 4.25 0 0 0-3.86-3A4.21 4.21 0 0 0 73 60.3a5.41 5.41 0 0 0 1.18 4.92c1.07 1.45 2.54 2.59 3.78 4a7.55 7.55 0 0 1 2.2 5.06 4 4 0 0 1-1.06 2.57 2.75 2.75 0 0 1-2.49 1"/>
    <path d="M75.53 75.75a15.61 15.61 0 0 0 .26-6 8.24 8.24 0 0 0-1-2.74 5.06 5.06 0 0 0-2.09-1.91 3.83 3.83 0 0 0-2.7-.22 2.45 2.45 0 0 0-1.85 1.85A2 2 0 0 0 69.24 69a3.56 3.56 0 0 0 2.82-.52 3.55 3.55 0 0 1-2.9.78 2.32 2.32 0 0 1-1.46-2.63 2.84 2.84 0 0 1 2.13-2.26 4.37 4.37 0 0 1 3.14.24 5.6 5.6 0 0 1 2.28 2.15 7.8 7.8 0 0 1 1 2.94 13.45 13.45 0 0 1-.68 6M72.31 64.22a16.32 16.32 0 0 1-4.69-12 15 15 0 0 1 .43-3.29 11.71 11.71 0 0 1 1.19-3.12 9 9 0 0 1 2.12-2.6A5.3 5.3 0 0 1 74.5 42a5.23 5.23 0 0 1 3.21 1.11 7.82 7.82 0 0 1 2.21 2.56 8.54 8.54 0 0 1 .92 3.25 10.43 10.43 0 0 1-.22 3.35 5.45 5.45 0 0 1-1.67 3 3.64 3.64 0 0 1-3.32.64 4.37 4.37 0 0 1-2.72-2 5.15 5.15 0 0 1-.76-3.29h.44a3.82 3.82 0 0 0 .71 2 3 3 0 0 0 1.7 1.16 3 3 0 0 0 2-.16 3.38 3.38 0 0 0 1.5-1.51 4.47 4.47 0 0 0-.1-4.23 4 4 0 0 0-3.75-2 4.09 4.09 0 0 1 3.87 1.93 4.67 4.67 0 0 1 .23 4.43 3.67 3.67 0 0 1-1.61 1.67 3.3 3.3 0 0 1-2.32.23A3.39 3.39 0 0 1 73 52.75a4.22 4.22 0 0 1-.82-2.2h.44a4.46 4.46 0 0 0 3.16 4.78 3.12 3.12 0 0 0 2.88-.55 4.94 4.94 0 0 0 1.44-2.68 9.56 9.56 0 0 0-.66-6.22 7.28 7.28 0 0 0-2-2.39 4.71 4.71 0 0 0-2.88-1 4.81 4.81 0 0 0-2.85 1.15 8.74 8.74 0 0 0-2 2.45 11.28 11.28 0 0 0-1.2 3 14.51 14.51 0 0 0-.51 3.16 16.47 16.47 0 0 0 4.34 12M69.74 63.48a32 32 0 0 0-5.15-8.82A31.56 31.56 0 0 0 57 47.87l.42-.22a16.63 16.63 0 0 0 2.89 10.47 15.24 15.24 0 0 0 9 6.13 14.64 14.64 0 0 1-5.24-2A15.34 15.34 0 0 1 60 58.38a16.18 16.18 0 0 1-2.46-5.11 16.66 16.66 0 0 1-.62-5.65v-.47l.39.25a30.46 30.46 0 0 1 7.6 7 29.06 29.06 0 0 1 4.82 9.08"/>
    <path d="M71 63.88a10.93 10.93 0 0 1-4.52-2.2 24.32 24.32 0 0 1-3.57-3.59A36 36 0 0 1 60 53.95a46.69 46.69 0 0 1-2.23-4.52c.45.71.86 1.44 1.3 2.15s.82 1.45 1.3 2.14a43.8 43.8 0 0 0 2.94 4 27.36 27.36 0 0 0 3.41 3.61A13.07 13.07 0 0 0 71 63.88M64.85 51.33A8 8 0 0 0 68.13 46a5.07 5.07 0 0 0-.54-3 3.62 3.62 0 0 0-2.29-1.8 2.93 2.93 0 0 0-2.73.8 2.61 2.61 0 0 0-.57 2.75 1.65 1.65 0 0 0 2.43.78 1.7 1.7 0 0 0 .66-1.32 1.81 1.81 0 0 0-.64-1.4 1.8 1.8 0 0 1 .79 1.4 1.91 1.91 0 0 1-.64 1.54 1.75 1.75 0 0 1-1.68.32 2.19 2.19 0 0 1-1.32-1.13 3 3 0 0 1 .56-3.29 3.46 3.46 0 0 1 3.22-1A4.14 4.14 0 0 1 68 42.8a5.23 5.23 0 0 1 .52 3.3 6.93 6.93 0 0 1-1.28 3 9.08 9.08 0 0 1-2.41 2.19M70.1 49.72a11.07 11.07 0 0 0 1.16 3.61 9.19 9.19 0 0 0 2.37 2.88l.27.22-.29.19a7.06 7.06 0 0 0-2.52 3.07l-.24.54-.26-.52a12.1 12.1 0 0 1-1.29-5 13.21 13.21 0 0 1 .79-5m0 0a16.17 16.17 0 0 0-.39 5 12.9 12.9 0 0 0 1.37 4.74h-.49a7.17 7.17 0 0 1 2.75-3.27v.4a8.6 8.6 0 0 1-2.33-3.1 9.38 9.38 0 0 1-.86-3.76M7.55 77.81a2.75 2.75 0 0 1-2.49-1A4 4 0 0 1 4 74.28a7.55 7.55 0 0 1 2.2-5.06c1.24-1.4 2.71-2.54 3.78-4a5.41 5.41 0 0 0 1.18-4.92 4.21 4.21 0 0 0-3.75-3.09 4.25 4.25 0 0 0-3.86 3 4.17 4.17 0 0 0 0 2.59 3 3 0 0 0 1.64 1.94 2.1 2.1 0 0 0 2.41-.52 2.05 2.05 0 0 0 .05-2.52 2.12 2.12 0 0 1 .06 2.6 2.3 2.3 0 0 1-2.65.7 3.28 3.28 0 0 1-1.88-2.08 4.57 4.57 0 0 1 0-2.84 4.65 4.65 0 0 1 4.24-3.38 4.73 4.73 0 0 1 4.28 3.44 5 5 0 0 1 0 2.88 7.79 7.79 0 0 1-1.32 2.52 51 51 0 0 1-3.87 4 7.23 7.23 0 0 0-2.25 4.77 3.77 3.77 0 0 0 .88 2.48 2.68 2.68 0 0 0 2.39 1"/>
    <path d="M8.63 75.75a13.45 13.45 0 0 1-.69-6 7.8 7.8 0 0 1 1-2.94 5.6 5.6 0 0 1 2.28-2.15 4.37 4.37 0 0 1 3.14-.24 2.84 2.84 0 0 1 2.13 2.26 2.32 2.32 0 0 1-1.49 2.6 3.55 3.55 0 0 1-2.9-.78 3.56 3.56 0 0 0 2.81.52 2 2 0 0 0 1.09-2.3 2.45 2.45 0 0 0-1.85-1.85 3.83 3.83 0 0 0-2.75.26A5.06 5.06 0 0 0 9.35 67a8.24 8.24 0 0 0-1 2.74 15.61 15.61 0 0 0 .26 6M11.85 64.22a16.47 16.47 0 0 0 4.34-12 14.51 14.51 0 0 0-.48-3.22 11.28 11.28 0 0 0-1.2-3 8.74 8.74 0 0 0-2-2.45 4.81 4.81 0 0 0-2.84-1.15 4.71 4.71 0 0 0-2.88 1 7.28 7.28 0 0 0-2 2.39 9.56 9.56 0 0 0-.66 6.22 4.94 4.94 0 0 0 1.47 2.68 3.12 3.12 0 0 0 2.88.55 4.46 4.46 0 0 0 3.16-4.78h.44a4.22 4.22 0 0 1-.82 2.2 3.39 3.39 0 0 1-1.89 1.38A3.3 3.3 0 0 1 7 53.9a3.67 3.67 0 0 1-1.61-1.67 4.67 4.67 0 0 1 .23-4.43 4.09 4.09 0 0 1 3.87-1.93 4 4 0 0 0-3.75 2 4.47 4.47 0 0 0-.1 4.23 3.38 3.38 0 0 0 1.5 1.51 3 3 0 0 0 2.08.17 3 3 0 0 0 1.66-1.27 3.82 3.82 0 0 0 .71-2h.44a5.14 5.14 0 0 1-.76 3.29 4.36 4.36 0 0 1-2.72 2 3.64 3.64 0 0 1-3.32-.64 5.45 5.45 0 0 1-1.67-3 10.43 10.43 0 0 1-.22-3.35 8.54 8.54 0 0 1 .92-3.25A7.82 7.82 0 0 1 6.47 43a5.23 5.23 0 0 1 3.19-1 5.3 5.3 0 0 1 3.14 1.28 9 9 0 0 1 2.12 2.6A11.71 11.71 0 0 1 16.11 49a15 15 0 0 1 .43 3.29 16.32 16.32 0 0 1-4.69 12M14.42 63.48a29.06 29.06 0 0 1 4.82-9.08 30.46 30.46 0 0 1 7.6-7l.39-.25v.47a16.66 16.66 0 0 1-.62 5.65 16.18 16.18 0 0 1-2.46 5.11 15.34 15.34 0 0 1-4.13 3.86 14.64 14.64 0 0 1-5.24 2 15.24 15.24 0 0 0 9-6.13 16.63 16.63 0 0 0 2.89-10.47l.42.22a31.56 31.56 0 0 0-7.57 6.78 32 32 0 0 0-5.15 8.82"/>
    <path d="M13.14 63.88a13.07 13.07 0 0 0 4.25-2.53 27.36 27.36 0 0 0 3.41-3.61 43.8 43.8 0 0 0 2.94-4c.48-.69.89-1.41 1.3-2.14s.85-1.44 1.3-2.15a46.92 46.92 0 0 1-2.23 4.52 36 36 0 0 1-2.88 4.15 24.28 24.28 0 0 1-3.57 3.59 10.92 10.92 0 0 1-4.52 2.2M19.31 51.33a9.08 9.08 0 0 1-2.41-2.19 6.93 6.93 0 0 1-1.28-3 5.23 5.23 0 0 1 .52-3.3 4.14 4.14 0 0 1 2.61-2.14 3.46 3.46 0 0 1 3.23 1 3 3 0 0 1 .56 3.29 2.19 2.19 0 0 1-1.32 1.13 1.75 1.75 0 0 1-1.68-.32 1.91 1.91 0 0 1-.64-1.54 1.8 1.8 0 0 1 .79-1.4 1.81 1.81 0 0 0-.64 1.4 1.7 1.7 0 0 0 .66 1.32 1.65 1.65 0 0 0 2.43-.78 2.61 2.61 0 0 0-.55-2.8 2.93 2.93 0 0 0-2.73-.8 3.62 3.62 0 0 0-2.28 1.8 5.07 5.07 0 0 0-.58 3 8 8 0 0 0 3.27 5.29M14.07 49.72a9.38 9.38 0 0 1-.86 3.76 8.6 8.6 0 0 1-2.36 3.11v-.4a7.17 7.17 0 0 1 2.75 3.27h-.49a12.9 12.9 0 0 0 1.37-4.74 16.17 16.17 0 0 0-.39-5m0 0a13.21 13.21 0 0 1 .79 5 12.1 12.1 0 0 1-1.29 5l-.26.52-.24-.54a7.06 7.06 0 0 0-2.52-3.07l-.29-.19.27-.22a9.17 9.17 0 0 0 2.37-2.87 11 11 0 0 0 1.16-3.61M77.06 77.09a3.45 3.45 0 0 1-3.28 3.75 6.85 6.85 0 0 1-4.9-2.39c-1.31-1.31-2.35-2.83-3.73-4a6.47 6.47 0 0 0-2.27-1.29 3.75 3.75 0 0 0-2.5.11 4.4 4.4 0 0 0-2.75 4 4.45 4.45 0 0 0 2.79 4 3.49 3.49 0 0 0 2.53 0 2.92 2.92 0 0 0 1.78-1.77 2.43 2.43 0 0 0-.44-2.46 1.78 1.78 0 0 0-2.43-.1 1.85 1.85 0 0 1 2.53 0 2.63 2.63 0 0 1 .61 2.73 3.21 3.21 0 0 1-1.91 2 3.89 3.89 0 0 1-2.81 0 4.84 4.84 0 0 1-3.15-4.41 4.93 4.93 0 0 1 3.05-4.53 4.31 4.31 0 0 1 2.86-.1 7 7 0 0 1 2.44 1.42 47.91 47.91 0 0 1 3.71 4.06 6.54 6.54 0 0 0 4.58 2.42 3.31 3.31 0 0 0 3.29-3.48"/>
    <path d="M75.12 76a11.33 11.33 0 0 1-6 .66 6.54 6.54 0 0 1-2.83-1.22 5.68 5.68 0 0 1-1.84-2.51 5.08 5.08 0 0 1-.05-3.12 3.51 3.51 0 0 1 .78-1.4 2.32 2.32 0 0 1 1.45-.72 2.25 2.25 0 0 1 1.56.39 2.12 2.12 0 0 1 .84 1.34 4.26 4.26 0 0 1-.79 2.9 4.34 4.34 0 0 0 .52-2.84 1.81 1.81 0 0 0-2.08-1.36 2.36 2.36 0 0 0-1.81 1.84 4.56 4.56 0 0 0 .13 2.73A5.15 5.15 0 0 0 66.63 75a6.65 6.65 0 0 0 2.61 1.2 12.76 12.76 0 0 0 5.88-.2M64.24 72.54a14.63 14.63 0 0 0-11.55-4.6 11.48 11.48 0 0 0-5.94 2 6.43 6.43 0 0 0-3 5.15 6.47 6.47 0 0 0 3.22 5 8.07 8.07 0 0 0 6 .65 4.31 4.31 0 0 0 2.46-1.68 3.88 3.88 0 0 0 .39-2.93 4.24 4.24 0 0 0-4.49-3.33v-.44a3.8 3.8 0 0 1 2.17.93 3.56 3.56 0 0 1 1.24 2 3.87 3.87 0 0 1-.19 2.32A3.68 3.68 0 0 1 53 79.34a4 4 0 0 1-4.38-.27 4.52 4.52 0 0 1-1.71-4A4.44 4.44 0 0 0 48.7 79a3.82 3.82 0 0 0 4.15.15 3.37 3.37 0 0 0 1.38-1.61 3.54 3.54 0 0 0 .14-2.12 3.16 3.16 0 0 0-1.15-1.75 3.39 3.39 0 0 0-1.92-.8v-.44a4.68 4.68 0 0 1 5 3.66 4.39 4.39 0 0 1-.44 3.31 4.84 4.84 0 0 1-2.75 1.91 8.42 8.42 0 0 1-6.48-.7 7 7 0 0 1-3.45-5.47 6.87 6.87 0 0 1 3.27-5.55 11.88 11.88 0 0 1 6.19-2 14.55 14.55 0 0 1 11.57 4.94M63.54 69.82a27.06 27.06 0 0 1-8.73-5.25 31 31 0 0 1-6.47-7.94l-.22-.38h.44A14.62 14.62 0 0 1 59 59.73a15.86 15.86 0 0 1 5.23 9.66 16.47 16.47 0 0 0-2-5.15 15.35 15.35 0 0 0-3.53-4.18 14.77 14.77 0 0 0-4.7-2.62 14.17 14.17 0 0 0-5.38-.67l.22-.41a32.25 32.25 0 0 0 6.27 7.9 29.57 29.57 0 0 0 8.45 5.56"/>
    <path d="M63.91 71.17a14.5 14.5 0 0 0-2.3-4.38 26.77 26.77 0 0 0-3.37-3.63A41.47 41.47 0 0 0 54.41 60a23.66 23.66 0 0 0-2.06-1.41c-.69-.47-1.39-.91-2.08-1.4a42.66 42.66 0 0 1 4.39 2.45 34.25 34.25 0 0 1 4 3.11A23.79 23.79 0 0 1 62 66.54a11.88 11.88 0 0 1 1.95 4.63M52.07 64.64a9.21 9.21 0 0 1-2 2.52 6.18 6.18 0 0 1-3 1.39A4.44 4.44 0 0 1 42 65.1a3.91 3.91 0 0 1 .92-3.22 2.64 2.64 0 0 1 3.22-.61 2.21 2.21 0 0 1 .75 3.06 1.75 1.75 0 0 1-1.47.74 1.67 1.67 0 0 1-1.42-.83 1.66 1.66 0 0 0 1.35.69 1.54 1.54 0 0 0 1.24-.75 1.87 1.87 0 0 0-.73-2.53 2.23 2.23 0 0 0-2.64.58A3.39 3.39 0 0 0 42.5 65a3.73 3.73 0 0 0 1.61 2.44 4.24 4.24 0 0 0 2.91.67 7.57 7.57 0 0 0 5.05-3.49M50.55 70.19a8.2 8.2 0 0 1 3.62 1 8.29 8.29 0 0 1 2.89 2.47h-.42a7 7 0 0 1 3.09-2.91v.48a11.15 11.15 0 0 0-4.44-1.45 13.54 13.54 0 0 0-4.72.42m0 0a11.3 11.3 0 0 1 4.75-.82A10.55 10.55 0 0 1 60 70.74l.45.25-.47.23a6.94 6.94 0 0 0-2.89 2.67l-.19.33-.22-.32A9 9 0 0 0 54 71.45a9.5 9.5 0 0 0-3.46-1.26M7.1 6.92a3.45 3.45 0 0 1 3.28-3.75 6.85 6.85 0 0 1 4.9 2.39c1.31 1.31 2.35 2.82 3.73 4a6.47 6.47 0 0 0 2.27 1.29 3.75 3.75 0 0 0 2.5-.11 4.4 4.4 0 0 0 2.75-4 4.45 4.45 0 0 0-2.79-4 3.49 3.49 0 0 0-2.53 0 2.91 2.91 0 0 0-1.78 1.77 2.43 2.43 0 0 0 .44 2.46A1.78 1.78 0 0 0 22.3 7a1.85 1.85 0 0 1-2.53 0 2.63 2.63 0 0 1-.61-2.64 3.21 3.21 0 0 1 1.91-2 3.89 3.89 0 0 1 2.81 0A4.84 4.84 0 0 1 27 6.7a4.93 4.93 0 0 1-3 4.53 4.32 4.32 0 0 1-2.86.1 7 7 0 0 1-2.44-1.42A47.76 47.76 0 0 1 15 5.86a6.54 6.54 0 0 0-4.58-2.42A3.31 3.31 0 0 0 7.1 6.92"/>
    <path d="M9 8.06a11.33 11.33 0 0 1 6-.66 6.53 6.53 0 0 1 2.84 1.22 5.68 5.68 0 0 1 1.84 2.51 5.08 5.08 0 0 1 .05 3.12 3.51 3.51 0 0 1-.78 1.4 2.32 2.32 0 0 1-1.45.72 2.25 2.25 0 0 1-1.56-.37 2.12 2.12 0 0 1-.84-1.34 4.26 4.26 0 0 1 .79-2.89 4.34 4.34 0 0 0-.52 2.84 1.81 1.81 0 0 0 2.08 1.36 2.35 2.35 0 0 0 1.81-1.84 4.56 4.56 0 0 0-.09-2.79A5.14 5.14 0 0 0 17.53 9a6.65 6.65 0 0 0-2.61-1.2A12.76 12.76 0 0 0 9 8.06M19.92 11.47a14.63 14.63 0 0 0 11.55 4.6 11.49 11.49 0 0 0 5.94-2 6.43 6.43 0 0 0 3-5.15 6.47 6.47 0 0 0-3.22-5 8.08 8.08 0 0 0-6-.65 4.32 4.32 0 0 0-2.46 1.68 3.88 3.88 0 0 0-.39 2.93 4.24 4.24 0 0 0 4.49 3.33v.44a3.8 3.8 0 0 1-2.17-.93 3.56 3.56 0 0 1-1.24-2 3.87 3.87 0 0 1 .19-2.32 3.67 3.67 0 0 1 1.54-1.73 4 4 0 0 1 4.38.27 4.52 4.52 0 0 1 1.71 4 4.45 4.45 0 0 0-1.79-3.9 3.82 3.82 0 0 0-4.15-.15 3.37 3.37 0 0 0-1.39 1.61 3.54 3.54 0 0 0-.14 2.12 3.17 3.17 0 0 0 1.15 1.75 3.38 3.38 0 0 0 1.93.8v.44a4.68 4.68 0 0 1-5-3.67 4.39 4.39 0 0 1 .44-3.31A4.84 4.84 0 0 1 31 2.74a8.42 8.42 0 0 1 6.48.7A7 7 0 0 1 41 8.91a6.87 6.87 0 0 1-3.27 5.54 11.87 11.87 0 0 1-6.19 2 14.55 14.55 0 0 1-11.57-4.95M20.63 14.19a27 27 0 0 1 8.73 5.25 31 31 0 0 1 6.47 7.94l.22.38h-.44a14.62 14.62 0 0 1-10.48-3.51 15.86 15.86 0 0 1-5.23-9.66 16.47 16.47 0 0 0 2 5.15 15.35 15.35 0 0 0 3.53 4.18 14.75 14.75 0 0 0 4.77 2.63 14.18 14.18 0 0 0 5.38.67l-.22.41a32.26 32.26 0 0 0-6.27-7.9 29.57 29.57 0 0 0-8.45-5.56"/>
    <path d="M20.25 12.84a14.49 14.49 0 0 0 2.3 4.38 26.71 26.71 0 0 0 3.37 3.63A41.47 41.47 0 0 0 29.75 24a23.66 23.66 0 0 0 2.06 1.41c.69.46 1.39.91 2.08 1.4a42.66 42.66 0 0 1-4.39-2.45 34.36 34.36 0 0 1-4-3.11 23.83 23.83 0 0 1-3.34-3.79 11.88 11.88 0 0 1-1.95-4.63M32.09 19.37a9.21 9.21 0 0 1 2-2.52 6.17 6.17 0 0 1 3-1.39 4.44 4.44 0 0 1 5.12 3.45 3.91 3.91 0 0 1-.92 3.22 2.64 2.64 0 0 1-3.22.61 2.21 2.21 0 0 1-.75-3.06 1.75 1.75 0 0 1 1.47-.74 1.67 1.67 0 0 1 1.35.83 1.66 1.66 0 0 0-1.35-.69 1.54 1.54 0 0 0-1.24.75 1.87 1.87 0 0 0 .73 2.53 2.23 2.23 0 0 0 2.64-.58 3.39 3.39 0 0 0 .74-2.78 3.73 3.73 0 0 0-1.61-2.44 4.24 4.24 0 0 0-2.91-.67 7.57 7.57 0 0 0-5.05 3.49M33.61 13.82a8.2 8.2 0 0 1-3.62-1 8.29 8.29 0 0 1-2.89-2.47h.42a7 7 0 0 1-3.09 2.91v-.48a11.15 11.15 0 0 0 4.44 1.44 13.54 13.54 0 0 0 4.72-.42m0 0a11.32 11.32 0 0 1-4.75.83 10.55 10.55 0 0 1-4.68-1.37l-.43-.26.47-.23a6.93 6.93 0 0 0 2.89-2.67l.19-.33.22.32a9 9 0 0 0 2.65 2.47 9.5 9.5 0 0 0 3.46 1.25M76.61 6.2a2.74 2.74 0 0 1 2.49 1 4 4 0 0 1 1.06 2.57A7.55 7.55 0 0 1 78 14.79c-1.24 1.4-2.71 2.54-3.78 4A5.41 5.41 0 0 0 73 23.71a4.21 4.21 0 0 0 3.75 3.09 4.25 4.25 0 0 0 3.86-3 4.17 4.17 0 0 0 0-2.59A3 3 0 0 0 79 19.26a2.1 2.1 0 0 0-2.41.52 2.05 2.05 0 0 0-.05 2.52 2.12 2.12 0 0 1-.06-2.6 2.3 2.3 0 0 1 2.62-.7 3.28 3.28 0 0 1 1.9 2.09 4.57 4.57 0 0 1 0 2.84 4.65 4.65 0 0 1-4.28 3.38 4.73 4.73 0 0 1-4.28-3.43 5 5 0 0 1 0-2.88 7.78 7.78 0 0 1 1.32-2.52 51.12 51.12 0 0 1 3.87-4 7.23 7.23 0 0 0 2.25-4.77A3.77 3.77 0 0 0 79 7.25a2.68 2.68 0 0 0-2.39-1"/>
    <path d="M75.53 8.26a13.44 13.44 0 0 1 .68 6 7.8 7.8 0 0 1-1 2.94A5.6 5.6 0 0 1 73 19.37a4.37 4.37 0 0 1-3.14.24 2.84 2.84 0 0 1-2.13-2.26 2.32 2.32 0 0 1 1.46-2.63 3.55 3.55 0 0 1 2.9.78 3.55 3.55 0 0 0-2.85-.5 2 2 0 0 0-1.12 2.29A2.45 2.45 0 0 0 70 19.13a3.84 3.84 0 0 0 2.75-.26A5.06 5.06 0 0 0 74.81 17a8.25 8.25 0 0 0 1-2.75 15.61 15.61 0 0 0-.26-6M72.31 19.79a16.47 16.47 0 0 0-4.34 12 14.51 14.51 0 0 0 .48 3.21 11.3 11.3 0 0 0 1.2 3 8.75 8.75 0 0 0 2 2.45 4.8 4.8 0 0 0 2.85 1.15 4.71 4.71 0 0 0 2.88-1 7.29 7.29 0 0 0 2-2.39 9.56 9.56 0 0 0 .66-6.22 4.93 4.93 0 0 0-1.47-2.68 3.12 3.12 0 0 0-2.88-.55 4.47 4.47 0 0 0-3.16 4.78h-.44a4.22 4.22 0 0 1 .82-2.2 3.39 3.39 0 0 1 1.89-1.38 3.3 3.3 0 0 1 2.32.22 3.67 3.67 0 0 1 1.61 1.67 4.67 4.67 0 0 1-.23 4.43 4.09 4.09 0 0 1-3.87 1.93 4 4 0 0 0 3.75-2 4.47 4.47 0 0 0 .1-4.23A3.37 3.37 0 0 0 77 30.39a3 3 0 0 0-2-.16 3 3 0 0 0-1.66 1.27 3.83 3.83 0 0 0-.71 2h-.44a5.15 5.15 0 0 1 .76-3.29 4.37 4.37 0 0 1 2.72-2 3.64 3.64 0 0 1 3.32.64 5.45 5.45 0 0 1 1.67 3 10.44 10.44 0 0 1 .22 3.35 8.54 8.54 0 0 1-.92 3.25 7.81 7.81 0 0 1-2.21 2.56 5.22 5.22 0 0 1-3.21 1.11 5.3 5.3 0 0 1-3.14-1.27 9 9 0 0 1-2.12-2.6 11.71 11.71 0 0 1-1.19-3.12 14.94 14.94 0 0 1-.43-3.29 16.32 16.32 0 0 1 4.69-12M69.74 20.53a29.06 29.06 0 0 1-4.82 9.08 30.46 30.46 0 0 1-7.6 7l-.39.25v-.47a16.66 16.66 0 0 1 .62-5.65A16.19 16.19 0 0 1 60 25.63a15.35 15.35 0 0 1 4.13-3.86 14.64 14.64 0 0 1 5.24-2 15.24 15.24 0 0 0-9 6.13 16.63 16.63 0 0 0-2.89 10.47l-.48-.23a31.54 31.54 0 0 0 7.57-6.79 32 32 0 0 0 5.15-8.82"/>
    <path d="M71 20.13a13.05 13.05 0 0 0-4.25 2.53 27.36 27.36 0 0 0-3.41 3.61 43.8 43.8 0 0 0-2.94 4c-.48.68-.89 1.41-1.3 2.14s-.85 1.44-1.3 2.15a46.69 46.69 0 0 1 2.2-4.5 36 36 0 0 1 2.88-4.15 24.38 24.38 0 0 1 3.57-3.59A10.94 10.94 0 0 1 71 20.13M64.85 32.68a9.08 9.08 0 0 1 2.41 2.19 6.93 6.93 0 0 1 1.28 3 5.23 5.23 0 0 1-.52 3.3 4.15 4.15 0 0 1-2.61 2.14 3.46 3.46 0 0 1-3.22-1 3 3 0 0 1-.56-3.28A2.19 2.19 0 0 1 63 38a1.75 1.75 0 0 1 1.68.32 1.91 1.91 0 0 1 .64 1.54 1.81 1.81 0 0 1-.79 1.4 1.82 1.82 0 0 0 .64-1.4 1.7 1.7 0 0 0-.66-1.32 1.65 1.65 0 0 0-2.43.78 2.61 2.61 0 0 0 .49 2.68 2.93 2.93 0 0 0 2.73.8 3.62 3.62 0 0 0 2.28-1.8 5.07 5.07 0 0 0 .54-3 8 8 0 0 0-3.27-5.29M70.1 34.29a9.38 9.38 0 0 1 .9-3.76 8.59 8.59 0 0 1 2.36-3.12v.4a7.16 7.16 0 0 1-2.75-3.27h.49a12.89 12.89 0 0 0-1.37 4.74 16.17 16.17 0 0 0 .39 5m0 0a13.21 13.21 0 0 1-.79-5 12.1 12.1 0 0 1 1.29-5l.26-.52.24.54a7.05 7.05 0 0 0 2.52 3.07l.29.19-.27.22a9.19 9.19 0 0 0-2.37 2.88 11.07 11.07 0 0 0-1.16 3.61M7.55 6.2a2.68 2.68 0 0 0-2.39 1 3.77 3.77 0 0 0-.88 2.48 7.23 7.23 0 0 0 2.24 4.82 51.12 51.12 0 0 1 3.87 4 7.78 7.78 0 0 1 1.33 2.5 5 5 0 0 1 0 2.88 4.73 4.73 0 0 1-4.28 3.43 4.65 4.65 0 0 1-4.27-3.38 4.57 4.57 0 0 1 0-2.84A3.28 3.28 0 0 1 5.06 19a2.3 2.3 0 0 1 2.61.69 2.12 2.12 0 0 1-.06 2.6 2.05 2.05 0 0 0-.05-2.52 2.1 2.1 0 0 0-2.41-.52 3 3 0 0 0-1.64 1.95 4.17 4.17 0 0 0 0 2.59 4.25 4.25 0 0 0 3.86 3 4.21 4.21 0 0 0 3.75-3.09A5.41 5.41 0 0 0 10 18.78c-1.07-1.45-2.54-2.59-3.78-4A7.55 7.55 0 0 1 4 9.73a4 4 0 0 1 1.06-2.57 2.74 2.74 0 0 1 2.49-1"/>
    <path d="M8.63 8.26a15.61 15.61 0 0 0-.26 6 8.25 8.25 0 0 0 1 2.75 5.06 5.06 0 0 0 2.09 1.91 3.84 3.84 0 0 0 2.75.26 2.45 2.45 0 0 0 1.79-1.9A2 2 0 0 0 14.92 15a3.55 3.55 0 0 0-2.81.52 3.55 3.55 0 0 1 2.9-.78 2.32 2.32 0 0 1 1.46 2.63 2.84 2.84 0 0 1-2.13 2.26 4.37 4.37 0 0 1-3.14-.24 5.6 5.6 0 0 1-2.28-2.15 7.8 7.8 0 0 1-1-2.94 13.44 13.44 0 0 1 .69-6M11.85 19.79a16.32 16.32 0 0 1 4.69 12 14.94 14.94 0 0 1-.43 3.29 11.71 11.71 0 0 1-1.19 3.12 9 9 0 0 1-2.12 2.6 5.3 5.3 0 0 1-3.14 1.27 5.22 5.22 0 0 1-3.21-1.11 7.81 7.81 0 0 1-2.21-2.56 8.54 8.54 0 0 1-.92-3.25 10.44 10.44 0 0 1 .22-3.35 5.45 5.45 0 0 1 1.67-3 3.64 3.64 0 0 1 3.32-.64 4.36 4.36 0 0 1 2.72 2A5.14 5.14 0 0 1 12 33.5h-.44a3.83 3.83 0 0 0-.71-2 3 3 0 0 0-1.66-1.27 3 3 0 0 0-2.08.17 3.37 3.37 0 0 0-1.5 1.51 4.47 4.47 0 0 0 .1 4.23 4 4 0 0 0 3.75 2 4.09 4.09 0 0 1-3.85-1.94 4.67 4.67 0 0 1-.23-4.43A3.67 3.67 0 0 1 7 30.11a3.3 3.3 0 0 1 2.32-.22 3.39 3.39 0 0 1 1.89 1.38 4.22 4.22 0 0 1 .82 2.2h-.44a4.47 4.47 0 0 0-3.16-4.78 3.12 3.12 0 0 0-2.88.55 4.93 4.93 0 0 0-1.47 2.68 9.56 9.56 0 0 0 .66 6.22 7.29 7.29 0 0 0 2 2.39 4.71 4.71 0 0 0 2.88 1 4.8 4.8 0 0 0 2.84-1.15 8.75 8.75 0 0 0 2-2.45 11.3 11.3 0 0 0 1.2-3 14.51 14.51 0 0 0 .47-3.21 16.47 16.47 0 0 0-4.34-12M14.42 20.53a32 32 0 0 0 5.15 8.82 31.54 31.54 0 0 0 7.57 6.79l-.42.22a16.63 16.63 0 0 0-2.89-10.47 15.24 15.24 0 0 0-9-6.13 14.64 14.64 0 0 1 5.24 2 15.35 15.35 0 0 1 4.13 3.86 16.19 16.19 0 0 1 2.46 5.11 16.66 16.66 0 0 1 .62 5.65v.47l-.39-.25a30.46 30.46 0 0 1-7.6-7 29.06 29.06 0 0 1-4.82-9.08"/>
    <path d="M13.14 20.13a10.93 10.93 0 0 1 4.52 2.2 24.34 24.34 0 0 1 3.57 3.59 36 36 0 0 1 2.88 4.15 46.92 46.92 0 0 1 2.23 4.52c-.45-.71-.86-1.44-1.3-2.15s-.82-1.45-1.3-2.14a43.8 43.8 0 0 0-2.94-4 27.36 27.36 0 0 0-3.41-3.61 13.05 13.05 0 0 0-4.25-2.53M19.31 32.68A8 8 0 0 0 16 38a5.07 5.07 0 0 0 .54 3 3.62 3.62 0 0 0 2.29 1.84 2.93 2.93 0 0 0 2.73-.8 2.61 2.61 0 0 0 .54-2.75 1.65 1.65 0 0 0-2.43-.78A1.7 1.7 0 0 0 19 39.8a1.82 1.82 0 0 0 .64 1.4 1.81 1.81 0 0 1-.79-1.4 1.91 1.91 0 0 1 .64-1.54 1.75 1.75 0 0 1 1.72-.26 2.19 2.19 0 0 1 1.32 1.13 3 3 0 0 1-.53 3.23 3.46 3.46 0 0 1-3.23 1 4.15 4.15 0 0 1-2.61-2.14 5.23 5.23 0 0 1-.52-3.3 6.93 6.93 0 0 1 1.28-3 9.08 9.08 0 0 1 2.41-2.19M14.07 34.29a11 11 0 0 0-1.16-3.61 9.17 9.17 0 0 0-2.37-2.87l-.27-.22.29-.19a7.05 7.05 0 0 0 2.52-3.07l.24-.54.26.52a12.1 12.1 0 0 1 1.29 5 13.21 13.21 0 0 1-.79 5m0 0a16.17 16.17 0 0 0 .39-5 12.89 12.89 0 0 0-1.37-4.74h.49a7.16 7.16 0 0 1-2.75 3.27v-.4a8.59 8.59 0 0 1 2.36 3.12 9.38 9.38 0 0 1 .86 3.76M77.06 6.92a3.31 3.31 0 0 0-3.29-3.48 6.54 6.54 0 0 0-4.58 2.42 47.76 47.76 0 0 1-3.71 4.06A7 7 0 0 1 63 11.33a4.32 4.32 0 0 1-2.86-.1 4.93 4.93 0 0 1-3.02-4.53 4.84 4.84 0 0 1 3.15-4.42 3.89 3.89 0 0 1 2.81 0 3.21 3.21 0 0 1 1.91 2 2.63 2.63 0 0 1-.6 2.72 1.85 1.85 0 0 1-2.53 0 1.78 1.78 0 0 0 2.43-.1 2.43 2.43 0 0 0 .44-2.46A2.91 2.91 0 0 0 63 2.65a3.49 3.49 0 0 0-2.53 0 4.45 4.45 0 0 0-2.79 4 4.4 4.4 0 0 0 2.75 4 3.75 3.75 0 0 0 2.5.11 6.47 6.47 0 0 0 2.27-1.29c1.38-1.14 2.42-2.66 3.73-4a6.85 6.85 0 0 1 4.9-2.39 3.45 3.45 0 0 1 3.28 3.75"/>
    <path d="M75.12 8.06a12.76 12.76 0 0 0-5.88-.24A6.65 6.65 0 0 0 66.63 9 5.14 5.14 0 0 0 65 11.32a4.56 4.56 0 0 0-.09 2.79 2.35 2.35 0 0 0 1.81 1.84 1.81 1.81 0 0 0 2.08-1.36 4.34 4.34 0 0 0-.52-2.84 4.26 4.26 0 0 1 .79 2.89 2.12 2.12 0 0 1-.85 1.36 2.25 2.25 0 0 1-1.56.39 2.32 2.32 0 0 1-1.45-.72 3.51 3.51 0 0 1-.78-1.4 5.08 5.08 0 0 1 .05-3.12 5.68 5.68 0 0 1 1.84-2.51 6.53 6.53 0 0 1 2.83-1.24 11.33 11.33 0 0 1 6 .66M64.24 11.47a14.55 14.55 0 0 1-11.57 4.95 11.87 11.87 0 0 1-6.19-2 6.87 6.87 0 0 1-3.27-5.54 7 7 0 0 1 3.45-5.47 8.42 8.42 0 0 1 6.48-.7 4.84 4.84 0 0 1 2.75 1.91A4.39 4.39 0 0 1 56.32 8a4.68 4.68 0 0 1-5 3.67v-.44a3.39 3.39 0 0 0 1.92-.8 3.16 3.16 0 0 0 1.15-1.75 3.54 3.54 0 0 0-.14-2.12 3.37 3.37 0 0 0-1.38-1.61 3.82 3.82 0 0 0-4.15.15A4.45 4.45 0 0 0 46.91 9a4.52 4.52 0 0 1 1.71-4A4 4 0 0 1 53 4.67a3.67 3.67 0 0 1 1.54 1.73 3.87 3.87 0 0 1 .19 2.32 3.56 3.56 0 0 1-1.24 2 3.8 3.8 0 0 1-2.17.93v-.44a4.24 4.24 0 0 0 4.49-3.33 3.88 3.88 0 0 0-.39-2.93A4.32 4.32 0 0 0 53 3.26a8.08 8.08 0 0 0-6 .65 6.47 6.47 0 0 0-3.22 5 6.43 6.43 0 0 0 3 5.15 11.49 11.49 0 0 0 5.94 2 14.63 14.63 0 0 0 11.55-4.6M63.54 14.19a29.57 29.57 0 0 0-8.45 5.56 32.26 32.26 0 0 0-6.27 7.9l-.22-.41a14.18 14.18 0 0 0 5.4-.67 14.75 14.75 0 0 0 4.76-2.63 15.35 15.35 0 0 0 3.53-4.18 16.47 16.47 0 0 0 2-5.15A15.86 15.86 0 0 1 59 24.28a14.62 14.62 0 0 1-10.47 3.51h-.44l.22-.38a31 31 0 0 1 6.47-7.94 27 27 0 0 1 8.73-5.25"/>
    <path d="M63.91 12.84A11.88 11.88 0 0 1 62 17.47a23.83 23.83 0 0 1-3.34 3.79 34.36 34.36 0 0 1-4 3.11 42.66 42.66 0 0 1-4.39 2.45c.69-.48 1.39-.93 2.08-1.4A23.66 23.66 0 0 0 54.41 24a41.47 41.47 0 0 0 3.83-3.17 26.71 26.71 0 0 0 3.37-3.63 14.49 14.49 0 0 0 2.3-4.38M52.07 19.37A7.57 7.57 0 0 0 47 15.88a4.24 4.24 0 0 0-2.91.67A3.73 3.73 0 0 0 42.5 19a3.39 3.39 0 0 0 .74 2.79 2.23 2.23 0 0 0 2.64.58 1.87 1.87 0 0 0 .73-2.53 1.54 1.54 0 0 0-1.24-.75 1.66 1.66 0 0 0-1.35.69 1.67 1.67 0 0 1 1.35-.83 1.75 1.75 0 0 1 1.47.74 2.21 2.21 0 0 1-.75 3.06 2.64 2.64 0 0 1-3.22-.61 3.91 3.91 0 0 1-.87-3.23 4.44 4.44 0 0 1 5.12-3.45 6.18 6.18 0 0 1 3 1.39 9.21 9.21 0 0 1 2 2.52M50.55 13.82A9.5 9.5 0 0 0 54 12.56a9 9 0 0 0 2.65-2.47l.22-.32.19.33A6.93 6.93 0 0 0 60 12.79l.47.23-.45.25a10.55 10.55 0 0 1-4.68 1.38 11.32 11.32 0 0 1-4.75-.83m0 0a13.54 13.54 0 0 0 4.72.42 11.15 11.15 0 0 0 4.44-1.44v.48a7 7 0 0 1-3.09-2.91h.42a8.29 8.29 0 0 1-2.89 2.47 8.2 8.2 0 0 1-3.62 1"/>
  </g>
  <path fill="#868686" d="M42 32.31v.38l-1.74.15v16.64h7l.5-4 .48.13-.43 4.39H36.92v-.35l1.31-.18q.25 0 .3-.33v-16q-.05-.3-.3-.33l-1.31-.13v-.38Z"/>
  <g fill="#868686" clip-path="url(#a)">
    <path d="M4.8 89.65v-.07h1.3a2 2 0 0 1 1.12.26 1.12 1.12 0 0 1 .37 1 1.36 1.36 0 0 1-.38 1.06 1.61 1.61 0 0 1-1.11.34h-.48v1.56h.43v.09H4.81a.48.48 0 0 1 0-.09h.32a.09.09 0 0 0 .07-.06v-3.97a.09.09 0 0 0-.07-.06H4.8Zm1.26 0h-.44v2.45h.44a1.08 1.08 0 0 0 .83-.3 1.44 1.44 0 0 0 .27-1 1.22 1.22 0 0 0-.27-.93 1.24 1.24 0 0 0-.82-.2ZM9.66 89.67v-.09h1.5a1.53 1.53 0 0 1 1 .28 1 1 0 0 1 .34.83 1.3 1.3 0 0 1-.27.75 1.46 1.46 0 0 1-.51.5l1.14 1.85h.3v.09h-.67L11.3 92h-.82v1.77h.43v.09H9.66v-.09h.32a.09.09 0 0 0 .07-.06v-3.94a.08.08 0 0 0-.07-.06Zm1.47 0h-.66v2.24h1.05a2.32 2.32 0 0 0 .43-.64 1.48 1.48 0 0 0 .11-.54 1.13 1.13 0 0 0-.24-.78.89.89 0 0 0-.68-.28ZM15.09 89.67v-.09h2.64l.08.87h-.12l-.1-.81h-1.68v2h1.47a.06.06 0 0 0 .06 0 .07.07 0 0 0 0-.06v-.42h.1v1.05h-.04v-.43h-1.59v2h1.84l.12-1h.12l-.09 1.08h-2.8v-.09h.32s.07 0 .07-.08v-3.9s0-.08-.07-.08ZM19.92 89.67v-.09h.81l1.47 3.12 1.45-3.12h.81-.33s-.07 0-.07.08v4h.46v.09h-1.23v-.09h.32a.08.08 0 0 0 .07-.07V89.8l-1.41 3-.12.25H22l-1.56-3.29v4h.7v.09h-1.22v-.09h.32s.07 0 .07-.08v-3.9s0-.08-.07-.08ZM26.6 93.9v-.09h.32s.07 0 .07-.08v-3.9c0-.05 0-.08-.07-.09h-.32v-.09h1.24v.09h-.42v4.07h.42v.09ZM31.23 89.58v.09h-.42V92a2 2 0 0 0 .38 1.42 1 1 0 0 0 .36.24 1.32 1.32 0 0 0 .43.06 1.44 1.44 0 0 0 .45-.07 1.08 1.08 0 0 0 .39-.25 1.89 1.89 0 0 0 .43-1.4v-2.2c0-.05 0-.08-.07-.09h-.44a.59.59 0 0 1 0-.09h1.16v.09l-.51.06V92q0 1.87-1.4 1.87a2.25 2.25 0 0 1-.59-.07 1.4 1.4 0 0 1-.5-.26 1.88 1.88 0 0 1-.5-1.54v-2.21s0-.08-.07-.08h-.32a.53.53 0 0 1 0-.09ZM36 89.67v-.09h.81l1.47 3.12 1.45-3.12h.81-.33s-.07 0-.07.08v4h.46v.09h-1.27v-.09h.32a.08.08 0 0 0 .07-.07V89.8l-1.41 3-.12.25h-.14l-1.55-3.26v4h.7v.09H36v-.09h.32s.07 0 .07-.08v-3.9s0-.08-.07-.08ZM46 89.65v-.07h1.28a2 2 0 0 1 1.12.26 1.12 1.12 0 0 1 .37 1 1.36 1.36 0 0 1-.38 1.06 1.61 1.61 0 0 1-1.11.34h-.47v1.56h.42v.09H46a.48.48 0 0 1 0-.09h.32a.09.09 0 0 0 .07-.06v-3.97a.09.09 0 0 0-.07-.06h-.33Zm1.26 0h-.44v2.45h.44a1.08 1.08 0 0 0 .83-.3 1.44 1.44 0 0 0 .27-1 1.22 1.22 0 0 0-.27-.93 1.24 1.24 0 0 0-.81-.2ZM50.88 89.67v-.09h1.5a1.53 1.53 0 0 1 1 .28 1 1 0 0 1 .34.83 1.3 1.3 0 0 1-.27.75 1.45 1.45 0 0 1-.51.5l1.14 1.85h.3v.09h-.67L52.51 92h-.82v1.77h.43v.09h-1.24v-.09h.32a.09.09 0 0 0 .07-.06v-3.94a.08.08 0 0 0-.07-.06Zm1.47 0h-.66v2.24h1.05a2.32 2.32 0 0 0 .43-.64 1.47 1.47 0 0 0 .11-.54 1.13 1.13 0 0 0-.24-.78.89.89 0 0 0-.69-.28ZM56.28 91.75a2.4 2.4 0 0 1 .52-1.62 1.64 1.64 0 0 1 1.3-.6q1.82 0 1.82 2.22a2.36 2.36 0 0 1-.52 1.61 1.66 1.66 0 0 1-1.3.59q-1.82 0-1.82-2.2Zm.42 0q0 2.09 1.4 2.09a1.19 1.19 0 0 0 1-.55 2.6 2.6 0 0 0 .4-1.54q0-2.09-1.4-2.09a1.19 1.19 0 0 0-1 .56 2.58 2.58 0 0 0-.4 1.51ZM62 89.67v-.09h1.5a1.84 1.84 0 0 1 1.33.48 2.11 2.11 0 0 1 .5 1.57 3 3 0 0 1-.33 1.62 1.4 1.4 0 0 1-1 .59 4.16 4.16 0 0 1-.68 0H62v-.09h.32s.07 0 .07-.08v-3.9c0-.05 0-.08-.07-.09Zm1.48 0h-.68v4.13h.5a3.18 3.18 0 0 0 .5 0 1.32 1.32 0 0 0 .43-.16.93.93 0 0 0 .35-.35 3.16 3.16 0 0 0 .31-1.59 2.26 2.26 0 0 0-.44-1.57 1.33 1.33 0 0 0-.99-.46ZM68.65 89.58v.09h-.42V92a2 2 0 0 0 .38 1.42 1 1 0 0 0 .36.24 1.32 1.32 0 0 0 .43.06 1.44 1.44 0 0 0 .45-.07 1.08 1.08 0 0 0 .39-.25 1.89 1.89 0 0 0 .43-1.4v-2.2c0-.05 0-.08-.07-.09h-.44a.59.59 0 0 1 0-.09h1.17v.09l-.51.06V92q0 1.87-1.4 1.87a2.25 2.25 0 0 1-.59-.07 1.4 1.4 0 0 1-.5-.26 1.88 1.88 0 0 1-.5-1.54v-2.21s0-.08-.07-.08h-.32a.59.59 0 0 1 0-.09ZM75.32 89.66a1.28 1.28 0 0 0-1.1.58 2.9 2.9 0 0 0-.41 1.68q0 1.33.61 1.72a1.08 1.08 0 0 0 .34.15 1.66 1.66 0 0 0 .35 0 5.87 5.87 0 0 0 1.28-.15v.09a3.75 3.75 0 0 1-.56.1 6 6 0 0 1-.74.06 2.61 2.61 0 0 1-.49 0 1.51 1.51 0 0 1-.44-.17 1.26 1.26 0 0 1-.4-.34 1.8 1.8 0 0 1-.27-.58 3 3 0 0 1-.11-.86 2.61 2.61 0 0 1 .5-1.7 1.74 1.74 0 0 1 1.43-.64 3.74 3.74 0 0 1 .6.05 2.91 2.91 0 0 1 .46.1l.07.89h-.12l-.07-.64a1.7 1.7 0 0 0-.93-.34ZM79.72 89.7h-1.06l-.1.81h-.12l.06-.76v-.12h2.81l.08.89h-.12l-.1-.81H80.1v4.07h.45v.09h-1.23a.39.39 0 0 1 0-.09h.32s.07 0 .07-.08Z"/>
  </g>
</svg>
