<svg xmlns="http://www.w3.org/2000/svg" width="52.78" height="52.48">
  <defs>
    <clipPath id="a">
      <path fill="none" d="M0 0h52.78v52.48H0z"/>
    </clipPath>
  </defs>
  <g fill="#868686" clip-path="url(#a)">
    <path d="M2.64 50.12a1.51 1.51 0 0 0 .36-.17 1 1 0 0 0 .24-.23.85.85 0 0 0 .14-.27 1 1 0 0 0 0-.3 1.3 1.3 0 0 0-.1-.51.92.92 0 0 0-.28-.38 1.5 1.5 0 0 0-.52-.26 3.15 3.15 0 0 0-.8-.09H0v4.55h1.82a2.3 2.3 0 0 0 .73-.11 1.54 1.54 0 0 0 .54-.29 1.24 1.24 0 0 0 .33-.44 1.31 1.31 0 0 0 .11-.54.91.91 0 0 0-.21-.63 1.25 1.25 0 0 0-.67-.36m-1.59-1.4h.62a1.53 1.53 0 0 1 .31 0 .55.55 0 0 1 .21.09.39.39 0 0 1 .13.17.77.77 0 0 1 0 .27.63.63 0 0 1-.05.28.41.41 0 0 1-.15.17.67.67 0 0 1-.24.09H1.06Zm1.4 2.58a.46.46 0 0 1-.1.19.54.54 0 0 1-.21.14.91.91 0 0 1-.34.05h-.75v-1.1h.74a1.23 1.23 0 0 1 .33 0 .56.56 0 0 1 .21.11.36.36 0 0 1 .11.17.68.68 0 0 1 0 .22.82.82 0 0 1 0 .21M7.94 50.71a1.12 1.12 0 0 0-.2-.13 1.52 1.52 0 0 0 .39-.21 1.4 1.4 0 0 0 .29-.3 1.27 1.27 0 0 0 .18-.36 1.43 1.43 0 0 0 .06-.42 1.42 1.42 0 0 0-.1-.54 1.08 1.08 0 0 0-.32-.43 1.59 1.59 0 0 0-.57-.32 3 3 0 0 0-.84-.1H5.35v4.55H6.4V50.8h.27a.39.39 0 0 1 .19 0A.33.33 0 0 1 7 51l.75 1.32a.41.41 0 0 0 .38.2h1l-1-1.58a.8.8 0 0 0-.16-.19m-.36-1.07a.58.58 0 0 1-.14.23.67.67 0 0 1-.25.15 1.07 1.07 0 0 1-.37.06H6.4v-1.4h.43a.91.91 0 0 1 .6.17.59.59 0 0 1 .19.47.85.85 0 0 1 0 .28M12.14 47.93l-1.76 4.55h.82a.35.35 0 0 0 .22-.07.36.36 0 0 0 .12-.16l.27-.79h1.73l.27.79a.33.33 0 0 0 .12.16.38.38 0 0 0 .23.06H15l-1.76-4.55Zm-.08 2.81.42-1.24c0-.08.07-.17.1-.28s.07-.23.1-.35c0 .13.07.24.11.35l.1.28.42 1.25ZM19.65 50.34v.48l-2.16-2.73-.06-.09H16.6v4.55h.93V49.56l2.15 2.71a.44.44 0 0 0 .16.14.49.49 0 0 0 .21 0h.55v-4.48h-.93ZM26.05 48.58a2.23 2.23 0 0 0-.75-.48 2.63 2.63 0 0 0-1-.17h-1.72v4.55h1.77a2.65 2.65 0 0 0 1-.17 2.18 2.18 0 0 0 .75-.47 2.14 2.14 0 0 0 .48-.72 2.52 2.52 0 0 0 0-1.82 2.09 2.09 0 0 0-.48-.72m-.52 2.24a1.31 1.31 0 0 1-.25.46 1.09 1.09 0 0 1-.4.29 1.38 1.38 0 0 1-.54.1h-.7v-2.93h.7a1.38 1.38 0 0 1 .54.1 1.09 1.09 0 0 1 .4.29 1.31 1.31 0 0 1 .25.46 2.19 2.19 0 0 1 0 1.22M34 50.34v.48l-2.16-2.73-.1-.09H30.92v4.55h.93V49.56L34 52.31a.43.43 0 0 0 .16.14.49.49 0 0 0 .21 0h.55v-4.52H34ZM38.28 47.93l-1.76 4.55h.83a.36.36 0 0 0 .34-.23l.27-.79h1.73l.27.79a.34.34 0 0 0 .12.16.38.38 0 0 0 .23.06h.82l-1.76-4.55Zm-.08 2.81.42-1.24c0-.08.06-.17.1-.28s.07-.23.1-.35c0 .13.07.24.11.35l.1.28.42 1.25ZM46.93 47.93h-.16a.4.4 0 0 0-.06.09l-1.17 2.3-.12.25-.11.27-.11-.26-.12-.25-1.18-2.24-.07-.09h-1.09v4.55h.93V49.44l1.21 2.34A.39.39 0 0 0 45 52a.42.42 0 0 0 .22.06h.14a.42.42 0 0 0 .22-.06.39.39 0 0 0 .15-.16l1.21-2.34V52.53h.93v-4.6h-.93ZM52.78 48.74v-.81h-2.93v4.55h2.93v-.81h-1.86v-1.09h1.43v-.78h-1.43v-1.06h1.86zM46.61 35.18l-6.92-12L45.56 13a1.21 1.21 0 0 0-1-1.81H32.77L26.29 0l-6.48 11.22H8.07A1.21 1.21 0 0 0 7 13l5.9 10.2L6 35.18h13.81l5.44 9.42a1.21 1.21 0 0 0 2.09 0l5.44-9.42Zm-3-22.25-4.9 8.57-4.95-8.57ZM32.16 32.84H21.35l-3.59-6.22L23.32 17l9 15.58ZM22.5 15.57l-5.56 9.63-1.15-2 5.56-9.63ZM8.93 12.93h9.9l-4.95 8.57ZM26.29 43l-4.51-7.82h9Z"/>
  </g>
</svg>
