<svg xmlns="http://www.w3.org/2000/svg" width="36" height="36" fill="none">
  <circle cx="18" cy="18" r="18" fill="#fff" fill-opacity=".1"/>
  <g clip-path="url(#a)">
    <path fill="#fff" fill-opacity=".9" d="M17.5 15.5h3.75l-.417 1.667H17.5v7.5h-1.667v-7.5H12.5V15.5h3.333v-1.56c0-1.486.155-2.025.445-2.568a3.03 3.03 0 0 1 1.26-1.26c.544-.29 1.083-.445 2.569-.445.435 0 .816.041 1.143.125v1.541h-1.143c-1.104 0-1.44.065-1.782.249a1.357 1.357 0 0 0-.577.576c-.183.343-.248.679-.248 1.782v1.56Z"/>
  </g>
  <defs>
    <clipPath id="a">
      <path fill="#fff" d="M8 8h20v20H8z"/>
    </clipPath>
  </defs>
</svg>
