<svg xmlns="http://www.w3.org/2000/svg" width="36" height="36" fill="none">
  <circle cx="18" cy="18" r="18" fill="#fff" fill-opacity=".1"/>
  <g clip-path="url(#a)">
    <path fill="#fff" fill-opacity=".9" d="M18.001 15.5a2.5 2.5 0 1 0 0 5 2.5 2.5 0 0 0 0-5Zm0-1.667a4.167 4.167 0 1 1 0 8.334 4.167 4.167 0 0 1 0-8.334Zm5.417-.208a1.042 1.042 0 1 1-2.083 0 1.042 1.042 0 0 1 2.083 0Zm-5.417-2.292c-2.061 0-2.398.006-3.357.049-.653.03-1.092.118-1.498.276-.362.14-.623.308-.9.586-.261.252-.462.56-.587.9-.159.409-.246.846-.276 1.498-.043.92-.048 1.242-.048 3.358 0 2.062.005 2.398.048 3.358.03.652.118 1.091.276 1.497.141.363.308.623.585.9.28.28.542.448.9.586.412.159.85.247 1.5.277.92.044 1.242.049 3.357.049 2.062 0 2.399-.006 3.358-.049.651-.03 1.09-.118 1.497-.275.361-.141.624-.309.9-.585.281-.281.449-.542.587-.9.158-.411.247-.85.277-1.5.043-.92.048-1.242.048-3.358 0-2.062-.006-2.398-.048-3.357-.031-.652-.119-1.092-.277-1.499a2.426 2.426 0 0 0-.586-.9 2.403 2.403 0 0 0-.9-.586c-.408-.159-.846-.246-1.498-.276-.92-.044-1.242-.049-3.358-.049Zm0-1.666c2.264 0 2.547.008 3.435.05.888.041 1.492.18 2.024.387.55.212 1.013.498 1.476.961.424.417.752.92.961 1.477.206.53.346 1.136.388 2.023.039.888.05 1.17.05 3.435 0 2.264-.009 2.547-.05 3.435-.042.888-.182 1.492-.388 2.023a4.069 4.069 0 0 1-.96 1.477c-.417.424-.921.751-1.477.96-.531.207-1.136.347-2.024.388-.888.04-1.17.05-3.435.05-2.264 0-2.546-.008-3.435-.05-.887-.041-1.491-.181-2.023-.387a4.076 4.076 0 0 1-1.477-.961 4.088 4.088 0 0 1-.96-1.477c-.207-.53-.346-1.135-.388-2.023-.04-.888-.05-1.17-.05-3.435 0-2.264.008-2.547.05-3.435.042-.888.18-1.492.387-2.023.209-.557.537-1.06.961-1.477.417-.424.92-.752 1.477-.96.532-.208 1.135-.347 2.023-.388.889-.04 1.171-.05 3.435-.05Z"/>
  </g>
  <defs>
    <clipPath id="a">
      <path fill="#fff" d="M8 8h20v20H8z"/>
    </clipPath>
  </defs>
</svg>
