<svg xmlns="http://www.w3.org/2000/svg" width="36" height="36" fill="none">
  <circle cx="18" cy="18" r="18" fill="#fff" fill-opacity=".1"/>
  <g clip-path="url(#a)">
    <path fill="#fff" fill-opacity=".9" d="M20.752 12.625a2.417 2.417 0 0 0-2.417 2.372l-.023 1.313a.502.502 0 0 1-.567.486l-1.3-.177c-1.713-.233-3.353-1.022-4.926-2.332-.498 2.758.475 4.669 2.82 6.143l1.455.915a.5.5 0 0 1 .028.827l-1.326.97c.789.049 1.538.014 2.16-.11 3.931-.785 6.546-3.743 6.546-8.623 0-.398-.844-1.784-2.45-1.784Zm-4.084 2.342a4.084 4.084 0 0 1 6.988-2.796c.592-.004 1.096.146 2.224-.538-.28 1.367-.417 1.96-1.012 2.776 0 6.368-3.914 9.465-7.886 10.258-2.723.543-6.683-.35-7.818-1.535.578-.045 2.928-.297 4.287-1.291-1.15-.758-5.724-3.45-2.718-10.686 1.411 1.647 2.842 2.77 4.292 3.364.965.396 1.202.388 1.644.448Z"/>
  </g>
  <defs>
    <clipPath id="a">
      <path fill="#fff" d="M8 8h20v20H8z"/>
    </clipPath>
  </defs>
</svg>
