<svg xmlns="http://www.w3.org/2000/svg" xmlns:xlink="http://www.w3.org/1999/xlink" width="74.43" height="59.05" viewBox="0 0 74.43 59.05">
  <defs>
    <clipPath id="a" transform="translate(0 0)">
      <rect width="74.43" height="59.05" style="fill: none"/>
    </clipPath>
  </defs>
  <title>2</title>
  <g style="clip-path: url(#a)">
    <path d="M5.66,49.35a2,2,0,0,1,.44,1.27,2,2,0,0,1-.68,1.6,2.92,2.92,0,0,1-2,.59H0v-8H3.39a2.89,2.89,0,0,1,1.88.54,1.84,1.84,0,0,1,.66,1.51A1.87,1.87,0,0,1,5.52,48a1.82,1.82,0,0,1-1,.63,2,2,0,0,1,1.17.69M1.61,48.14H3.06A1.38,1.38,0,0,0,4,47.87a1,1,0,0,0,.31-.77A1,1,0,0,0,4,46.32,1.39,1.39,0,0,0,3,46H1.61Zm2.51,3.08a1,1,0,0,0,.34-.81,1,1,0,0,0-.35-.83,1.5,1.5,0,0,0-1-.29H1.61V51.5H3.14a1.51,1.51,0,0,0,1-.28" transform="translate(0 0)" style="fill: #868686"/>
    <path d="M12.56,52.81l-1.88-3.14H10v3.14H8.37v-8h3.07a3,3,0,0,1,2.14.68,2.56,2.56,0,0,1,.23,3.33,2.5,2.5,0,0,1-1.47.82l2,3.22ZM10,48.57H11.3q1.38,0,1.38-1.22a1.2,1.2,0,0,0-.34-.91,1.45,1.45,0,0,0-1-.32H10Z" transform="translate(0 0)" style="fill: #868686"/>
    <path d="M21.43,51.19H18.21l-.57,1.62h-1.7l3-8h1.84l3,8H22ZM21,50l-1.19-3.4L18.63,50Z" transform="translate(0 0)" style="fill: #868686"/>
    <polygon points="32.51 52.81 30.91 52.81 27.3 47.34 27.3 52.81 25.7 52.81 25.7 44.76 27.3 44.76 30.91 50.28 30.91 44.76 32.51 44.76 32.51 52.81" style="fill: #868686"/>
    <path d="M41.69,50.88a3.49,3.49,0,0,1-1.45,1.42,4.75,4.75,0,0,1-2.26.51H35.11v-8H38a4.85,4.85,0,0,1,2.26.5,3.43,3.43,0,0,1,1.45,1.4,4.69,4.69,0,0,1,0,4.22m-1.84-.19a2.94,2.94,0,0,0,0-3.84,2.79,2.79,0,0,0-2-.68H36.72v5.21h1.12a2.79,2.79,0,0,0,2-.68" transform="translate(0 0)" style="fill: #868686"/>
    <path d="M22.44,0S43.19,7.84,42.75,19.17h0V38.35S22,30.51,22.45,19.17h0Z" transform="translate(0 0)" style="fill: #868686"/>
    <path d="M61.24,33.86A28.39,28.39,0,0,1,74.43,29V23A27,27,0,0,0,61.24,33.86" transform="translate(0 0)" style="fill: #868686"/>
    <path d="M58.88,35.67A28.21,28.21,0,0,1,74.43,21.74V4.44S44.87,15.6,45.5,31.75h0v27.3s1.32-.5,3.39-1.43c0-.88,0-1.76.09-2.64a28.38,28.38,0,0,1,9.91-19.31" transform="translate(0 0)" style="fill: #868686"/>
    <path d="M56.08,45.81a28.4,28.4,0,0,1,1-5.59,26.35,26.35,0,0,0-6.18,14.92c0,.52-.07,1-.08,1.56,1.68-.81,3.63-1.81,5.69-3a28.18,28.18,0,0,1-.46-7.89" transform="translate(0 0)" style="fill: #868686"/>
    <path d="M57.25,45.91a27.07,27.07,0,0,0,.36,7.16c8.08-4.83,17.15-12.29,16.8-21.32h0V31a26.5,26.5,0,0,0-15.36,7.18,27,27,0,0,0-1.81,7.75" transform="translate(0 0)" style="fill: #868686"/>
  </g>
</svg>
