<svg xmlns="http://www.w3.org/2000/svg" width="112.91" height="84.72" viewBox="0 0 112.91 84.72">
  <title>4</title>
  <g>
    <g>
      <path d="M39.18,12.32a2.74,2.74,0,0,1,3.35-2.13,2.83,2.83,0,0,1,1.83,3.7,3.34,3.34,0,0,1-3.87,1.86,4.35,4.35,0,0,1-3-3.24,5.57,5.57,0,0,1,1-4.32,6.68,6.68,0,0,1,3.62-2.52,9.63,9.63,0,0,1,4.37-.22,15.8,15.8,0,0,1,4.12,1.39c-2.66-1-5.65-1.68-8.36-.76a6.49,6.49,0,0,0-3.33,2.4,5,5,0,0,0-.85,3.91,3.82,3.82,0,0,0,2.57,2.87A2.93,2.93,0,0,0,44,13.72a2.49,2.49,0,0,0-1.51-3.27A2.63,2.63,0,0,0,39.18,12.32Z" style="fill: #868686"/>
      <path d="M73.73,12.32a2.63,2.63,0,0,0-3.27-1.87,2.49,2.49,0,0,0-1.51,3.27,2.93,2.93,0,0,0,3.35,1.54,3.82,3.82,0,0,0,2.57-2.87A5,5,0,0,0,74,8.48a6.49,6.49,0,0,0-3.33-2.4c-2.71-.92-5.7-.29-8.36.76a15.8,15.8,0,0,1,4.12-1.39,9.63,9.63,0,0,1,4.37.22,6.69,6.69,0,0,1,3.62,2.52,5.57,5.57,0,0,1,1,4.32,4.35,4.35,0,0,1-3,3.24,3.34,3.34,0,0,1-3.87-1.86,2.83,2.83,0,0,1,1.83-3.7A2.74,2.74,0,0,1,73.73,12.32Z" style="fill: #868686"/>
    </g>
    <g>
      <path d="M111.24,21.42a2.63,2.63,0,0,0-3.61-1.08,2.49,2.49,0,0,0-.73,3.53,2.93,2.93,0,0,0,3.61.74,3.82,3.82,0,0,0,1.85-3.38,5,5,0,0,0-1.72-3.61A6.49,6.49,0,0,0,106.85,16c-2.85-.28-5.62,1-8,2.63a15.81,15.81,0,0,1,3.69-2.28,9.63,9.63,0,0,1,4.31-.78A6.68,6.68,0,0,1,111,17.24a5.57,5.57,0,0,1,1.93,4,4.35,4.35,0,0,1-2.17,3.83,3.34,3.34,0,0,1-4.2-.93,2.83,2.83,0,0,1,.94-4A2.74,2.74,0,0,1,111.24,21.42Z" style="fill: #868686"/>
      <path d="M1.68,21.42a2.74,2.74,0,0,1,3.75-1.32,2.83,2.83,0,0,1,.94,4,3.34,3.34,0,0,1-4.2.93A4.35,4.35,0,0,1,0,21.22a5.57,5.57,0,0,1,1.93-4A6.68,6.68,0,0,1,6,15.6a9.63,9.63,0,0,1,4.31.78A15.8,15.8,0,0,1,14,18.67C11.68,17,8.91,15.75,6.06,16a6.49,6.49,0,0,0-3.79,1.58A5,5,0,0,0,.56,21.23a3.82,3.82,0,0,0,1.85,3.38A2.93,2.93,0,0,0,6,23.87a2.49,2.49,0,0,0-.73-3.53A2.63,2.63,0,0,0,1.68,21.42Z" style="fill: #868686"/>
    </g>
    <g>
      <path d="M37.56,16.05a1.39,1.39,0,0,0-.63-1.23,1.55,1.55,0,0,0-1.37,0,1.86,1.86,0,0,0-1,.94,2,2,0,0,0-.09,1.35,2.68,2.68,0,0,0,2.09,1.62,5.81,5.81,0,0,0,2.82,0,12.11,12.11,0,0,0,5-2.78A27.34,27.34,0,0,1,48.9,12.1a6.56,6.56,0,0,1,2.9-.87,5.08,5.08,0,0,1,2.94.79,4.12,4.12,0,0,1,1.83,2.44,3.72,3.72,0,0,1-.62,3,4,4,0,0,1-2.48,1.71,3.59,3.59,0,0,1-2.89-.71,2.82,2.82,0,0,1-.87-1.24,1.87,1.87,0,0,1,.13-1.49,2.15,2.15,0,0,1,1.09-1,1.87,1.87,0,0,1,1.44,0,1.84,1.84,0,0,0-1.42,0,2,2,0,0,0-1,1,2,2,0,0,0,.79,2.45,3.29,3.29,0,0,0,2.65.58,3.63,3.63,0,0,0,2.19-1.6,3.37,3.37,0,0,0,.51-2.62,3.62,3.62,0,0,0-1.63-2.13,4.56,4.56,0,0,0-2.65-.69,6,6,0,0,0-2.66.83,27.1,27.1,0,0,0-4.48,3.68,12,12,0,0,1-5.22,2.81,6.2,6.2,0,0,1-3,0,3,3,0,0,1-2.27-1.89,2.22,2.22,0,0,1,.17-1.51,2,2,0,0,1,1.13-1,1.65,1.65,0,0,1,1.45.1A1.42,1.42,0,0,1,37.56,16.05Z" style="fill: #868686"/>
      <path d="M75.36,16.05a1.42,1.42,0,0,1,.59-1.29,1.65,1.65,0,0,1,1.45-.1,2,2,0,0,1,1.13,1,2.22,2.22,0,0,1,.17,1.51A3,3,0,0,1,76.44,19a6.2,6.2,0,0,1-3,0,12,12,0,0,1-5.22-2.81,27.09,27.09,0,0,0-4.48-3.68,6,6,0,0,0-2.66-.83,4.56,4.56,0,0,0-2.65.69,3.62,3.62,0,0,0-1.63,2.13,3.37,3.37,0,0,0,.51,2.62,3.63,3.63,0,0,0,2.19,1.6,3.29,3.29,0,0,0,2.65-.58,2,2,0,0,0,.79-2.45,2,2,0,0,0-1-1,1.84,1.84,0,0,0-1.42,0,1.87,1.87,0,0,1,1.44,0,2.15,2.15,0,0,1,1.09,1,1.87,1.87,0,0,1,.13,1.49,2.82,2.82,0,0,1-.87,1.24,3.59,3.59,0,0,1-2.89.71A4,4,0,0,1,57,17.43a3.72,3.72,0,0,1-.62-3A4.12,4.12,0,0,1,58.17,12a5.08,5.08,0,0,1,2.94-.79,6.56,6.56,0,0,1,2.9.87,27.34,27.34,0,0,1,4.54,3.78,12.11,12.11,0,0,0,5,2.78,5.81,5.81,0,0,0,2.82,0,2.68,2.68,0,0,0,2.09-1.62,2,2,0,0,0-.09-1.35,1.86,1.86,0,0,0-1-.94,1.55,1.55,0,0,0-1.37,0A1.39,1.39,0,0,0,75.36,16.05Z" style="fill: #868686"/>
    </g>
    <g>
      <path d="M82.26,16.05a1.39,1.39,0,0,0-.63-1.23,1.55,1.55,0,0,0-1.37,0,1.86,1.86,0,0,0-1,.94,2,2,0,0,0-.09,1.35,2.68,2.68,0,0,0,2.09,1.62,5.81,5.81,0,0,0,2.82,0,12.11,12.11,0,0,0,5-2.78,27.34,27.34,0,0,1,4.54-3.78,6.56,6.56,0,0,1,2.9-.87,5.08,5.08,0,0,1,2.94.79,4.12,4.12,0,0,1,1.83,2.44,3.72,3.72,0,0,1-.62,3,4,4,0,0,1-2.48,1.71,3.59,3.59,0,0,1-2.89-.71,2.82,2.82,0,0,1-.87-1.24,1.87,1.87,0,0,1,.13-1.49,2.15,2.15,0,0,1,1.09-1,1.87,1.87,0,0,1,1.44,0,1.84,1.84,0,0,0-1.42,0,2,2,0,0,0-1,1,2,2,0,0,0,.79,2.45,3.29,3.29,0,0,0,2.65.58,3.63,3.63,0,0,0,2.19-1.6,3.37,3.37,0,0,0,.51-2.62,3.62,3.62,0,0,0-1.63-2.13,4.56,4.56,0,0,0-2.65-.69,6,6,0,0,0-2.66.83,27.09,27.09,0,0,0-4.48,3.68,12,12,0,0,1-5.22,2.81,6.2,6.2,0,0,1-3,0,3,3,0,0,1-2.27-1.89,2.22,2.22,0,0,1,.17-1.51,2,2,0,0,1,1.13-1,1.65,1.65,0,0,1,1.45.1A1.42,1.42,0,0,1,82.26,16.05Z" style="fill: #868686"/>
      <path d="M30.66,16.05a1.42,1.42,0,0,1,.59-1.29,1.65,1.65,0,0,1,1.45-.1,2,2,0,0,1,1.13,1A2.22,2.22,0,0,1,34,17.15,3,3,0,0,1,31.75,19a6.2,6.2,0,0,1-3,0,12,12,0,0,1-5.22-2.81A27.09,27.09,0,0,0,19,12.59a6,6,0,0,0-2.66-.83,4.56,4.56,0,0,0-2.65.69,3.62,3.62,0,0,0-1.63,2.13,3.37,3.37,0,0,0,.51,2.62,3.63,3.63,0,0,0,2.19,1.6,3.29,3.29,0,0,0,2.65-.58,2,2,0,0,0,.79-2.45,2,2,0,0,0-1-1,1.84,1.84,0,0,0-1.42,0,1.87,1.87,0,0,1,1.44,0,2.15,2.15,0,0,1,1.09,1,1.87,1.87,0,0,1,.13,1.49,2.82,2.82,0,0,1-.87,1.24,3.59,3.59,0,0,1-2.89.71,4,4,0,0,1-2.48-1.71,3.72,3.72,0,0,1-.62-3A4.12,4.12,0,0,1,13.47,12a5.08,5.08,0,0,1,2.94-.79,6.56,6.56,0,0,1,2.9.87,27.35,27.35,0,0,1,4.54,3.78,12.11,12.11,0,0,0,5,2.78,5.81,5.81,0,0,0,2.82,0,2.68,2.68,0,0,0,2.09-1.62,2,2,0,0,0-.09-1.35,1.86,1.86,0,0,0-1-.94,1.55,1.55,0,0,0-1.37,0A1.39,1.39,0,0,0,30.66,16.05Z" style="fill: #868686"/>
    </g>
    <path d="M99.6,25.15H13.32a8.68,8.68,0,0,1-8.68,8.68V62.4a8.68,8.68,0,0,1,8.68,8.68H99.6a8.68,8.68,0,0,1,8.68-8.68V33.83A8.68,8.68,0,0,1,99.6,25.15ZM29.28,61H16.64V38.26h2.93V58.52h9.71Zm30.57-9.47c0,7-3.67,9.84-8.6,9.84-4.65,0-8.16-2.66-8.16-9.71V38.26h3V51.71c0,5.09,2.26,7.25,5.29,7.25,3.37,0,5.53-2.22,5.53-7.25V38.26h3ZM89.18,61l-2.9-5c-1.18-1.92-1.92-3.17-2.63-4.48h-.07C82.94,52.79,82.3,54,81.12,56l-2.73,5H75L82,49.48,75.29,38.26h3.4l3,5.33c.84,1.48,1.48,2.63,2.09,3.84h.1c.64-1.35,1.21-2.39,2.06-3.84L89,38.26h3.37L85.51,49.32,92.59,61Z" style="fill: #868686"/>
    <g>
      <path d="M16.32,84.6l-2.69-6.95h1l1.81,5q.22.61.36,1.14.16-.57.38-1.14l1.88-5H20L17.27,84.6Z" style="fill: #868686"/>
      <path d="M23.4,84.6V77.65h.92V84.6Z" style="fill: #868686"/>
      <path d="M28.37,84.6V77.65H31a6.26,6.26,0,0,1,1.06.07,2.1,2.1,0,0,1,.86.32,1.71,1.71,0,0,1,.56.67,2.26,2.26,0,0,1-.35,2.45,2.71,2.71,0,0,1-2,.61H29.29V84.6ZM29.29,81h1.8a1.91,1.91,0,0,0,1.27-.33,1.18,1.18,0,0,0,.37-.93,1.25,1.25,0,0,0-.22-.75,1,1,0,0,0-.58-.41,3.93,3.93,0,0,0-.86-.06H29.29Z" style="fill: #868686"/>
      <path d="M41.9,82.37l.87-.08a1.91,1.91,0,0,0,.29.86,1.56,1.56,0,0,0,.7.54,2.66,2.66,0,0,0,1.07.21,2.57,2.57,0,0,0,.93-.16,1.29,1.29,0,0,0,.6-.43,1,1,0,0,0,.2-.59.91.91,0,0,0-.19-.57,1.4,1.4,0,0,0-.63-.41,12.35,12.35,0,0,0-1.24-.34A6.33,6.33,0,0,1,43.16,81a1.88,1.88,0,0,1-.74-.65,1.59,1.59,0,0,1-.24-.87,1.76,1.76,0,0,1,.3-1,1.85,1.85,0,0,1,.87-.69,3.31,3.31,0,0,1,1.28-.24,3.48,3.48,0,0,1,1.36.25,2,2,0,0,1,.91.73,2.1,2.1,0,0,1,.34,1.09l-.88.07a1.43,1.43,0,0,0-.48-1,1.87,1.87,0,0,0-1.21-.34,2,2,0,0,0-1.22.31.92.92,0,0,0-.38.74.79.79,0,0,0,.27.62,3.65,3.65,0,0,0,1.39.5,9.12,9.12,0,0,1,1.54.44,2.1,2.1,0,0,1,.9.71,1.72,1.72,0,0,1,.29,1,1.89,1.89,0,0,1-.32,1,2.09,2.09,0,0,1-.91.76,3.18,3.18,0,0,1-1.34.27,4,4,0,0,1-1.58-.27,2.22,2.22,0,0,1-1-.83A2.34,2.34,0,0,1,41.9,82.37Z" style="fill: #868686"/>
      <path d="M51.14,84.6V77.65h5v.82H52.06V80.6H55.9v.82H52.06v2.37h4.27v.82Z" style="fill: #868686"/>
      <path d="M60,84.6V77.65h3.08a4.12,4.12,0,0,1,1.41.19,1.55,1.55,0,0,1,.77.66,2,2,0,0,1,.29,1,1.75,1.75,0,0,1-.48,1.25,2.42,2.42,0,0,1-1.48.64,2.39,2.39,0,0,1,.55.35,4.78,4.78,0,0,1,.76.92l1.21,1.89H65l-.92-1.45q-.4-.63-.66-1a2.08,2.08,0,0,0-.47-.46,1.4,1.4,0,0,0-.42-.18,2.74,2.74,0,0,0-.51,0H61V84.6ZM61,80.72h2a3,3,0,0,0,1-.13,1.05,1.05,0,0,0,.54-.42,1.13,1.13,0,0,0,.18-.62,1,1,0,0,0-.36-.81,1.68,1.68,0,0,0-1.13-.32H61Z" style="fill: #868686"/>
      <path d="M71.27,84.6l-2.69-6.95h1l1.81,5q.22.61.36,1.14.16-.57.38-1.14l1.88-5h.94L72.21,84.6Z" style="fill: #868686"/>
      <path d="M78.34,84.6V77.65h.92V84.6Z" style="fill: #868686"/>
      <path d="M88.27,82.16l.92.23a3.09,3.09,0,0,1-1,1.73,2.87,2.87,0,0,1-1.84.59,3.31,3.31,0,0,1-1.83-.46,2.86,2.86,0,0,1-1.07-1.33A4.74,4.74,0,0,1,83,81.07a4.1,4.1,0,0,1,.42-1.89A2.84,2.84,0,0,1,84.64,78a3.44,3.44,0,0,1,1.68-.42,2.85,2.85,0,0,1,1.75.53,2.75,2.75,0,0,1,1,1.49l-.91.21a2.15,2.15,0,0,0-.7-1.11,1.87,1.87,0,0,0-1.16-.35A2.25,2.25,0,0,0,85,78.7a2,2,0,0,0-.76,1A4.15,4.15,0,0,0,84,81.07a4.22,4.22,0,0,0,.26,1.55,1.92,1.92,0,0,0,.8,1,2.26,2.26,0,0,0,1.18.33,2,2,0,0,0,1.31-.45A2.28,2.28,0,0,0,88.27,82.16Z" style="fill: #868686"/>
      <path d="M92.77,84.6V77.65h5v.82H93.69V80.6h3.84v.82H93.69v2.37H98v.82Z" style="fill: #868686"/>
    </g>
    <path d="M54.91,2.5a.14.14,0,0,0-.12-.13l-.5,0c0-.06,0-.1,0-.15h2s0,.14,0,.15l-.67.06v6.4h2.68l.19-1.55.18,0L58.49,9h-4.2s0-.09,0-.14l.5-.07a.14.14,0,0,0,.12-.13Z" style="fill: #868686"/>
    <path d="M56.13,74,10.8,74.1h-.14V74c0-1.26,0-2.57-.05-3.8a6,6,0,0,0-1.54-3.32A6,6,0,0,0,5.89,65,8.65,8.65,0,0,0,4,64.87H1.95v-.17l0-33.61v-.21H4a9.14,9.14,0,0,0,1.79-.11A5.94,5.94,0,0,0,10.47,26a9.14,9.14,0,0,0,.11-1.79V22.19h.22l45.66-.06,45.66.05h.23v2.06a9.13,9.13,0,0,0,.11,1.79,5.94,5.94,0,0,0,4.72,4.73,9.14,9.14,0,0,0,1.79.11h2v.21l0,33.61v.17h-2.08A8.65,8.65,0,0,0,107,65a6,6,0,0,0-4.71,5.15c-.1,1.23,0,2.54-.05,3.8v.15h-.14L56.81,74l45.31-.15L102,74c0-1.28-.05-2.53,0-3.84A6.35,6.35,0,0,1,107,64.69a9,9,0,0,1,1.93-.14h1.91l-.17.17,0-33.61.21.21H109a9.55,9.55,0,0,1-1.87-.11A6.37,6.37,0,0,1,102,26.12a9.56,9.56,0,0,1-.12-1.87V22.41l.22.22-45.66.05L10.8,22.63l.22-.22v1.84a9.57,9.57,0,0,1-.12,1.87,6.37,6.37,0,0,1-5.08,5.07A9.54,9.54,0,0,1,4,31.3H2.11l.21-.21,0,33.61-.17-.17H4A9,9,0,0,1,6,64.69a6.34,6.34,0,0,1,3.34,1.93,6.28,6.28,0,0,1,1.61,3.5c.1,1.31,0,2.56,0,3.84l-.15-.15Z" style="fill: #868686"/>
    <path d="M56.46,0a5.92,5.92,0,0,1,4.19,1.69,6,6,0,0,1,.14,8.52,6,6,0,0,1-8.66,0,6,6,0,0,1,.14-8.52A5.92,5.92,0,0,1,56.46,0Zm0,0a5.88,5.88,0,0,0-4.13,1.75,5.74,5.74,0,0,0,.14,8.12,5.74,5.74,0,0,0,8,0,5.74,5.74,0,0,0,.14-8.12A5.88,5.88,0,0,0,56.46,0Z" style="fill: #868686"/>
  </g>
</svg>
