<svg xmlns="http://www.w3.org/2000/svg" xmlns:xlink="http://www.w3.org/1999/xlink" width="52.78" height="52.48" viewBox="0 0 52.78 52.48">
  <defs>
    <clipPath id="a" transform="translate(0 0)">
      <rect width="52.78" height="52.48" style="fill: none"/>
    </clipPath>
  </defs>
  <title>6</title>
  <g style="clip-path: url(#a)">
    <path d="M2.64,50.12A1.51,1.51,0,0,0,3,49.95a1,1,0,0,0,.24-.23.85.85,0,0,0,.14-.27,1,1,0,0,0,0-.3,1.3,1.3,0,0,0-.1-.51A.92.92,0,0,0,3,48.26,1.5,1.5,0,0,0,2.48,48a3.15,3.15,0,0,0-.8-.09H0v4.55H1.82a2.3,2.3,0,0,0,.73-.11,1.54,1.54,0,0,0,.54-.29,1.24,1.24,0,0,0,.33-.44,1.31,1.31,0,0,0,.11-.54.91.91,0,0,0-.21-.63,1.25,1.25,0,0,0-.67-.36m-1.59-1.4h.62a1.53,1.53,0,0,1,.31,0,.55.55,0,0,1,.21.09.39.39,0,0,1,.13.17.77.77,0,0,1,0,.27.63.63,0,0,1-.05.28.41.41,0,0,1-.15.17.67.67,0,0,1-.24.09l-.32,0H1.06Zm1.4,2.58a.46.46,0,0,1-.1.19.54.54,0,0,1-.21.14.91.91,0,0,1-.34.05H1.06V50.55h.74a1.23,1.23,0,0,1,.33,0,.56.56,0,0,1,.21.11.36.36,0,0,1,.11.17.68.68,0,0,1,0,.22.82.82,0,0,1,0,.21" transform="translate(0 0)" style="fill: #868686"/>
    <path d="M7.94,50.71a1.12,1.12,0,0,0-.2-.13,1.52,1.52,0,0,0,.39-.21,1.4,1.4,0,0,0,.29-.3,1.27,1.27,0,0,0,.18-.36,1.43,1.43,0,0,0,.06-.42,1.42,1.42,0,0,0-.1-.54,1.08,1.08,0,0,0-.32-.43A1.59,1.59,0,0,0,7.67,48a3,3,0,0,0-.84-.1H5.35v4.55H6.4V50.8h.27a.39.39,0,0,1,.19,0A.33.33,0,0,1,7,51l.75,1.32a.41.41,0,0,0,.38.2h1l-1-1.58a.8.8,0,0,0-.16-.19m-.36-1.07a.58.58,0,0,1-.14.23.67.67,0,0,1-.25.15,1.07,1.07,0,0,1-.37.06H6.4V48.72h.43a.91.91,0,0,1,.6.17.59.59,0,0,1,.19.47.85.85,0,0,1,0,.28" transform="translate(0 0)" style="fill: #868686"/>
    <path d="M12.14,47.93l-1.76,4.55h.82a.35.35,0,0,0,.22-.07.36.36,0,0,0,.12-.16l.27-.79h1.73l.27.79a.33.33,0,0,0,.12.16.38.38,0,0,0,.23.06H15l-1.76-4.55Zm-.08,2.81.42-1.24c0-.08.07-.17.1-.28s.07-.23.1-.35c0,.13.07.24.11.35l.1.28.42,1.25Z" transform="translate(0 0)" style="fill: #868686"/>
    <path d="M19.65,50.34c0,.07,0,.15,0,.23s0,.17,0,.25l-2.16-2.73L17.43,48l-.07,0-.08,0H16.6v4.55h.93V50c0-.07,0-.14,0-.21s0-.15,0-.23l2.15,2.71a.44.44,0,0,0,.16.14.49.49,0,0,0,.21,0h.55V47.93h-.93Z" transform="translate(0 0)" style="fill: #868686"/>
    <path d="M26.05,48.58a2.23,2.23,0,0,0-.75-.48,2.63,2.63,0,0,0-1-.17H22.58v4.55h1.77a2.65,2.65,0,0,0,1-.17,2.18,2.18,0,0,0,.75-.47,2.14,2.14,0,0,0,.48-.72,2.52,2.52,0,0,0,0-1.82,2.09,2.09,0,0,0-.48-.72m-.52,2.24a1.31,1.31,0,0,1-.25.46,1.09,1.09,0,0,1-.4.29,1.38,1.38,0,0,1-.54.1h-.7V48.74h.7a1.38,1.38,0,0,1,.54.1,1.09,1.09,0,0,1,.4.29,1.31,1.31,0,0,1,.25.46,2.19,2.19,0,0,1,0,1.22" transform="translate(0 0)" style="fill: #868686"/>
    <path d="M34,50.34c0,.07,0,.15,0,.23s0,.17,0,.25l-2.16-2.73L31.74,48l-.07,0-.08,0h-.67v4.55h.93V50c0-.07,0-.14,0-.21s0-.15,0-.23L34,52.31a.43.43,0,0,0,.16.14.49.49,0,0,0,.21,0h.55V47.93H34Z" transform="translate(0 0)" style="fill: #868686"/>
    <path d="M38.28,47.93l-1.76,4.55h.83a.36.36,0,0,0,.34-.23l.27-.79h1.73l.27.79a.34.34,0,0,0,.12.16.38.38,0,0,0,.23.06h.82l-1.76-4.55Zm-.08,2.81.42-1.24c0-.08.06-.17.1-.28s.07-.23.1-.35c0,.13.07.24.11.35l.1.28.42,1.25Z" transform="translate(0 0)" style="fill: #868686"/>
    <path d="M46.93,47.93l-.09,0-.07,0a.4.4,0,0,0-.06.09l-1.17,2.3-.12.25-.11.27-.11-.26-.12-.25L43.9,48.09,43.83,48l-.07,0-.09,0h-.93v4.55h.93V49.86c0-.06,0-.13,0-.2s0-.14,0-.22l1.21,2.34A.39.39,0,0,0,45,52a.42.42,0,0,0,.22.06h.14a.42.42,0,0,0,.22-.06.39.39,0,0,0,.15-.16l1.21-2.34c0,.15,0,.28,0,.41v2.62h.93V47.93h-.93Z" transform="translate(0 0)" style="fill: #868686"/>
    <polygon points="52.78 48.74 52.78 47.93 49.85 47.93 49.85 52.48 52.78 52.48 52.78 51.67 50.92 51.67 50.92 50.58 52.35 50.58 52.35 49.8 50.92 49.8 50.92 48.74 52.78 48.74" style="fill: #868686"/>
    <path d="M46.61,35.18l-6.92-12L45.56,13a1.21,1.21,0,0,0-1-1.81H32.77L26.29,0,19.81,11.22H8.07A1.21,1.21,0,0,0,7,13L12.9,23.2,6,35.18H19.81l5.44,9.42a1.21,1.21,0,0,0,2.09,0l5.44-9.42Zm-3-22.25L38.71,21.5l-4.95-8.57ZM32.16,32.84H21.35l-3.59-6.22L23.32,17l9,15.58ZM22.5,15.57,16.94,25.2l-1.15-2,5.56-9.63ZM8.93,12.93h9.9L13.88,21.5ZM26.29,43l-4.51-7.82h9Z" transform="translate(0 0)" style="fill: #868686"/>
  </g>
</svg>
