<svg xmlns="http://www.w3.org/2000/svg" xmlns:xlink="http://www.w3.org/1999/xlink" width="209.2" height="34.85" viewBox="0 0 209.2 34.85">
  <defs>
    <clipPath id="a" transform="translate(0 0)">
      <rect width="209.2" height="34.85" style="fill: none"/>
    </clipPath>
  </defs>
  <title>logo</title>
  <g style="clip-path: url(#a)">
    <path d="M0,34.4V.1H.55l16.23,19L32.85.1h.55V34.4h-5V16.78l.2-4.89a32.72,32.72,0,0,1-3,4.09L17,26.26h-.6L7.84,16l-3-4.09q.2,3,.2,4.89V34.4Z" transform="translate(0 0)" style="fill: #1a1a1a"/>
    <path d="M90.82,23.92,98,34.4H91.92l-6.09-8.94q-1.9.2-2.85.2H79.79V34.4H74.49V.45H83q7,0,10.81,3.39a11.79,11.79,0,0,1,3.82,9.29q0,7.79-6.79,10.78m-11-2.8h3q9.44,0,9.44-8t-9.44-8h-3Z" transform="translate(0 0)" style="fill: #1a1a1a"/>
    <path d="M120.58,34.85a17,17,0,0,1-12.38-4.94,16.75,16.75,0,0,1-5-12.48A16.69,16.69,0,0,1,108.2,5,17,17,0,0,1,120.58.05q9.09,0,13.58,6.74l-4,2.9Q127,4.79,120.58,4.79a11.36,11.36,0,0,0-8.64,3.59,12.64,12.64,0,0,0-3.4,9,12.73,12.73,0,0,0,3.4,9.06,12.11,12.11,0,0,0,18.67-1.72l4,2.85q-4.74,7.24-14.08,7.24" transform="translate(0 0)" style="fill: #fe3e57"/>
    <polygon points="140.65 34.4 140.65 0.45 145.94 0.45 145.94 15.72 162.27 15.72 162.27 0.45 167.56 0.45 167.56 34.4 162.27 34.4 162.27 20.42 145.94 20.42 145.94 34.4 140.65 34.4" style="fill: #fe3e57"/>
    <path d="M191.72,34.85a17.16,17.16,0,0,1-12.46-4.94,16.7,16.7,0,0,1-5.07-12.48,16.7,16.7,0,0,1,5.07-12.48,18.1,18.1,0,0,1,24.86,0,16.7,16.7,0,0,1,5.07,12.48,16.7,16.7,0,0,1-5.07,12.48,17.1,17.1,0,0,1-12.41,4.94M183,26.49a12.27,12.27,0,0,0,17.4,0,12.73,12.73,0,0,0,3.4-9.06,12.73,12.73,0,0,0-3.4-9.06,12.27,12.27,0,0,0-17.4,0,12.69,12.69,0,0,0-3.42,9.06A12.68,12.68,0,0,0,183,26.49" transform="translate(0 0)" style="fill: #fe3e57"/>
    <polygon points="54.07 0.1 53.47 0.1 38.94 34.4 44.04 34.4 53.67 9.54 63.46 34.4 68.95 34.4 54.07 0.1" style="fill: #1a1a1a"/>
  </g>
</svg>
