<svg xmlns="http://www.w3.org/2000/svg" width="80" height="80">
  <defs>
    <style>
      .b{fill:#ffe550}
    </style>
  </defs>
  <circle cx="40" cy="40" r="40" fill="#333029"/>
  <path d="M32.8 37.25a.8.8 0 00-1.09-.25l-9.29 5.54a.8.8 0 000 1.37l9.29 5.54a.8.8 0 10.81-1.45l-8.14-4.85 8.14-4.85a.8.8 0 00.28-1.09zM47.2 49.14a.8.8 0 001.09.28l9.29-5.54a.8.8 0 000-1.37L48.29 37a.8.8 0 10-.82 1.37l8.14 4.85L47.48 48a.8.8 0 00-.28 1.14zM43.06 37.21l-7.44 11.07a.8.8 0 101.32.89l7.44-11.07a.8.8 0 10-1.32-.89z" class="b"/>
  <path d="M64.2 17.39H15.8a.8.8 0 00-.8.8v43.62a.8.8 0 00.8.8h48.4a.8.8 0 00.8-.8V53.3a.8.8 0 00-1.6 0V61H16.6V25.37h46.8v24.74a.8.8 0 001.6 0V18.19a.8.8 0 00-.8-.8zM16.6 19h29.52v4.79H16.6zm31.12 4.79V19H63.4v4.79z" class="b"/>
  <path d="M55.59 20.53a.85.85 0 10.85.85.85.85 0 00-.85-.85zM51.22 20.53a.85.85 0 10.85.85.85.85 0 00-.85-.85zM59.95 20.53a.85.85 0 10.85.85.85.85 0 00-.85-.85z" class="b"/>
</svg>
