<svg xmlns="http://www.w3.org/2000/svg" width="58.62" height="64">
  <defs>
    <style>
      .a{fill:none}.b{fill:#665e4a}
    </style>
  </defs>
  <path d="M37.56 21.52h2.25v-9.1H30.7v1.93a9.23 9.23 0 016.85 7.17zM29.75 47.57l-1.72 1.71 2.94 1.23-1.22-2.94zM32.44 19.29a5.67 5.67 0 00-1.82-1.22v3.45h3.19a5.7 5.7 0 00-1.37-2.23zM17.32 39.79l.09.08 7.51 7.51 2.92-2.93-12.85-12.84v-.01l-4.21-4.21-2.92 2.93 9.46 9.47zM51.69 56a1.77 1.77 0 011.77-1.77h.43a1.77 1.77 0 01-.1-2.4h-.33a1.77 1.77 0 110-3.55h.43a1.77 1.77 0 01-.1-2.4h-.33a1.77 1.77 0 110-3.55h.43a1.77 1.77 0 01-.1-2.4h-.33a1.77 1.77 0 110-3.55h.43a1.77 1.77 0 01-.1-2.4h-.33a1.77 1.77 0 110-3.55h.43a1.77 1.77 0 01-.1-2.4h-.33a1.77 1.77 0 110-3.55h.43a1.77 1.77 0 01-.11-2.4h-.32a1.77 1.77 0 110-3.55h.43a1.77 1.77 0 01-.11-2.4h-.32a1.77 1.77 0 110-3.55h.43a1.77 1.77 0 01.92-3h-4.28V57.5h2a1.77 1.77 0 01-.84-1.5zM28.43 29a5.65 5.65 0 005.38-3.89h-5a1.77 1.77 0 01-1.77-1.77v-5.5A5.66 5.66 0 0028.43 29zM3.91 26.37l2.93-2.93-.52-.52a.73.73 0 00-1 0l-1.9 1.9a.73.73 0 000 1z" class="a"/>
  <path d="M32.07 57.36a.59.59 0 00.59.59h15.28a.59.59 0 00.59-.59V41.15a.59.59 0 10-1.17 0v15.63H32.65a.59.59 0 00-.58.58zM7 21.49a.59.59 0 00.59-.59V1.17h11.05a.58.58 0 100-1.17H7a.58.58 0 00-.59.59v20.32a.59.59 0 00.59.58zM45.64 62.83h-19.9a.59.59 0 000 1.17h19.9a.59.59 0 000-1.17zM9.36 62.83H.59a.59.59 0 000 1.17h8.77a.59.59 0 000-1.17zM58 59.72H11.48a.59.59 0 000 1.17H58a.59.59 0 100-1.17zM57.19 56.56h-3.73a.59.59 0 110-1.17h3.72v-1.86h-2a.59.59 0 110-1.17h2v-1.75h-3.72a.59.59 0 110-1.17h3.72v-1.85h-2a.59.59 0 110-1.17h2v-1.75h-3.72a.59.59 0 110-1.17h3.72v-1.86h-2a.59.59 0 110-1.17h2v-1.75h-3.72a.59.59 0 110-1.17h3.72V35.7h-2a.59.59 0 110-1.17h2v-1.75h-3.72a.59.59 0 110-1.17h3.72v-1.86h-2a.59.59 0 110-1.17h2v-1.75h-3.72a.59.59 0 110-1.17h3.72V23.8h-2a.59.59 0 110-1.17h2v-1.74h-3.72a.59.59 0 110-1.17h3.72v-1.87h-2a.59.59 0 110-1.17h2v-1.74h-3.72a.59.59 0 110-1.17h3.72v-1.86h-2a.59.59 0 110-1.17h2V8.39h-7.84v50.29h7.85zm-6.66.94V9.58h4.28a1.77 1.77 0 00-.92 3h-.43a1.77 1.77 0 100 3.55h.32a1.77 1.77 0 00.11 2.4h-.43a1.77 1.77 0 100 3.55h.32a1.77 1.77 0 00.11 2.4h-.43a1.77 1.77 0 100 3.55h.33a1.77 1.77 0 00.1 2.4h-.43a1.77 1.77 0 100 3.55h.33a1.77 1.77 0 00.1 2.4h-.43a1.77 1.77 0 100 3.55h.33a1.77 1.77 0 00.1 2.4h-.43a1.77 1.77 0 100 3.55h.33a1.77 1.77 0 00.1 2.4h-.43a1.77 1.77 0 100 3.55h.33a1.77 1.77 0 00.1 2.4h-.43a1.77 1.77 0 00-.91 3.29zM30.16 45.47l-4.23 4.23 7.23 3zm-.42 2.09L31 50.51l-3-1.22zM3.91 28l4.61-4.61-1.37-1.3a1.91 1.91 0 00-2.71 0L2.55 24a1.92 1.92 0 000 2.71zm-.52-3.22l1.9-1.9a.73.73 0 011 0l.52.52-2.9 2.97-.52-.52a.73.73 0 010-1zM4.73 28.88l.62.61 4.61-4.61-.62-.61-4.61 4.61zM16.57 40.71l8.34 8.34 4.61-4.61-13.77-13.76-5-5-4.57 4.64 10.38 10.39zm-5.79-13.32L15 31.6l12.84 12.85-2.93 2.93-7.51-7.51-.08-.08-9.46-9.47z" class="b"/>
  <path fill="#ffe550" d="M33.28 18.45a6.82 6.82 0 00-3.85-1.93v6.19h5.83a6.84 6.84 0 00-1.98-4.26zm-2.66-.38a5.66 5.66 0 013.19 3.45h-3.19zm5.9 4.64H41V11.23H29.52v4.1a8 8 0 017 7.37zM30.7 12.42h9.1v9.1h-2.24a9.23 9.23 0 00-6.85-7.17zm-2.27 17.72a6.84 6.84 0 006.83-6.26h-6.42a.58.58 0 01-.58-.59v-6.84a6.85 6.85 0 00.17 13.7zm-4-10.86a5.62 5.62 0 012.64-1.49v5.5a1.77 1.77 0 001.77 1.77h5a5.66 5.66 0 11-9.38-5.78z"/>
</svg>
