<svg xmlns="http://www.w3.org/2000/svg" width="80" height="80">
  <defs>
    <style>
      .b{fill:#ffe550}
    </style>
  </defs>
  <circle cx="40" cy="40" r="40" fill="#333029"/>
  <path d="M40 21a17 17 0 00-6 32.9V63a1 1 0 001 1h1v2a1 1 0 001 1h6a1 1 0 001-1v-2h1a1 1 0 001-1v-9.1A17 17 0 0040 21zm3 41a1 1 0 00-1 1v2h-4v-2a1 1 0 00-1-1h-1v-5h8v5zm1.69-9.76a1 1 0 00-.69 1V55h-8v-1.81a1 1 0 00-.69-1 15 15 0 119.38 0zM40 19a1 1 0 001-1v-4a1 1 0 00-2 0v4a1 1 0 001 1zM64 37h-4a1 1 0 000 2h4a1 1 0 000-2zM20 37h-4a1 1 0 000 2h4a1 1 0 000-2zM56.26 20.32l-2.83 2.83a1 1 0 101.41 1.41l2.83-2.83a1 1 0 10-1.41-1.41zM25.15 51.44l-2.83 2.83a1 1 0 101.41 1.41l2.83-2.83a1 1 0 00-1.41-1.41z" class="b"/>
  <path d="M54.85 51.44a1 1 0 10-1.41 1.41l2.83 2.83a1 1 0 001.41-1.41zM25.15 24.56a1 1 0 001.41-1.41l-2.83-2.83a1 1 0 10-1.41 1.41zM40 26a12 12 0 00-12 12 1 1 0 002 0 10 10 0 0110-10 1 1 0 000-2z" class="b"/>
</svg>
