<svg xmlns="http://www.w3.org/2000/svg" width="64" height="64">
  <defs>
    <style>
      .a{fill:#ffe550}.b{fill:#665e4a}
    </style>
  </defs>
  <path d="M25 64a.81.81 0 01-.81-.81V43.53a.81.81 0 01.81-.81h38.2a.81.81 0 01.81.81v19.68a.81.81 0 01-.81.81zm.81-1.62h36.56V44.34H25.79z" class="a"/>
  <path d="M29.61 49a.79.79 0 01-.3-.07 1 1 0 01-.29-.18.79.79 0 01-.23-.56.81.81 0 01.24-.58 1 1 0 01.28-.18.71.71 0 01.6 0 1 1 0 01.29.18.84.84 0 01.22.57.81.81 0 01-.24.57 1 1 0 01-.27.17.81.81 0 01-.3.08zM34.24 49a.78.78 0 01-.3-.07 1 1 0 01-.29-.18.81.81 0 01-.22-.56.86.86 0 01.24-.58 1 1 0 01.27-.17.71.71 0 01.6 0 1 1 0 01.29.18.79.79 0 01.23.56.81.81 0 01-.24.58.93.93 0 01-.27.17.79.79 0 01-.31.07zM38.88 49a.78.78 0 01-.3-.07 1 1 0 01-.29-.18.79.79 0 01-.23-.56.81.81 0 01.24-.58 1 1 0 01.28-.18.83.83 0 01.31-.06.81.81 0 01.31.06 1 1 0 01.28.18.79.79 0 01.23.56.84.84 0 01-.82.82z" class="a"/>
  <circle cx="43.51" cy="48.16" r=".81" class="a"/>
  <path d="M48.13 49a.82.82 0 01-.57-.24.81.81 0 11.57.24zM52.77 49a.81.81 0 01-.82-.81.86.86 0 01.24-.58l.14-.11.14-.06.15-.07H53.04l.21.11.11.1a.79.79 0 01.24.55.82.82 0 01-.81.84zM57.4 49a.87.87 0 01-.58-.24.81.81 0 01-.23-.57.86.86 0 01.24-.58.81.81 0 01.58-.25h.26l.21.11.11.1a.8.8 0 010 1.13.82.82 0 01-.59.3zM34.24 52.45a.85.85 0 01-.3-.07 1 1 0 01-.29-.18l-.1-.13a.54.54 0 010-.11.81.81 0 01-.09-.18v-.11a2.33 2.33 0 010-.24 1.25 1.25 0 01.11-.24l.12-.15a1.29 1.29 0 01.25-.14.82.82 0 01.3-.06.8.8 0 01.31.06.86.86 0 01.28.17l.09.12a.49.49 0 01.06.12.58.58 0 01.06.15 1.42 1.42 0 010 .15 1.9 1.9 0 010 .23 1.2 1.2 0 01-.11.25l-.11.14a1 1 0 01-.54.22zM38.87 52.45a.88.88 0 01-.58-.24l-.09-.12a.52.52 0 01-.06-.12.88.88 0 01-.09-.19v-.11a1.94 1.94 0 010-.23 1.2 1.2 0 01.11-.25l.11-.14a.8.8 0 01.55-.22.84.84 0 01.32.06 1 1 0 01.28.18l.1.13a.54.54 0 010 .11.56.56 0 01.06.15 1.42 1.42 0 010 .15 1.9 1.9 0 010 .23 1.2 1.2 0 01-.11.25l-.12.15a1.23 1.23 0 01-.25.14.84.84 0 01-.23.07zM43.51 52.45a.87.87 0 01-.58-.24.8.8 0 01-.24-.57.81.81 0 01.24-.58.81.81 0 011.15 0 .81.81 0 010 1.15.87.87 0 01-.57.24zM48.13 52.44a.86.86 0 01-.57-.24l-.11-.14v-.11a.81.81 0 01-.09-.18v-.11a.89.89 0 01.24-.61.81.81 0 01.58-.25h.26l.21.11.11.1a.88.88 0 01.21.58 1.52 1.52 0 010 .2 1.2 1.2 0 01-.11.25l-.12.15-.12.08-.15.07h-.12zM52.77 52.45a.86.86 0 01-.58-.24l-.11-.14L52 52a.81.81 0 01-.09-.18v-.11a.82.82 0 01.81-.84.81.81 0 01.81.81 1.52 1.52 0 010 .2 1.2 1.2 0 01-.11.25l-.12.15a.87.87 0 01-.57.21zM34.26 55.92a.82.82 0 01-.82-.81.78.78 0 01.07-.3.82.82 0 01.18-.28.8.8 0 01.56-.23.84.84 0 01.32.06.71.71 0 01.43.42.86.86 0 01.07.33 1.5 1.5 0 010 .19 1.2 1.2 0 01-.12.26l-.11.14a1.06 1.06 0 01-.26.15.7.7 0 01-.28.07zM38.64 55.92l-.26-.14-.11-.1a.87.87 0 01-.21-.58.78.78 0 01.07-.3.83.83 0 01.76-.53h.27l.21.11.11.1a.94.94 0 01.14.24.83.83 0 01-.17.92l-.14.11-.14.06h-.31zM43.51 55.92a.68.68 0 01-.3-.06 1 1 0 01-.3-.19.87.87 0 01-.22-.57.79.79 0 01.07-.29.82.82 0 01.18-.28.92.92 0 01.26-.16.8.8 0 01.31-.06.81.81 0 01.31.06.71.71 0 01.43.42.74.74 0 01.07.32 2 2 0 010 .2 1.2 1.2 0 01-.12.26l-.11.14a1.08 1.08 0 01-.26.15.7.7 0 01-.28.07zM47.9 55.92l-.26-.14-.11-.1a.87.87 0 01-.21-.58.78.78 0 01.07-.3.83.83 0 01.76-.53h.27l.21.11.11.1a.94.94 0 01.14.24.83.83 0 01-.17.92l-.14.11-.14.06h-.31zM29.61 59.39a.89.89 0 01-.58-.24 1 1 0 01-.16-.26.81.81 0 01-.07-.31.85.85 0 01.2-.58.8.8 0 01.56-.23.82.82 0 01.32.07 1 1 0 01.28.18l.09.14.06.11a.56.56 0 01.05.14v.15a.83.83 0 01-.07.33 1 1 0 01-.18.28.86.86 0 01-.5.22zM52.54 59.39l-.19-.1-.16-.12a.82.82 0 01-.15-.25.86.86 0 01-.07-.33.83.83 0 01.24-.58.8.8 0 01.57-.23.84.84 0 01.32.06.81.81 0 01.27.17l.08.11a.42.42 0 01.07.12.71.71 0 01.06.17 1.38 1.38 0 010 .14.84.84 0 01-.49.77.87.87 0 01-.31.07zM57.39 59.39a.82.82 0 01-.29-.06.72.72 0 01-.44-.43.86.86 0 01-.07-.33 1.42 1.42 0 010-.2 1 1 0 01.1-.22 1.15 1.15 0 01.12-.16 1 1 0 01.26-.16.83.83 0 01.31-.06.8.8 0 01.62.23.87.87 0 01.26.59.78.78 0 01-.07.29 1 1 0 01-.18.29l-.11.07-.12.07-.17.06zM52.77 55.92a.81.81 0 110-1.62h3.82v-2.66a.81.81 0 011.62 0v3.47a.81.81 0 01-.81.81zM34.24 59.39a.81.81 0 110-1.62h13.9a.81.81 0 010 1.62zM29.61 55.92a.81.81 0 01-.81-.81v-3.47a.81.81 0 111.62 0v3.47a.81.81 0 01-.81.81zM52.77 44.34a.81.81 0 01-.81-.81v-2.31a3.13 3.13 0 016.25 0v2.32a.81.81 0 01-.81.81zm2.32-4.63a1.5 1.5 0 00-1.5 1.5v1.5h3v-1.5a1.5 1.5 0 00-1.51-1.5z" class="a"/>
  <path d="M55.08 39.71a.81.81 0 01-.81-.81v-1.16a6.61 6.61 0 016.6-6.6.81.81 0 110 1.62 5 5 0 00-5 5v1.14a.81.81 0 01-.79.81z" class="a"/>
  <g>
    <path d="M20.09 58.35a5.45 5.45 0 01-5-3.27L.48 22.37a5.44 5.44 0 012.74-7.19L27.44 4.34a.84.84 0 01.4-.1.81.81 0 01.38 1.53L3.89 16.65a3.82 3.82 0 00-2 5l14.67 32.81A3.82 3.82 0 0020 56.72h.21a.83.83 0 01.87.76.82.82 0 01-.76.86z" class="b"/>
    <path d="M18.17 31.07a.72.72 0 01-.28-.05L11 28.4a.75.75 0 01-.4-.4.81.81 0 010-.62l3.31-8.66a.81.81 0 011-.56.81.81 0 01.54 1l-3.1 8 6.11 2.33a.81.81 0 01-.29 1.56zM22.26 20.35a.8.8 0 01-.8-.69l-1-6.49a.82.82 0 01.69-.93h.12a.83.83 0 01.81.7l1 6.5a.81.81 0 01-.68.92z" class="b"/>
    <path d="M20.34 45a.7.7 0 01-.27-.06l-2.23-.85a5.45 5.45 0 01-3.12-7L27.52 3.5A5.47 5.47 0 0132.6 0a5.42 5.42 0 011.94.36l26 9.92a5.45 5.45 0 013.15 7l-4 10.42a.79.79 0 01-.72.44.8.8 0 01-.35-.08.81.81 0 01-.43-1l4-10.4a3.82 3.82 0 00-2.22-4.93L34 1.91a3.78 3.78 0 00-1.37-.25A3.84 3.84 0 0029 4.11L16.22 37.62a3.83 3.83 0 002.2 4.93l2.22.84a.81.81 0 01.46 1 .83.83 0 01-.76.56z" class="b"/>
    <path d="M31.78 29.22a.81.81 0 01-.74-.48l-3.77-8.45a.81.81 0 01.4-1.08l8.47-3.78a.79.79 0 01.33-.07.81.81 0 01.33 1.55l-7.72 3.44 3.45 7.72a.81.81 0 01-.41 1.07.82.82 0 01-.33.07zM43.14 33.58a.81.81 0 01-.32-1.58l7.72-3.44-3.45-7.72a.81.81 0 01.74-1.15.82.82 0 01.75.48l3.77 8.43a.81.81 0 01-.41 1.07l-8.46 3.83a.87.87 0 01-.32.07zM33.24 33.92a.82.82 0 01-.49-.16.81.81 0 01-.17-1.13L44.72 16.2a.83.83 0 01.7-.4.8.8 0 01.43.12.81.81 0 01.26 1.08l-.07.1-12.15 16.49a.82.82 0 01-.65.33z" class="b"/>
  </g>
</svg>
