<svg xmlns="http://www.w3.org/2000/svg" width="26" height="26">
  <defs>
    <style>
      .b{fill:#fff}
    </style>
  </defs>
  <circle cx="13" cy="13" r="13" fill="#c536a4"/>
  <path d="M13 8.77A4.23 4.23 0 1017.18 13 4.23 4.23 0 0013 8.77zm0 6.67A2.43 2.43 0 1115.39 13 2.43 2.43 0 0113 15.43zM17.3 7.66a1 1 0 101 1 1 1 0 00-1-1z" class="b"/>
  <path d="M17 4.77H8.86a4.14 4.14 0 00-4.13 4.14v8.15a4.16 4.16 0 004.14 4.16H17a4.14 4.14 0 004.14-4.14V8.91A4.14 4.14 0 0017 4.77zm2.34 12.29A2.35 2.35 0 0117 19.41H8.86a2.35 2.35 0 01-2.34-2.34V8.91a2.35 2.35 0 012.34-2.34H17a2.35 2.35 0 012.34 2.34z" class="b"/>
</svg>
