<svg xmlns="http://www.w3.org/2000/svg" width="80" height="80">
  <defs>
    <style>
      .b{fill:#fff}
    </style>
  </defs>
  <circle cx="40" cy="40" r="40" fill="#c536a4"/>
  <path d="M40 27a13 13 0 1012.86 13.15V40A13 13 0 0040 27zm0 20.52a7.48 7.48 0 117.35-7.6V40A7.48 7.48 0 0140 47.48zM53.23 23.57a3.08 3.08 0 103.08 3.08 3.08 3.08 0 00-3.08-3.08z" class="b"/>
  <path d="M52.31 14.68h-25a12.74 12.74 0 00-12.76 12.74v25.07a12.8 12.8 0 0012.74 12.8h25A12.74 12.74 0 0065 52.55V27.42a12.74 12.74 0 00-12.69-12.74zm7.2 37.82a7.23 7.23 0 01-7.2 7.23h-25a7.23 7.23 0 01-7.2-7.2V27.42a7.23 7.23 0 017.2-7.2h25a7.23 7.23 0 017.2 7.2z" class="b"/>
</svg>
