<svg xmlns="http://www.w3.org/2000/svg" width="64" height="48.13">
  <defs>
    <style>
      .b{fill:#ffe550}
    </style>
  </defs>
  <path fill="#665e4a" d="M50.64 48.12H2.8A2.81 2.81 0 010 45.33V11a3 3 0 013-3h2.39V6.34a3 3 0 013-3h15.86c.34 0 .49.2.65.43l4.68 6.46h2.52V.68a.68.68 0 01.68-.68h22.34l.11.06 8.57 7.06a.88.88 0 01.12.14l.06.11a.94.94 0 010 .13.73.73 0 010 .14v32.74a.68.68 0 01-.68.68h-9.09v3.71a3.37 3.37 0 01-3.37 3.37zm-1.81-5.27a.91.91 0 010 .18.65.65 0 010 .16v1.58a2 2 0 004 0v-3.71h-4zM3 9.39A1.66 1.66 0 001.35 11v34.12A1.66 1.66 0 003 46.78h45.14l-.1-.16a3.34 3.34 0 01-.56-1.62V17.86A1.49 1.49 0 0046 16.27H23.55l-.09-.06-.11-.1-4.8-6.58zm43.33 5.54a2.69 2.69 0 01.78.21l.13.06.26.15.1.06.14.12a2.85 2.85 0 01.53.56l.11.17a2.66 2.66 0 01.16.29l.08.2.08.23v.14a3.14 3.14 0 01.07.42V39.7h13.87V8.37h-7.82a.68.68 0 01-.68-.68V1.35H33.46v13.56h12.77zM8.4 4.69a1.66 1.66 0 00-1.66 1.65V8H19.21l.09.06a1.94 1.94 0 01.25.28l4.68 6.41h7.91v-3.3h-3.13l-.13-.06-.09-.07-.09-.1-4.78-6.6zM55.5 7h5.94L55.5 2.11z"/>
  <path d="M30.25 32.2a.68.68 0 010-1.35h13a.68.68 0 110 1.35zM30.25 36.24a.68.68 0 010-1.35h13a.68.68 0 010 1.35zM30.25 28.16a.68.68 0 010-1.35h5a.68.68 0 010 1.35zM7 38a.68.68 0 01-.68-.68V24.25a.68.68 0 01.68-.68h17.76a.68.68 0 01.68.68V37.3a.68.68 0 01-.68.68zm.68-1.35h16.41V24.93H7.72z" class="b"/>
  <path d="M11.46 34.61a.79.79 0 01-.75-.87.83.83 0 01.76-.87.78.78 0 01.75.87.77.77 0 01-.76.87zM13.32 34.61a2.24 2.24 0 01-.63-.08l.1-1a2 2 0 00.39 0c.61 0 .88-.38.88-1.24v-5.1h1.28v5c0 2.1-1 2.39-2 2.4zM17.7 34.59a3.46 3.46 0 01-1.33-.26l.18-1.06a3.09 3.09 0 001.17.24c.7 0 1.13-.36 1.13-1s-.38-.9-1-1.32a2.39 2.39 0 01-1.37-2 2.06 2.06 0 012.28-2.11 2.63 2.63 0 011.07.22l-.2 1.06a1.93 1.93 0 00-.89-.2.92.92 0 00-1 .88c0 .51.29.78 1.09 1.26a2.38 2.38 0 011.32 2.07 2.17 2.17 0 01-2.45 2.22z" class="b"/>
</svg>
