<svg xmlns="http://www.w3.org/2000/svg" width="26" height="26">
  <circle cx="13" cy="13" r="13" fill="#4d76a1"/>
  <path fill="#fff" d="M12.51 18.7h1a.86.86 0 00.47-.2.75.75 0 00.14-.45s0-1.37.62-1.57 1.44 1.32 2.26 1.91a1.62 1.62 0 001.13.35h2.28s1.19-.07.63-1a7.62 7.62 0 00-1.69-2c-1.43-1.33-1.24-1.11.48-3.41 1-1.4 1.47-2.25 1.34-2.62s-.9-.26-.9-.26H17.7a.58.58 0 00-.33.06.72.72 0 00-.23.28 14.86 14.86 0 01-.95 2c-1.14 1.94-1.6 2-1.79 1.92-.43-.28-.33-1.13-.33-1.73 0-1.88.29-2.66-.56-2.87A4.38 4.38 0 0012.37 9a5.53 5.53 0 00-2.13.22c-.29.14-.52.46-.38.48a1.15 1.15 0 01.76.38 2.48 2.48 0 01.25 1.16s.15 2.21-.35 2.49c-.35.19-.82-.2-1.84-2a16.37 16.37 0 01-.92-1.9.76.76 0 00-.21-.29 1.06 1.06 0 00-.39-.16H4.72s-.37 0-.5.17 0 .43 0 .43 1.91 4.47 4.07 6.72a5.86 5.86 0 004.23 1.93z"/>
</svg>
