<svg xmlns="http://www.w3.org/2000/svg" width="80" height="80">
  <circle cx="40" cy="40" r="40" fill="#4d76a1"/>
  <path fill="#fff" d="M38.49 57.54h3.08a2.65 2.65 0 001.43-.62 2.31 2.31 0 00.43-1.38s0-4.22 1.91-4.83 4.43 4.06 7 5.88a5 5 0 003.48 1.08h7s3.66-.22 1.94-3.08a23.45 23.45 0 00-5.2-6.15c-4.42-4.1-3.84-3.44 1.44-10.5 3.08-4.31 4.52-6.92 4.12-8.06s-2.77-.8-2.77-.8h-7.89a1.78 1.78 0 00-1 .18 2.22 2.22 0 00-.71.86 45.72 45.72 0 01-2.92 6.15c-3.51 6-4.92 6.15-5.51 5.91-1.32-.86-1-3.48-1-5.32 0-5.78.89-8.18-1.72-8.83a13.48 13.48 0 00-3.51-.34 17 17 0 00-6.55.68c-.89.43-1.6 1.42-1.17 1.48A3.54 3.54 0 0132.68 31a7.63 7.63 0 01.77 3.57s.46 6.8-1.08 7.66c-1.08.58-2.52-.62-5.66-6.15a50.37 50.37 0 01-2.83-5.85 2.34 2.34 0 00-.65-.89 3.26 3.26 0 00-1.2-.49h-7.51s-1.14 0-1.54.52 0 1.32 0 1.32 5.88 13.75 12.52 20.68a18 18 0 0013 5.94z"/>
</svg>
