<svg width="36" height="36" viewBox="0 0 36 36" fill="none" xmlns="http://www.w3.org/2000/svg">
<circle cx="18" cy="18" r="18" fill="white" fill-opacity="0.1"/>
<g clip-path="url(#clip0_11_311)">
<path d="M17.5 15.5H21.25L20.8333 17.1666H17.5V24.6666H15.8333V17.1666H12.5V15.5H15.8333V13.94C15.8333 12.4541 15.9883 11.915 16.2783 11.3716C16.5625 10.8348 17.0015 10.3958 17.5383 10.1116C18.0817 9.82163 18.6208 9.66663 20.1067 9.66663C20.5417 9.66663 20.9233 9.70829 21.25 9.79163V11.3333H20.1067C19.0033 11.3333 18.6675 11.3983 18.325 11.5816C18.0717 11.7166 17.8833 11.905 17.7483 12.1583C17.565 12.5008 17.5 12.8366 17.5 13.94V15.5Z" fill="white" fill-opacity="0.9"/>
</g>
<defs>
<clipPath id="clip0_11_311">
<rect width="20" height="20" fill="white" transform="translate(8 8)"/>
</clipPath>
</defs>
</svg>
