<svg width="36" height="36" viewBox="0 0 36 36" fill="none" xmlns="http://www.w3.org/2000/svg">
<circle cx="18" cy="18" r="18" fill="white" fill-opacity="0.1"/>
<g clip-path="url(#clip0_11_306)">
<path d="M18.0013 15.5C17.3383 15.5 16.7024 15.7634 16.2335 16.2322C15.7647 16.701 15.5013 17.3369 15.5013 18C15.5013 18.663 15.7647 19.2989 16.2335 19.7677C16.7024 20.2366 17.3383 20.5 18.0013 20.5C18.6643 20.5 19.3002 20.2366 19.7691 19.7677C20.2379 19.2989 20.5013 18.663 20.5013 18C20.5013 17.3369 20.2379 16.701 19.7691 16.2322C19.3002 15.7634 18.6643 15.5 18.0013 15.5ZM18.0013 13.8333C19.1064 13.8333 20.1662 14.2723 20.9476 15.0537C21.729 15.8351 22.168 16.8949 22.168 18C22.168 19.105 21.729 20.1648 20.9476 20.9462C20.1662 21.7276 19.1064 22.1666 18.0013 22.1666C16.8962 22.1666 15.8364 21.7276 15.055 20.9462C14.2736 20.1648 13.8346 19.105 13.8346 18C13.8346 16.8949 14.2736 15.8351 15.055 15.0537C15.8364 14.2723 16.8962 13.8333 18.0013 13.8333ZM23.418 13.625C23.418 13.9012 23.3082 14.1662 23.1129 14.3615C22.9175 14.5569 22.6526 14.6666 22.3763 14.6666C22.1 14.6666 21.8351 14.5569 21.6397 14.3615C21.4444 14.1662 21.3346 13.9012 21.3346 13.625C21.3346 13.3487 21.4444 13.0837 21.6397 12.8884C21.8351 12.693 22.1 12.5833 22.3763 12.5833C22.6526 12.5833 22.9175 12.693 23.1129 12.8884C23.3082 13.0837 23.418 13.3487 23.418 13.625ZM18.0013 11.3333C15.9396 11.3333 15.603 11.3391 14.6438 11.3816C13.9905 11.4125 13.5521 11.5 13.1455 11.6583C12.7838 11.7983 12.523 11.9658 12.2455 12.2441C11.9846 12.4961 11.7841 12.8038 11.6588 13.1441C11.5005 13.5525 11.413 13.99 11.383 14.6425C11.3396 15.5625 11.3346 15.8841 11.3346 18C11.3346 20.0616 11.3405 20.3983 11.383 21.3575C11.4138 22.01 11.5013 22.4491 11.6588 22.855C11.8005 23.2175 11.9671 23.4783 12.2438 23.755C12.5246 24.035 12.7855 24.2025 13.1438 24.3408C13.5555 24.5 13.9938 24.5883 14.6438 24.6183C15.5638 24.6616 15.8855 24.6666 18.0013 24.6666C20.063 24.6666 20.3996 24.6608 21.3588 24.6183C22.0105 24.5875 22.4496 24.5 22.8563 24.3425C23.2171 24.2016 23.4796 24.0341 23.7563 23.7575C24.0371 23.4766 24.2046 23.2158 24.343 22.8575C24.5013 22.4466 24.5896 22.0075 24.6196 21.3575C24.663 20.4375 24.668 20.1158 24.668 18C24.668 15.9383 24.6621 15.6016 24.6196 14.6425C24.5888 13.9908 24.5013 13.5508 24.343 13.1441C24.2174 12.8041 24.0172 12.4966 23.7571 12.2441C23.5052 11.9832 23.1976 11.7826 22.8571 11.6575C22.4488 11.4991 22.0105 11.4116 21.3588 11.3816C20.4388 11.3383 20.1171 11.3333 18.0013 11.3333ZM18.0013 9.66663C20.2655 9.66663 20.548 9.67496 21.4363 9.71663C22.3238 9.75829 22.928 9.89746 23.4596 10.1041C24.0096 10.3158 24.473 10.6025 24.9363 11.065C25.36 11.4815 25.6879 11.9854 25.8971 12.5416C26.103 13.0725 26.243 13.6775 26.2846 14.565C26.3238 15.4533 26.3346 15.7358 26.3346 18C26.3346 20.2641 26.3263 20.5466 26.2846 21.435C26.243 22.3225 26.103 22.9266 25.8971 23.4583C25.6885 24.0148 25.3606 24.5188 24.9363 24.935C24.5196 25.3586 24.0157 25.6864 23.4596 25.8958C22.9288 26.1016 22.3238 26.2416 21.4363 26.2833C20.548 26.3225 20.2655 26.3333 18.0013 26.3333C15.7371 26.3333 15.4546 26.325 14.5663 26.2833C13.6788 26.2416 13.0746 26.1016 12.543 25.8958C11.9866 25.687 11.4826 25.3591 11.0663 24.935C10.6425 24.5184 10.3146 24.0145 10.1055 23.4583C9.8988 22.9275 9.75964 22.3225 9.71797 21.435C9.6788 20.5466 9.66797 20.2641 9.66797 18C9.66797 15.7358 9.6763 15.4533 9.71797 14.565C9.75964 13.6766 9.8988 13.0733 10.1055 12.5416C10.314 11.9851 10.642 11.4811 11.0663 11.065C11.4827 10.641 11.9867 10.3131 12.543 10.1041C13.0746 9.89746 13.678 9.75829 14.5663 9.71663C15.4546 9.67746 15.7371 9.66663 18.0013 9.66663Z" fill="white" fill-opacity="0.9"/>
</g>
<defs>
<clipPath id="clip0_11_306">
<rect width="20" height="20" fill="white" transform="translate(8 8)"/>
</clipPath>
</defs>
</svg>
