<svg width="36" height="36" viewBox="0 0 36 36" fill="none" xmlns="http://www.w3.org/2000/svg">
<circle cx="18" cy="18" r="18" fill="white" fill-opacity="0.1"/>
<g clip-path="url(#clip0_11_300)">
<path d="M20.7516 12.6249C20.1182 12.6248 19.5101 12.8733 19.0581 13.317C18.6062 13.7607 18.3465 14.3641 18.3349 14.9974L18.3116 16.3099C18.3102 16.3804 18.2939 16.4497 18.2639 16.5135C18.2338 16.5772 18.1906 16.6339 18.1371 16.6798C18.0836 16.7257 18.021 16.7597 17.9534 16.7797C17.8858 16.7997 17.8147 16.8051 17.7449 16.7957L16.4441 16.6191C14.7324 16.3857 13.0924 15.5974 11.5191 14.2866C11.0207 17.0449 11.9941 18.9557 14.3382 20.4299L15.7941 21.3449C15.8632 21.3884 15.9207 21.4481 15.9614 21.5189C16.0022 21.5898 16.0249 21.6695 16.0277 21.7511C16.0305 21.8328 16.0133 21.9139 15.9775 21.9873C15.9417 22.0607 15.8884 22.1243 15.8224 22.1724L14.4957 23.1416C15.2849 23.1907 16.0341 23.1557 16.6557 23.0324C20.5874 22.2474 23.2016 19.2891 23.2016 14.4091C23.2016 14.0107 22.3582 12.6249 20.7516 12.6249ZM16.6682 14.9666C16.6828 14.1633 16.934 13.3821 17.3904 12.7209C17.8468 12.0597 18.4881 11.5478 19.234 11.2494C19.9799 10.9509 20.7973 10.8791 21.5838 11.043C22.3704 11.2069 23.0911 11.5992 23.6557 12.1707C24.2482 12.1666 24.7524 12.3166 25.8799 11.6332C25.6007 12.9999 25.4632 13.5932 24.8682 14.4091C24.8682 20.7774 20.9541 23.8741 16.9824 24.6666C14.2591 25.2099 10.2991 24.3174 9.16406 23.1324C9.7424 23.0874 12.0924 22.8349 13.4507 21.8407C12.3016 21.0832 7.7274 18.3916 10.7332 11.1549C12.1441 12.8024 13.5749 13.9241 15.0249 14.5191C15.9899 14.9149 16.2266 14.9066 16.6691 14.9674L16.6682 14.9666Z" fill="white" fill-opacity="0.9"/>
</g>
<defs>
<clipPath id="clip0_11_300">
<rect width="20" height="20" fill="white" transform="translate(8 8)"/>
</clipPath>
</defs>
</svg>
