<svg width="52" height="52" viewBox="0 0 52 52" fill="none" xmlns="http://www.w3.org/2000/svg">
<g clip-path="url(#clip0_25_94)">
<path d="M52.0002 26.1593C52.0002 11.7098 40.3587 -0.00317383 26.0002 -0.00317383C11.6352 7.61722e-05 -0.00634766 11.7098 -0.00634766 26.1626C-0.00634766 39.2178 9.50315 50.0403 21.9312 52.0033V33.7221H15.3337V26.1626H21.9377V20.3938C21.9377 13.8386 25.8214 10.2181 31.7592 10.2181C34.6062 10.2181 37.5799 10.7283 37.5799 10.7283V17.1633H34.3007C31.0734 17.1633 30.0659 19.1816 30.0659 21.2518V26.1593H37.2744L36.1239 33.7188H30.0627V52.0001C42.4907 50.0371 52.0002 39.2146 52.0002 26.1593Z" fill="#FAF7F7"/>
</g>
<defs>
<clipPath id="clip0_25_94">
<rect width="52" height="52" fill="white"/>
</clipPath>
</defs>
</svg>
