<svg width="54" height="52" viewBox="0 0 54 52" fill="none" xmlns="http://www.w3.org/2000/svg">
<g clip-path="url(#clip0_25_89)">
<path d="M27 17.3334C24.6131 17.3334 22.3239 18.2465 20.636 19.8718C18.9482 21.4971 18 23.7015 18 26C18 28.2986 18.9482 30.503 20.636 32.1283C22.3239 33.7536 24.6131 34.6667 27 34.6667C29.3869 34.6667 31.6761 33.7536 33.364 32.1283C35.0518 30.503 36 28.2986 36 26C36 23.7015 35.0518 21.4971 33.364 19.8718C31.6761 18.2465 29.3869 17.3334 27 17.3334Z" fill="#FAF7F7"/>
<path fill-rule="evenodd" clip-rule="evenodd" d="M16.2 0C11.9035 0 7.78296 1.64357 4.74487 4.56913C1.70678 7.4947 0 11.4626 0 15.6L0 36.4C0 40.5374 1.70678 44.5053 4.74487 47.4309C7.78296 50.3564 11.9035 52 16.2 52H37.8C42.0965 52 46.217 50.3564 49.2551 47.4309C52.2932 44.5053 54 40.5374 54 36.4V15.6C54 11.4626 52.2932 7.4947 49.2551 4.56913C46.217 1.64357 42.0965 0 37.8 0L16.2 0ZM14.4 26C14.4 22.782 15.7275 19.6959 18.0905 17.4204C20.4534 15.145 23.6583 13.8667 27 13.8667C30.3417 13.8667 33.5466 15.145 35.9095 17.4204C38.2725 19.6959 39.6 22.782 39.6 26C39.6 29.218 38.2725 32.3041 35.9095 34.5796C33.5466 36.855 30.3417 38.1333 27 38.1333C23.6583 38.1333 20.4534 36.855 18.0905 34.5796C15.7275 32.3041 14.4 29.218 14.4 26ZM39.6 13.8667H43.2V10.4H39.6V13.8667Z" fill="#FAF7F7"/>
</g>
<defs>
<clipPath id="clip0_25_89">
<rect width="54" height="52" fill="white"/>
</clipPath>
</defs>
</svg>
