<svg width="52" height="52" viewBox="0 0 52 52" fill="none" xmlns="http://www.w3.org/2000/svg">
<g clip-path="url(#clip0_25_92)">
<path d="M44.304 44.3118H36.6028V32.2478C36.6028 29.3696 36.543 25.6672 32.5884 25.6672C28.574 25.6672 27.9604 28.7976 27.9604 32.0346V44.3118H20.2618V19.5H27.6562V22.88H27.7576C28.7898 20.93 31.304 18.876 35.0584 18.876C42.861 18.876 44.304 24.0084 44.304 30.693V44.3118ZM11.5622 16.1044C9.0818 16.1044 7.0902 14.0998 7.0902 11.6324C7.0902 9.165 9.0844 7.1604 11.5622 7.1604C12.7482 7.1604 13.8857 7.63156 14.7244 8.47022C15.563 9.30888 16.0342 10.4464 16.0342 11.6324C16.0342 12.8184 15.563 13.9559 14.7244 14.7946C13.8857 15.6332 12.7482 16.1044 11.5622 16.1044ZM15.4206 44.3144H7.6986V19.5H15.4206V44.3118V44.3144ZM48.1546 0H3.8376C1.716 0 0 1.677 0 3.744V48.256C0 50.323 1.716 52 3.8376 52H48.1468C50.2658 52 52 50.3256 52 48.256V3.744C52 1.6796 50.2658 0 48.1468 0H48.1546Z" fill="#FAF7F7"/>
</g>
<defs>
<clipPath id="clip0_25_92">
<rect width="52" height="52" fill="white"/>
</clipPath>
</defs>
</svg>
