<svg xmlns="http://www.w3.org/2000/svg" width="81.47" height="80.09" viewBox="0 0 81.47 80.09">
  <title>logo</title>
  <g>
    <path d="M28.47,54a10.51,10.51,0,0,1-9.12-9.59c-.16-2.76,1.14-5,1.6-7.63a13.81,13.81,0,0,0-5.58-13.66c-2.33-1.63-4.76-2-7.45-2.69A10.52,10.52,0,0,1,0,9.48,10.43,10.43,0,0,1,9.57,0a10.53,10.53,0,0,1,11,8.28c.6,2.94-.51,5.27-1.24,8.05A13.66,13.66,0,0,0,19.64,24a13.92,13.92,0,0,0,4.64,6.58c2.3,1.79,4.78,2.38,7.56,3A10.38,10.38,0,0,1,28.47,54ZM59,54a10.53,10.53,0,0,1-9.33-10.32c0-2.65,1.4-4.89,1.72-7.47A13.81,13.81,0,0,0,39.68,20.71c-5.79-1-10.18-5.84-9.25-11.91a10.42,10.42,0,0,1,20.69,2.37c-.13,2.15-1.24,4.08-1.61,6.19a13.76,13.76,0,0,0,1.18,8.39,13.94,13.94,0,0,0,5.6,6c2.31,1.31,4.8,1.39,7.25,2.22A10.38,10.38,0,0,1,59,54ZM69.89,20.68a10.57,10.57,0,0,1-8.76-7.2A10.44,10.44,0,0,1,65.46,1.62,10.52,10.52,0,0,1,78.59,3.21a10.42,10.42,0,0,1,2,11.29A10.53,10.53,0,0,1,69.89,20.68Z" style="fill: #FAF7F7"/>
    <g>
      <path d="M13.87,80l-2.67-9.9L8.49,80H4.71L0,65.64H3.9L6.72,76.18,9.47,65.64H13l2.82,10.54,2.77-10.54h3.74L17.63,80Z" style="fill: #FAF7F7"/>
      <path d="M33.79,66.94a4.59,4.59,0,0,1,1.52,3.7,5,5,0,0,1-1.52,3.91,6.1,6.1,0,0,1-4.27,1.39H26.91v4H23.25V65.64h6.27A6.4,6.4,0,0,1,33.79,66.94Zm-6.88,6.13h2.43a2.68,2.68,0,0,0,1.87-.59,2.21,2.21,0,0,0,.65-1.72,2.1,2.1,0,0,0-.66-1.68,2.76,2.76,0,0,0-1.86-.57H26.91Z" style="fill: #FAF7F7"/>
      <path d="M49.21,80l-2.67-9.9L43.84,80H40.05L35.35,65.64h3.9l2.82,10.54,2.75-10.54h3.57l2.82,10.54L54,65.64h3.74L53,80Z" style="fill: #FAF7F7"/>
      <path d="M66.3,70.38a6.16,6.16,0,0,1,1.45,4.35q0,.45,0,.67H59.94a2.83,2.83,0,0,0,.94,1.51,2.59,2.59,0,0,0,1.67.53A3.59,3.59,0,0,0,64,77.16a3.91,3.91,0,0,0,1.23-.84l1.87,1.83A5.71,5.71,0,0,1,65,79.59a7.21,7.21,0,0,1-2.73.5,6.61,6.61,0,0,1-3.11-.69,4.94,4.94,0,0,1-2-2,6.37,6.37,0,0,1,0-5.91,5.07,5.07,0,0,1,2-2,6.23,6.23,0,0,1,3-.7A5.39,5.39,0,0,1,66.3,70.38Zm-2.57,1.5a2.06,2.06,0,0,0-1.55-.61,2.1,2.1,0,0,0-1.52.6,2.85,2.85,0,0,0-.79,1.63h4.45A2.24,2.24,0,0,0,63.73,71.88Z" style="fill: #FAF7F7"/>
      <path d="M78.92,69.52a4.73,4.73,0,0,1,1.83,2,6.57,6.57,0,0,1,.65,3,6.44,6.44,0,0,1-.64,2.93,4.69,4.69,0,0,1-1.79,2,5.12,5.12,0,0,1-2.69.69,4.47,4.47,0,0,1-1.93-.41,3.94,3.94,0,0,1-1.46-1.18V80H69.34V64.78h3.55V70.4a4,4,0,0,1,1.43-1.17,4.23,4.23,0,0,1,1.88-.41A5.21,5.21,0,0,1,78.92,69.52Zm-1.79,7a3.1,3.1,0,0,0,.69-2.08,3.06,3.06,0,0,0-.69-2.07,2.25,2.25,0,0,0-1.79-.8,2.22,2.22,0,0,0-1.76.8,3,3,0,0,0-.69,2.07,3.12,3.12,0,0,0,.68,2.09,2.21,2.21,0,0,0,1.77.8A2.24,2.24,0,0,0,77.13,76.48Z" style="fill: #FAF7F7"/>
    </g>
  </g>
</svg>
