<svg width="43" height="43" viewBox="0 0 43 43" fill="none" xmlns="http://www.w3.org/2000/svg">
<g clip-path="url(#clip0_25_81)">
<path fill-rule="evenodd" clip-rule="evenodd" d="M17.0567 5.375C17.5392 5.37497 18.0168 5.47239 18.4607 5.66143C18.9047 5.85046 19.3059 6.12721 19.6403 6.47508L19.8553 6.72054L22.36 9.85417H35.8333C36.7374 9.85388 37.6081 10.1953 38.271 10.81C38.9339 11.4247 39.3399 12.2673 39.4077 13.1687L39.4167 13.4375V34.0417C39.417 34.9457 39.0755 35.8164 38.4608 36.4793C37.8461 37.1422 37.0036 37.5482 36.1021 37.616L35.8333 37.625H7.16668C6.26264 37.6253 5.39191 37.2839 4.72903 36.6692C4.06615 36.0544 3.6601 35.2119 3.5923 34.3104L3.58334 34.0417V8.95833C3.58306 8.0543 3.92449 7.18357 4.53919 6.52068C5.1539 5.8578 5.99644 5.45176 6.89793 5.38396L7.16668 5.375H17.0567ZM16.125 21.5C15.6498 21.5 15.1941 21.6888 14.8581 22.0248C14.5221 22.3608 14.3333 22.8165 14.3333 23.2917C14.3333 23.7668 14.5221 24.2226 14.8581 24.5586C15.1941 24.8946 15.6498 25.0833 16.125 25.0833C16.6002 25.0833 17.0559 24.8946 17.3919 24.5586C17.7279 24.2226 17.9167 23.7668 17.9167 23.2917C17.9167 22.8165 17.7279 22.3608 17.3919 22.0248C17.0559 21.6888 16.6002 21.5 16.125 21.5ZM21.5 21.5C21.0248 21.5 20.5691 21.6888 20.2331 22.0248C19.8971 22.3608 19.7083 22.8165 19.7083 23.2917C19.7083 23.7668 19.8971 24.2226 20.2331 24.5586C20.5691 24.8946 21.0248 25.0833 21.5 25.0833C21.9752 25.0833 22.4309 24.8946 22.7669 24.5586C23.1029 24.2226 23.2917 23.7668 23.2917 23.2917C23.2917 22.8165 23.1029 22.3608 22.7669 22.0248C22.4309 21.6888 21.9752 21.5 21.5 21.5ZM26.875 21.5C26.3998 21.5 25.9441 21.6888 25.6081 22.0248C25.2721 22.3608 25.0833 22.8165 25.0833 23.2917C25.0833 23.7668 25.2721 24.2226 25.6081 24.5586C25.9441 24.8946 26.3998 25.0833 26.875 25.0833C27.3502 25.0833 27.8059 24.8946 28.1419 24.5586C28.4779 24.2226 28.6667 23.7668 28.6667 23.2917C28.6667 22.8165 28.4779 22.3608 28.1419 22.0248C27.8059 21.6888 27.3502 21.5 26.875 21.5Z" fill="#00621B"/>
</g>
<defs>
<clipPath id="clip0_25_81">
<rect width="43" height="43" fill="white"/>
</clipPath>
</defs>
</svg>
