<svg width="43" height="43" viewBox="0 0 43 43" fill="none" xmlns="http://www.w3.org/2000/svg">
<path d="M19.7083 5.375V37.625H7.16667C6.69149 37.625 6.23577 37.4362 5.89977 37.1002C5.56376 36.7642 5.375 36.3085 5.375 35.8333V7.16667C5.375 6.69149 5.56376 6.23577 5.89977 5.89977C6.23577 5.56376 6.69149 5.375 7.16667 5.375H19.7083ZM37.625 23.2917V35.8333C37.625 36.3085 37.4362 36.7642 37.1002 37.1002C36.7642 37.4362 36.3085 37.625 35.8333 37.625H23.2917V23.2917H37.625ZM35.8333 5.375C36.3085 5.375 36.7642 5.56376 37.1002 5.89977C37.4362 6.23577 37.625 6.69149 37.625 7.16667V19.7083H23.2917V5.375H35.8333Z" fill="#00621B"/>
</svg>
