<svg width="43" height="43" viewBox="0 0 43 43" fill="none" xmlns="http://www.w3.org/2000/svg">
<path d="M10.75 5.375V10.75H5.375V5.375H10.75ZM2.6875 2.6875V13.4375H13.4375V2.6875H2.6875ZM24.1875 9.40625V14.7812H18.8125V9.40625H24.1875ZM16.125 6.71875V17.4688H26.875V6.71875H16.125ZM10.75 21.5V26.875H5.375V21.5H10.75ZM2.6875 18.8125V29.5625H13.4375V18.8125H2.6875Z" fill="#00621B"/>
<path d="M29.5625 13.4375V21.5H21.5V29.5625H13.4375V40.3125H40.3125V13.4375H29.5625ZM24.1875 24.1875H29.5625V29.5625H24.1875V24.1875ZM21.5 37.625H16.125V32.25H21.5V37.625ZM29.5625 37.625H24.1875V32.25H29.5625V37.625ZM37.625 37.625H32.25V32.25H37.625V37.625ZM37.625 29.5625H32.25V24.1875H37.625V29.5625ZM32.25 21.5V16.125H37.625V21.5H32.25Z" fill="#00621B"/>
</svg>
