<svg width="52" height="52" viewBox="0 0 52 52" fill="none" xmlns="http://www.w3.org/2000/svg">
<g clip-path="url(#clip0_25_85)">
<path d="M26.1495 40.8937C17.433 40.8937 13.5395 36.6058 13.5395 33.3883C13.5395 31.7308 14.755 30.5803 16.4277 30.5803C20.1608 30.5803 19.1858 35.9472 26.1495 35.9472C29.705 35.9472 31.6745 34.008 31.6745 32.0233C31.6745 30.8295 31.0917 29.51 28.7408 28.9272L20.9928 26.988C14.7528 25.4193 13.6197 22.035 13.6197 18.8608C13.6197 12.259 19.8185 9.78033 25.6425 9.78033C30.9963 9.78033 37.3273 12.7552 37.3273 16.7115C37.3273 18.4102 35.8367 19.3982 34.1792 19.3982C30.9963 19.3982 31.5835 14.9847 25.1572 14.9847C21.9743 14.9847 20.1912 16.4233 20.1912 18.4882C20.1912 20.553 22.6893 21.2138 24.8647 21.71L30.5782 22.9818C36.842 24.388 38.4302 28.0648 38.4302 31.5272C38.4302 36.8918 34.3092 40.8958 26.0325 40.8958M50.0478 30.3182L49.985 30.6107L49.8897 30.0907C49.9222 30.1882 49.985 30.251 50.0175 30.3507C50.2775 28.8882 50.4097 27.3975 50.4097 25.9047C50.4103 22.6781 49.7742 19.4832 48.538 16.5029C47.3018 13.5226 45.4897 10.8155 43.2055 8.53667C40.9666 6.30562 38.3231 4.52168 35.4163 3.28033C32.5607 1.91317 29.3475 1.26533 26.039 1.26533C24.479 1.26533 22.9103 1.417 21.3958 1.70733L21.6537 1.83733L21.1358 1.76583L21.3937 1.71167C19.2991 0.589699 16.96 0.00177513 14.5838 0C10.7077 0 7.0655 1.51233 4.3225 4.26183C2.96939 5.61122 1.8969 7.21521 1.16691 8.98125C0.436923 10.7473 0.0638882 12.6404 0.0693337 14.5513C0.0693337 17.0278 0.702 19.4588 1.898 21.6103L1.94133 21.3417L2.03017 21.8595L1.898 21.6103C1.08261 26.2645 1.62013 31.0548 3.44283 35.4142C4.6541 38.3466 6.44234 41.0058 8.70133 43.2337C10.9318 45.4836 13.5769 47.2803 16.4905 48.5247C19.5108 49.8247 22.724 50.4703 26.0325 50.4703C27.4603 50.4703 28.9228 50.3403 30.316 50.0825L30.0582 49.9482L30.5782 50.0478L30.2857 50.1128C32.4601 51.3518 34.92 52.0022 37.4227 52C39.3285 52.0056 41.2164 51.6326 42.9769 50.9024C44.7373 50.1723 46.3351 49.0997 47.6775 47.7468C49.0299 46.3971 50.1018 44.7929 50.8314 43.027C51.561 41.261 51.9339 39.3681 51.9285 37.4573C51.9196 34.9804 51.2838 32.546 50.0803 30.381" fill="#FAF7F7"/>
</g>
<defs>
<clipPath id="clip0_25_85">
<rect width="52" height="52" fill="white"/>
</clipPath>
</defs>
</svg>
