<svg width="52" height="52" viewBox="0 0 52 52" fill="none" xmlns="http://www.w3.org/2000/svg">
<g clip-path="url(#clip0_25_87)">
<path d="M25.8787 7.07779e-05C19.0041 0.0321525 12.422 2.78559 7.57228 7.65806C2.72254 12.5305 -7.48563e-05 19.1254 1.54361e-09 26.0001C1.54362e-09 32.8957 2.73928 39.5089 7.61522 44.3848C12.4912 49.2608 19.1044 52.0001 26 52.0001C32.8956 52.0001 39.5088 49.2608 44.3848 44.3848C49.2607 39.5089 52 32.8957 52 26.0001C52 19.1044 49.2607 12.4912 44.3848 7.61529C39.5088 2.73935 32.8956 7.07779e-05 26 7.07779e-05C25.9596 -2.35926e-05 25.9191 -2.35926e-05 25.8787 7.07779e-05ZM36.6297 15.6521C36.8463 15.6477 37.3252 15.7019 37.6372 15.9554C37.8445 16.1354 37.9767 16.3867 38.0077 16.6596C38.0423 16.8611 38.0857 17.3226 38.051 17.6822C37.661 21.7946 35.9667 31.7699 35.1043 36.3741C34.7403 38.3241 34.0232 38.9762 33.3277 39.0391C31.8197 39.1799 30.6735 38.0424 29.211 37.0847C26.923 35.5832 25.6295 34.6494 23.4087 33.1847C20.8412 31.4947 22.5052 30.5631 23.9677 29.0464C24.3512 28.6477 31.0028 22.5962 31.1328 22.0481C31.148 21.9787 31.1632 21.7231 31.0115 21.5887C30.8598 21.4544 30.6345 21.4999 30.472 21.5367C30.2423 21.5887 26.5872 24.0067 19.5065 28.7842C18.4665 29.4992 17.5283 29.8459 16.6855 29.8242C15.7582 29.8069 13.9728 29.3021 12.6447 28.8709C11.0153 28.3401 9.72183 28.0606 9.8345 27.1614C9.893 26.6934 10.5387 26.2146 11.7693 25.7249C19.3483 22.4229 24.401 20.2454 26.9317 19.1946C34.151 16.1916 35.6525 15.6694 36.6297 15.6521Z" fill="#FAF7F7"/>
</g>
<defs>
<clipPath id="clip0_25_87">
<rect width="52" height="52" fill="white"/>
</clipPath>
</defs>
</svg>
